<mxfile host="app.diagrams.net" modified="2023-08-26T19:53:12.823Z" agent="Mozilla/5.0 (Macintosh; Intel Mac OS X 10_15_7) AppleWebKit/605.1.15 (KHTML, like Gecko) Version/16.5.2 Safari/605.1.15" etag="hDY3f1xz1nk0pZRqY9c2" version="21.6.9" type="github">
  <diagram name="Page-1" id="On6yJk_Hg7oKFl7p0mdY">
    <mxGraphModel dx="513" dy="581" grid="0" gridSize="1" guides="1" tooltips="1" connect="1" arrows="1" fold="1" page="1" pageScale="1" pageWidth="850" pageHeight="1100" background="#4D5766" math="0" shadow="0">
      <root>
        <mxCell id="0" />
        <mxCell id="1" parent="0" />
        <mxCell id="uLg59qGG4U38qY8t5iAr-107" value="" style="whiteSpace=wrap;html=1;fillColor=none;rounded=1;strokeWidth=1;strokeColor=#CCCCCC;dashed=1;dashPattern=1 2;fontFamily=Google Sans;fontSource=https%3A%2F%2Ffonts.googleapis.com%2Fcss%3Ffamily%3DGoogle%2BSans;" parent="1" vertex="1">
          <mxGeometry x="255" y="299" width="330" height="61" as="geometry" />
        </mxCell>
        <mxCell id="uLg59qGG4U38qY8t5iAr-110" value="" style="whiteSpace=wrap;html=1;fillColor=none;rounded=1;strokeWidth=1;strokeColor=#CCCCCC;dashed=1;dashPattern=1 2;fontFamily=Google Sans;fontSource=https%3A%2F%2Ffonts.googleapis.com%2Fcss%3Ffamily%3DGoogle%2BSans;" parent="1" vertex="1">
          <mxGeometry x="255" y="370" width="330" height="61" as="geometry" />
        </mxCell>
        <mxCell id="uLg59qGG4U38qY8t5iAr-4" value="e1-1" style="edgeStyle=none;rounded=0;orthogonalLoop=1;jettySize=auto;html=1;exitX=0.75;exitY=1;exitDx=0;exitDy=0;endArrow=none;endFill=0;strokeWidth=1;entryX=0.5;entryY=0;entryDx=0;entryDy=0;entryPerimeter=0;strokeColor=#98A2AE;fontFamily=Google Sans;fontSource=https%3A%2F%2Ffonts.googleapis.com%2Fcss%3Ffamily%3DGoogle%2BSans;labelBackgroundColor=none;fontSize=6;fontColor=#FFFFFF;" parent="1" source="uLg59qGG4U38qY8t5iAr-58" target="uLg59qGG4U38qY8t5iAr-17" edge="1">
          <mxGeometry x="-0.9138" y="-7" relative="1" as="geometry">
            <mxPoint x="301.0322580645161" y="300" as="targetPoint" />
            <Array as="points" />
            <mxPoint as="offset" />
          </mxGeometry>
        </mxCell>
        <mxCell id="uLg59qGG4U38qY8t5iAr-8" style="rounded=0;orthogonalLoop=1;jettySize=auto;html=1;exitX=0.5;exitY=0;exitDx=0;exitDy=0;entryX=0.5;entryY=1;entryDx=0;entryDy=0;endArrow=none;endFill=0;fontFamily=Google Sans;fontSource=https%3A%2F%2Ffonts.googleapis.com%2Fcss%3Ffamily%3DGoogle%2BSans;strokeColor=#98A2AE;" parent="1" source="uLg59qGG4U38qY8t5iAr-58" target="uLg59qGG4U38qY8t5iAr-61" edge="1">
          <mxGeometry relative="1" as="geometry" />
        </mxCell>
        <mxCell id="uLg59qGG4U38qY8t5iAr-9" style="rounded=0;orthogonalLoop=1;jettySize=auto;html=1;exitX=0.5;exitY=0;exitDx=0;exitDy=0;entryX=0.5;entryY=1;entryDx=0;entryDy=0;endArrow=none;endFill=0;fontFamily=Google Sans;fontSource=https%3A%2F%2Ffonts.googleapis.com%2Fcss%3Ffamily%3DGoogle%2BSans;strokeColor=#98A2AE;" parent="1" source="uLg59qGG4U38qY8t5iAr-58" target="uLg59qGG4U38qY8t5iAr-57" edge="1">
          <mxGeometry relative="1" as="geometry">
            <mxPoint x="311" y="230" as="sourcePoint" />
            <mxPoint x="351" y="133" as="targetPoint" />
          </mxGeometry>
        </mxCell>
        <mxCell id="uLg59qGG4U38qY8t5iAr-10" style="rounded=0;orthogonalLoop=1;jettySize=auto;html=1;exitX=0.5;exitY=0;exitDx=0;exitDy=0;entryX=0.5;entryY=1;entryDx=0;entryDy=0;endArrow=none;endFill=0;fontFamily=Google Sans;fontSource=https%3A%2F%2Ffonts.googleapis.com%2Fcss%3Ffamily%3DGoogle%2BSans;strokeColor=#98A2AE;" parent="1" source="uLg59qGG4U38qY8t5iAr-59" target="uLg59qGG4U38qY8t5iAr-61" edge="1">
          <mxGeometry relative="1" as="geometry">
            <mxPoint x="311" y="230" as="sourcePoint" />
            <mxPoint x="416" y="190" as="targetPoint" />
          </mxGeometry>
        </mxCell>
        <mxCell id="uLg59qGG4U38qY8t5iAr-11" style="rounded=0;orthogonalLoop=1;jettySize=auto;html=1;exitX=0.5;exitY=0;exitDx=0;exitDy=0;entryX=0.5;entryY=1;entryDx=0;entryDy=0;endArrow=none;endFill=0;fontFamily=Google Sans;fontSource=https%3A%2F%2Ffonts.googleapis.com%2Fcss%3Ffamily%3DGoogle%2BSans;strokeColor=#98A2AE;" parent="1" source="uLg59qGG4U38qY8t5iAr-60" target="uLg59qGG4U38qY8t5iAr-61" edge="1">
          <mxGeometry relative="1" as="geometry">
            <mxPoint x="401" y="230" as="sourcePoint" />
            <mxPoint x="361" y="190" as="targetPoint" />
          </mxGeometry>
        </mxCell>
        <mxCell id="uLg59qGG4U38qY8t5iAr-12" style="orthogonalLoop=1;jettySize=auto;html=1;exitX=0.5;exitY=0;exitDx=0;exitDy=0;entryX=0.5;entryY=1;entryDx=0;entryDy=0;endArrow=none;endFill=0;jumpStyle=none;jumpSize=7;endSize=6;strokeWidth=1;rounded=0;shadow=0;fontFamily=Google Sans;fontSource=https%3A%2F%2Ffonts.googleapis.com%2Fcss%3Ffamily%3DGoogle%2BSans;strokeColor=#98A2AE;" parent="1" source="uLg59qGG4U38qY8t5iAr-60" target="uLg59qGG4U38qY8t5iAr-57" edge="1">
          <mxGeometry relative="1" as="geometry">
            <mxPoint x="471" y="230" as="sourcePoint" />
            <mxPoint x="351" y="190" as="targetPoint" />
          </mxGeometry>
        </mxCell>
        <mxCell id="uLg59qGG4U38qY8t5iAr-13" style="rounded=0;orthogonalLoop=1;jettySize=auto;html=1;exitX=0.5;exitY=0;exitDx=0;exitDy=0;entryX=0.5;entryY=1;entryDx=0;entryDy=0;endArrow=none;endFill=0;fontFamily=Google Sans;fontSource=https%3A%2F%2Ffonts.googleapis.com%2Fcss%3Ffamily%3DGoogle%2BSans;strokeColor=#98A2AE;" parent="1" source="uLg59qGG4U38qY8t5iAr-59" target="uLg59qGG4U38qY8t5iAr-57" edge="1">
          <mxGeometry relative="1" as="geometry">
            <mxPoint x="411" y="230" as="sourcePoint" />
            <mxPoint x="371" y="190" as="targetPoint" />
          </mxGeometry>
        </mxCell>
        <mxCell id="uLg59qGG4U38qY8t5iAr-14" style="edgeStyle=none;rounded=0;orthogonalLoop=1;jettySize=auto;html=1;exitX=0.5;exitY=0;exitDx=0;exitDy=0;entryX=0.5;entryY=1;entryDx=0;entryDy=0;endArrow=none;endFill=0;fontFamily=Google Sans;fontSource=https%3A%2F%2Ffonts.googleapis.com%2Fcss%3Ffamily%3DGoogle%2BSans;strokeColor=#98A2AE;" parent="1" source="uLg59qGG4U38qY8t5iAr-62" target="uLg59qGG4U38qY8t5iAr-61" edge="1">
          <mxGeometry relative="1" as="geometry" />
        </mxCell>
        <mxCell id="uLg59qGG4U38qY8t5iAr-15" style="edgeStyle=none;rounded=0;orthogonalLoop=1;jettySize=auto;html=1;exitX=0.5;exitY=0;exitDx=0;exitDy=0;entryX=0.5;entryY=1;entryDx=0;entryDy=0;endArrow=none;endFill=0;fontFamily=Google Sans;fontSource=https%3A%2F%2Ffonts.googleapis.com%2Fcss%3Ffamily%3DGoogle%2BSans;strokeColor=#98A2AE;" parent="1" source="uLg59qGG4U38qY8t5iAr-62" target="uLg59qGG4U38qY8t5iAr-57" edge="1">
          <mxGeometry relative="1" as="geometry" />
        </mxCell>
        <mxCell id="uLg59qGG4U38qY8t5iAr-30" value="k8s cluster" style="text;strokeColor=none;align=center;fillColor=none;html=1;verticalAlign=middle;whiteSpace=wrap;rounded=0;fontFamily=Google Sans;fontSource=https%3A%2F%2Ffonts.googleapis.com%2Fcss%3Ffamily%3DGoogle%2BSans;fontColor=#FFFFFF;" parent="1" vertex="1">
          <mxGeometry x="521" y="337" width="61" height="10" as="geometry" />
        </mxCell>
        <mxCell id="uLg59qGG4U38qY8t5iAr-31" value="192.168.1.0/24" style="text;strokeColor=none;align=center;fillColor=none;html=1;verticalAlign=middle;whiteSpace=wrap;rounded=0;fontFamily=Google Sans;fontSource=https%3A%2F%2Ffonts.googleapis.com%2Fcss%3Ffamily%3DGoogle%2BSans;fontColor=#FFFFFF;fontSize=8;" parent="1" vertex="1">
          <mxGeometry x="505.97" y="347" width="100" height="10" as="geometry" />
        </mxCell>
        <mxCell id="uLg59qGG4U38qY8t5iAr-32" value="clients" style="text;strokeColor=none;align=center;fillColor=none;html=1;verticalAlign=middle;whiteSpace=wrap;rounded=0;fontFamily=Google Sans;fontColor=#FFFFFF;fontSource=https%3A%2F%2Ffonts.googleapis.com%2Fcss%3Ffamily%3DGoogle%2BSans;" parent="1" vertex="1">
          <mxGeometry x="533" y="397" width="58.93" height="30" as="geometry" />
        </mxCell>
        <mxCell id="uLg59qGG4U38qY8t5iAr-33" value="192.168.2.0/24" style="text;strokeColor=none;align=center;fillColor=none;html=1;verticalAlign=middle;whiteSpace=wrap;rounded=0;fontSize=8;fontFamily=Google Sans;fontColor=#FFFFFF;fontSource=https%3A%2F%2Ffonts.googleapis.com%2Fcss%3Ffamily%3DGoogle%2BSans;" parent="1" vertex="1">
          <mxGeometry x="521" y="415" width="69.93" height="16" as="geometry" />
        </mxCell>
        <mxCell id="uLg59qGG4U38qY8t5iAr-35" value="" style="endArrow=classic;startArrow=classic;html=1;rounded=0;strokeColor=#00C9FF;fontFamily=Google Sans;fontSource=https%3A%2F%2Ffonts.googleapis.com%2Fcss%3Ffamily%3DGoogle%2BSans;" parent="1" edge="1">
          <mxGeometry width="50" height="50" relative="1" as="geometry">
            <mxPoint x="502" y="180" as="sourcePoint" />
            <mxPoint x="542" y="180" as="targetPoint" />
          </mxGeometry>
        </mxCell>
        <mxCell id="uLg59qGG4U38qY8t5iAr-36" value="&lt;font data-font-src=&quot;https://fonts.googleapis.com/css?family=Google+Sans&quot; color=&quot;#ffffff&quot; style=&quot;font-size: 9px;&quot;&gt;BGP session&lt;/font&gt;" style="text;strokeColor=none;align=center;fillColor=none;html=1;verticalAlign=middle;whiteSpace=wrap;rounded=0;fontFamily=Google Sans;fontSource=https%3A%2F%2Ffonts.googleapis.com%2Fcss%3Ffamily%3DGoogle%2BSans;" parent="1" vertex="1">
          <mxGeometry x="538.5" y="163" width="69" height="30" as="geometry" />
        </mxCell>
        <mxCell id="uLg59qGG4U38qY8t5iAr-39" value="VIP&lt;br&gt;1.1.1.100" style="text;strokeColor=none;align=left;fillColor=none;html=1;verticalAlign=middle;whiteSpace=wrap;rounded=0;fontFamily=Google Sans;fontSource=https%3A%2F%2Ffonts.googleapis.com%2Fcss%3Ffamily%3DGoogle%2BSans;fontSize=7;fontColor=#FFFFFF;" parent="1" vertex="1">
          <mxGeometry x="326.8" y="262" width="17" height="13" as="geometry" />
        </mxCell>
        <mxCell id="uLg59qGG4U38qY8t5iAr-44" value="client1" style="text;strokeColor=none;align=center;fillColor=none;html=1;verticalAlign=middle;whiteSpace=wrap;rounded=0;rotation=0;fontFamily=Google Sans;fontSource=https%3A%2F%2Ffonts.googleapis.com%2Fcss%3Ffamily%3DGoogle%2BSans;fontColor=#FFFFFF;fontSize=9;" parent="1" vertex="1">
          <mxGeometry x="251.7" y="407.33" width="36" height="4" as="geometry" />
        </mxCell>
        <mxCell id="uLg59qGG4U38qY8t5iAr-49" value="" style="shape=image;verticalLabelPosition=bottom;verticalAlign=top;imageAspect=0;aspect=fixed;image=data:image/png,iVBORw0KGgoAAAANSUhEUgAAAZAAAAGECAYAAAAY+HZBAAAACXBIWXMAAAsTAAALEwEAmpwYAAAgAElEQVR4nOydd5gd1Znm3+87p+qmbgmhhITIGYGE1CQDtlqOGOMA9m0PQQSbEVHGHs/sPLvjXS6zuzO7nh0DFhlssrG7DTbGOIDtbmObqJaEQOQgUEJZ3X1j1Tnn2z/qXnXTEkLoCnWq3/Po4REqXdWtrjpvnS+8HyEmZtgjlM2CkQXaWsjW/u/B5/xm1JhRU8c5UvvB846A8g+Cc/sCbiJERkOQBESByEBQBNMmkHqXgGVizauwlZcrUllVVq+ufX3+aZXa5zbn2nUHmh1y5Abm+8bE7B5ooE8gJuYjIyecPRLUVzSOuvLNiX7ozSA/eRwr/zhxdqqzwf6sk0ykIBBALCACEQEgAAhEBBADxCAA4izEBmVS3htE/Jy1pScR2AVr17/z3Iq2k0oAkMsJL10KamuDA0gG6CrExHxkxAISM/zoLxwiNP3Klc0sfLr2Mic5sdNYJdMAILYS/XJOhESqegGAIqGo/laiz4k+nwASIlKaSCVAygOcAUTWiNhOZ8qPaeGHnrl+r7eqZ0TZVuG2llhIYoYXsYDEDB9yws3o4I7cbAMA0/7x3YwK8EUCnU/aP4HJGwMIbFgWiLEQB2zZXqD2a8cQiBCEqtsUYgWwp1knINZAnHlDnHkYTHcsvG7iktpfa86J7sjBxkISMxyIBSRm6JMTbga4I0eRcMx5boIeu/dpJHIJsT6WWCtnShCxBiIQCBOId+k5SBT0IiJHUATtKWYPLixtAvHPQlO6c8kN+zwLwEGEmq+GioUkZqgTC0jM0CUnnF0KamuLQlUzLn9xP6XHfZFYXwDSTSDABnkAMJFogHfLLR8FwpxAiHWC2UvDBYUeIm6zYekni26Y8idU9zDZFnBbKxwoFpKYoUcsIDFDjKiiqu+i23Tlqn3h5ALy0l8j0kcDAhcUrIhDNes9UPd5tCsREVK+Un4jnCnlIXjEmsJdi67f57e1A7OtotpehMSVWzFDiVhAYoYIVeHoU9E087LlB5NS55NKtJDyDhURiCkZcYZAzBhE97dAHAGO2NPsNUBsJe9c8CcYua2y9vFHl7a1BEA1RwLEJcAxQ4JB84DFxGwboWwruO/b+cxL35xGyVFni7PnKZ2aJM5CTNlKVCalMIjv60hIyBEpzV4azpkKXPg4iG/ctHJZ+5ttx3YBsZDEDA0G7YMWM9LZOlR1zGXLTlKJhq/DyVnsZcY7U4bYsoNAQNhFOw4BQFEWoz8UndcuemwcAAdirfwGOFMBCH8SE9xDle5fd9562HoAyGZFTZ0KycVCEjMIiQUkZnCRy3EzZm0pxQWAGZev+gRr/0Ji9UXWybE2LEJM2UYNGfUIh0QJbyIX/abaAAJhgAhEWw6L1nty1WaQWntI7did/baIuhXFgTUpv5HFBgDwhDPF+xPa/eTJa/bZCNSaEtuora3Fbv8DY2J2H7GAxAwOcjluxlVbSnEBcNO3Vs8SqLlK68+BE2OcKUFsGIo4RVRHGa6IgMhGAkGK2SNSHkAK1d4QK1GruYu0QoGIFIhVrRVdnIGYCgTOQAQQqLqS9QIBiSXSxF5aiQshziwWmLsrYeX+pTce8G50mWrd7RQLScyAEwtIzMDSTzgmz304PSlz/ClwfCmIP8vKTztTgjhjRITrFw5YkGbWKSZWELEVOLvWmfJKEF4j8DIhXilw60mooBQbsc4HaJQomShW9iNxh0L5B7PyJoO4UZyDM0UHsQ5CdQpJ7RwVs04xIBBTeRXMtwWVTQ8+f9OhbwJRaAtoQ7wjiRlIYgGJGRj69XAcfM5roxrHpk9jlT6HnPs8eUnlgjzEWStRMKmexr8o3wBWKtFIzpTArDutKT0lYp9RpBdulp7XXp9/SOUDP6nKCfNWTKk418SsTmYv3SzOHcc6ARsUIiGJzrcOsUO0SxJR7KWJlIYLS28Q4V5bKrYuumW/FwH0uY6xTUrM7icWkJjdSjbbqoAsasJx2DdebkynG1vYy5wNsZ9knYSt9AjgLOpchAVwtCVR3QgbFoWYf0umfG9QKv5lye2HrOj3NyiXAy1dCkJ2Gx/YBrRN3bpXo2nusknO059Wfupsce5z7KXJBj2AOCMA1yl+AoEDAPbSirQPmMoyZ4Ofh6jcteSH+75QO7A51647cs1xd3vMbiMWkJjdQn/haJr7yjiXbPwakbqA2DuO2WcXFq1IKFE+gXb63txSKstas5eG2KAs1vwBYm/OF954/JUfn9IDRM17617soPFLm6Vt6tWC3FWyY4uvEHKgZnQwANQS/od94+XGTOMeswh8CbH+FCk/6cIixFkjcPXbp4hYEDvWSY+UB7HBCtjwIVFyS+c1ez1fOyz224rZXcQCEvORsrVwLN2XUuO/JJC5xN7RIAUXlqIdh4gCMWGbNbQfjIg4InKkfM06DXHBRmcq7Uy4pbTqz3/+yJr1+nlxTc22+sm9ZjUL01yl/NnE/p7WFCE2qD+PA9SEBKR8xSoBZyvrIfJzZ4MfLbp+8iIANvLb6lAdVzXb2CYl5qMiFpCYjwLKZoX79i9Mv/yNQ5XKZIn1OawSR4g4uKAQJYxFdtGOw6/uOCrrRcwvXVi6Z9EN+z5eOy6yC7lakMt9ND0VuRxnj7zqPfNHZlz+zidYp84l1l8hnRjvwlJUghx93fpKkBH9O6Q8pbwMXFjsEVYPuFL3fYtu2u+PiP22Yj5iYgGJ2YUINec6VN84fNMVbx0OTp0PlfgaK/9gcQYuKFrAAdGb+M7dg71JZmKdUKRTsKawlojvR9B9f+cNBzwNoDfJvDsX0G0s2tMvWX68l0yfJXBnsc5MFFOCM5VodyBSV+WWAC7y2/JqflsFEH4tYfGezvm3/xaIBLO5uV13NMeTEmN2HbGAxOwChJpzUH16OHDc5aunWq0uIlJnskrsK87A2XIIZxlEqo5/CwAZAhPphCLlw5nSakDugynf3Xn9Ps8DUZnruqkdNKAhnGoYafzSZqmF8I77zuqpDt4cOJnDOjVZXAgxFStwUm8vSX+/LWcreXHBX5TjmzI9+cc67jygDMQ2KTG7jlhAYnaerePsdOy8lcc4TnyDCC2sEhOcDSA2iIY3EVQdt5xAxBErIZ3SAEFc5U2Ia1OKf/zMD8a/+p5zGlTVSNuwZbl4+SHsexeQUi3EiYMBQMKiFTGo1whyK78tG4YQ0+Egt5hgzZ+ev2naJiAWkpj6iQUk5sOzrRDNZStm62TD2XD2a0qn9rBhEeKCWi6gvlAVxIGI2GuIBpI787wNi20QvnvRDZPffs85Dep+iK0dhafN2zCFXWWO9pNZkJpBRNVeEie7wIq+6rdFWnmNEFsBBI8bU7zHB/3imRumbABiv62YnScWkJgdp1/zH0RoxmUrTlWJ9BwQnc461WiDPMQGVojqa/6r2Y1AtPIbARE4G3aKC+6lSunBzlsPeqd2TjkAuRzVPKqGApTLCeUA1N7+p1/yyt7KH/UVYm8OsT6BSMEGPQBgUG9TYjQFUcCKlN/A4gxE7FMuLP8EBf7pojsmrQOw9c83JuYDiAUk5oPpV6a6/wXtyT1HH/FpAi4hTnyClN/owgLEhUYEu8BuhCyINXsZwFkRFywE0c3lYO2vl9449V0gCr80A26ovzXncsIdfa7tjAtfG49Roz7PoEuZ/eOgtLJBftc0JUa7uchvy08rcQbizBKBvbMSlrb4bUU2KUAsJDEfRCwgMe9PP+E4+tIlY7zE5NkEdzFINzN7vguLELGm7jnjvT5VSvkNJC4MYMOnnJM7nCr8cvG1B2wGolLcqS8Ow3BLTrgZHdy3KbFx1B6nO6hvMOuTif2UC/MQZwyi67yT15p6rzVIsU4RiCA2eBmEH4X5wgNLbt//LSAS6fFLIbGQxLwfsYDEbEV/x9emua+Ms17jV7SXPBeQWaQSsGH0VoxdEV6p2o1ovxHWVgIC/d6FxfsmUvGXv636U2WzorZlIzLs6B9Gyopqmrj8i+RlzoXg86STaRcUIC7cBWFCbOnDYS9DpDTEBG+SyF023NC28MZDX9pyTkeC2loGc34pZiCIBSRmC/0X6RnzVo9nyFlQibOJ1QnEGjbIOzgr1ca/nVy8qk1wIiDWiv0GuLBYIaV+Ka5yT5dd9IfX559WQbUhcUQIR39qTYnZWqFCq2q67MRPIZE5G06+qrx0gw0LEBtGQkNSd4UbQGAvpUglIC54S0zlAQkL9yy86cAltQNjv62YvsQCErNVFU7T3GWTkEqdDajzidXRxBouKFoRI0DdduUWzELsadYpOFPOi7hHmMzNUvzV3zpvvTgEaiWmV7uPrGt8qCBCzVdDbfG2ymbVcZOuPUEocZEQzmSdGh1NZgwNxFJ9pdIkEOdALKyTOvLbMivElB6Gppve67cVC0lMLCAjmv7J0uMufftASWS+JiLfIOUdBqDqUyW21+CwHp8qtqwSHukEnA3WORP8VgluXXD9xCdQ/eCmuQu8zluaTGy70Z9al3/vpMaZ31rXBAn/npT/JdapSWIDOFM2URtIPc2a6CP0vq75bYm4B8RU7lq09Nxn0dFhBmfPTczuJBaQEUe1F6FPWGjaJa8f5aXGZiHuPNbJ/cUFcEGxahVSV3d01YpctoRGnK2sdK7yKx3ijmdvnPRs7cBsq6g4xr4j1HpJehPbx37rnaOseBewSn6FtXdQr12M1GcX089vi3UGzhQKAD1ggu77zphw9x9y1R1iNisq9tsaecQCMlIQoWwbuK/RX9Plq2aK1nOYvTNZJ/d1pgwXlqox9Xqb/+CEQEonmVQCzhSXw8m9Jii2PXfz/osARHH+pVfFw5B2ikhI3hN6vOKtw0VlziTweewlD6sKyS4yrOzvt1UswNnfWRvePXrcq7+p7Ywiw8oRmLMaocQCMuzZKvRBTd9eNwPOXkoq8QVS/iSxlWroQ+oLfVSreghM5CUVkYIzxXeI+A4p5n/aeesBLwN9Q2excOwKtvh+VX/Gx1zy0v4qOeFMiFzEyjsCUXd7NRS5S5yPLbH22MvA2XJJTPA4C93orXnzsSfbTioB1RwJYuPG4U4sIMOW9xocTs22+v7kU04k6AvB6stKJcb0Jl/rjplHDWrQxH5KiQjg7AvOlX8qFvfW7Eb6zwaJ2bX0z2lNu+T1CdrLtJDy5hDrY4k12yAvcM4A0PUbN7IFsae8NMSUrRO0A3JbuP6Vx57/ycdjv60RQCwgw40tYaFoEZmaXeonJjR8lv3Gc8SZM9hvSESzxk11Ea+j/HOLTxX3WmSAnnZBvtXXwX1PX3fgmug4IbSA0UYOQ8RuRESIhmo8P9uqMDW7JYx08n9Z11gpBi3w0meJuNmsk2wrPQIxLhrgVW8fDzkAWvmNEBcAgsedq9xJ5ZUPd9567HpgBPXxjDBiARku9GtAO3jea4lRLvVl0ok5IPoMe+mEq+RFXOjq6+HoM2scpJXfAHEhROQvAvtjU+7+zZKbD14LDM1FQ0QYgBARWkW4hYaO6G3FlgbA2vz5vzY2Zg76HOnE+U7caaxTHM1uFyPi6pyUSJEBJDMpv5HFGgB4Ukzxp6j0/KTz1sPWb+ucYoY2sYAMdfqPU71saUOCx36BCJdAJ05i5fvVHYcRorq8lGphCyL22E9HthrWPAFRN5nut3+3+M4Zm4GhGbbI5XI8a9Ysnj17S66IAbiqoIBo6HyXrcgJN63qVJ23HhsCQNPcBWmk95tNwMUQ+gzpVNKZIsTZUMSq+rzMquFMVsReRolYwNnFTsK7xfXcu2j+IeuA2G9ruBALyFCln3DMuHDheDVq388L7FyAT2KdIBsWAZFQIKo+4YAjYEviVGxYFBf8xcHctqmr8siyIT6oqF1Ez6boOv7uxRcnjZs46TKt9Ph8KT//lEmTlgKAiGgAdsiGtQAgl+NmXLXlnmmau8BzySmfYJFLoBOfZp3Yw4VliA1CEVenkNTclJnZSzIAiA1fJqI7KpWNP3/+pkPfBKKqLbTFQjJUiQVkqJFtVdk+iegZV7w8mXnsl4j5G2B9HBHvWhtwiCPWmr1GOFPMi+D3Yit3L1rzt0fQ1mKBoRmqAoBWid6CW4jsHe3tyalTjznL8/S3/GTiGFYK5UJxhXXm1p7uzbfNPiByqm0VUS0Y4v0O/fJkQDS7nZR/Piv/NFLJvZwpQmxgELkv1pkngwPA7KeJ2IPY8lsQ3BWUNz2w5OaDX4jOqRaCjSvzhhKxgAwJas1/V0vN2mPavBVTPOI5pNNZIp4BAC4oWBGH+gYR9fGpUr5iLwMX9BTBqtXZwn2Lxu77p0gotm5IHCqICLcB1ELRAvq3Fe9+smGPUd+B4HRmRiGftxCRZCql/UQSYaWyMJ/vvv7kvSfdUf37BICJhvpbc/QzbG2Do+qifcxl7xyn/EwLxM5hv2GimHI0u10EAOoZcFX12wLYS9eaSpeJrTwkYu5YNH/Kc7UDs1lRsZAMDWIBGdRsvUgfd9nKfZzSF0Lrs5i9w0UEYspGXEgA1zfBrq99hU7ChcXNIvKgc+GPF4+77Unkcm4bY2yHDNWFX1E1XPXXlSsPS6cyVxKpOYlUsqHQ0+OstY6INAA4EcvMks40aGtC55z7dblc+cFJk8b/ufp5ClHCfUgJ6NYIZVvBaGtDW3VXOe2Sd47yEulziHAOqcQ+4izElK2IRd2TEkVs5LeV0KQScK6yCjZ8yDncsmj+xC1CEvttDX5iARmcbOVCO/3yt6d6XuYsAc4h5e+P2gMNkXp9qmrCwSqpSfmADVY6F/yKnLltwfy9F6P6wUP5ge6b53j4lVfG7T1h0vnO2u+mMplJpWIRxhhDIgpM1PcySvTmbVgplc5kyIRhj7X27nz3phtm7b//S9Vjhn5+BAAg1NzcoTqaexsAT/z26v2NwwWiEi3M+ggI4MKiFdjIWLOeNaSf35Y1xU1E9IA1wZ2HrPn2U21tbRYY2vfdcCcWkEFFzZ7iaql5DE2b++oJXnpsC8Sdw35mopgyrCk7imLLuyCkULPw9uBs+Jq44JcslbsX/HDfF7YcmRWFIRpSaG1tjfIcLS22tbXVP6j5U19RicR3vUTi+KBcQaVSthQ9B9vNFUmkJE5rrTKjRqGUL6xwgus2rFh79+emH7xWRKgN4CGfHwGwZefbd+b9Jcv3Vp4+W3nJrICOAym4IB+V7hITIDtv7S9kBUKsfGYvAxf2lEBeG4L8fY0vvvGnjo4+NinZ4XB9hw+xgAwGtuFTNXPeOx8HJy9k9k5jnZjowhKcKVtELhR1+FSJgNgCYPZSTKzhTOk1QO4IKxsfXHLT4a8AGPJJTRHhtjZQS/WaPr1q7ce9VPIfFavTlae5kM8bESECPmwHvhPAJZNJ7fk+rDVPFwqF+b9/8YWf5WbPNtWyXxr6+ZEq/fo2jrrozYl+Jv0lJu9CsPrYRzG7ndhTnGiEM6UCnHvUmuJdi9c+9euhXrQxHIkFZCDpV1bZ3JzT3Udf9jFhcylz8lRWiTFiSnA2CCHC9flU1coqSbGXJgAQG74IkjtcuK5t0Q1Hvg0M/TGmIkIdgKqFq57asGEKWfkvvp+Yk0im9ij0dIu11gLQdVhCwYlYxSzphgZtwtBZ535lgtL3T5g48UkAaG9v183NzW7o50eq9OslOfzyl8amvPGnsXNzofRJzD7bsADsgvHGW5eNV0rOhR0CvnlT1wuPLrtz9pAuGx9OxAIyEPQTjo9ln0gFUw76uDiaS8BprFMpZ8q7rrGLxII0Ky/D4kIIpBMmuBsV95POWydvsZoAhnY9fnt7u641Av5i0aI99tv/wDkAXZlIJg8ql0oIw9BARFE9ytEHEQGIDBHpTEMDyqVSXrG6fXN+8w2z99nndQC4ZcECb25Tkxn6+ZEq/Wa3T80ubUhOHv95gbuE2T+JVCLpwgLEmVCAOvuPxBHIEbGOjBvDEOL+AribUXrn0c5bj+0CYiEZSGIB2Z30sxuZNue5jBo9/lTlpebA2dPJS6moa9xaIaF63uLQO2ucldfAzpQAUh1iyz91qvKzxdcesHlb5zQU6VeWS8+u2XCm9v3veMnEySYMUS6VbPVGr2/I0nZOQADneZ5KNzSiVCy8DaYfrF3xzr2nTp26UQDqaG9Xs2fPthiqtij9yQnnAPROsVzgwZ/8BWh9DqBOZZ1qcGHVAQGoywEBW/lthQDwZyflO0157W+W3Dw9ss6JreR3O7GA7A76Nf81zV2Qtt5eWZ3InAMnnySdVLbSLYC1iESj7rc2gLXyG+BMGUT0qJjKXZoKv356/iHdwPCII/fPczz57rsn+F7yH5T2ztC+5xXzeeOsJap3Ot+OE+VHUimttUYYBE+GQXDdcePntxHlXE6ErxpO+RFg66bEnPAx6975lPIyZ0Nclr2GjKvNbo8Cp/XMbncQEbAi5TWwiAGBnrJh4WdUwb213TRywlgKwhB+KRoqxALyEZLNtqp1U8dvmdPQNPeN0ZTIfBXKuxDEHyPlKRvkBbKrhIMtsfLYS8OZSihi/wAxtxXy3X945ceH9wDDY7vfP8/xxPr1e3vgb/mJ5AWe508o5HvEGGOpzjzHzlLtH0GmoVGZMDBhEDzie4l/nb5HZmH1/IdJ/0hforkzzfizy+VyDtmsOmbStSco8i8gUmeSTowVU4azgUVU/FevC7Ql1sReWolYiAufg3N3g0v3d167/2pgeIRlBzuxgHwE9BeOGVe8PJm9sV8SJ3OZvGNIKbJBUQC3iwb8wJHytdJpOBd2ubD8Z0V80yZZ0P76/NMqwPAZ8CMi6mpAckSudcGC0Qfsd+DXted92/cTR1TKJRhjwmiBJh7gaJEIYJlZZxoaEFQqG521PypXijecPDmaj9IuopuHRf9IX947hwYAZsxbMZ3Jm0vK/yIpbx+xpjrAzO6SAWZCxEqlGASIDV4D48fl7u6fL/3Rwa8DsZB8lMQCsuugbDaqha/dqDO/+frBlGn8Cil9HrF/tIjAhQUBYCGuLuGIPkNA2q/Oqi5vAMzDzob3LZq/9x9qB0Whql4LlKGKiHBHR8cWt9y/rnz3Sw2ZhiuVpz/pnEOpWPxo8xw7jwPgtOfpdCaDcqn0hhU3f/myN+86Y8aMzcPHFqU/UXd739L0GfNWH0mgc1gnvkbsHSrOwJliZJNSz+z2vn5bXopI+RBbfkvE3CuVws8X3nTgEgDI5YSXDuHS9MFILCB1U2266nNTHnPx8kPIowuVlz6TlH+YOAcXFqpb9zoelOhRcQCqwpGGM8WNRPwTU+m+f/GN+z8RHSWUbXlvI9hQJSfCs/oIx19WrJne2JC5UgjnJBIJv6e724pzIEBhAMJVHwIngEul01ophaBc/ltQLl9z4uSJDwBRWK4N4JbhKCT9ZrfPvOz1g8kb9TWAz2edOFzEVme3U70vVluej6g5NgGxleXOFB8SyO3v8dtqFdXWEgtJvQzqJ25wU5s13muxMPPbq46Ak28QJ7KsEvuJWDhTMnCO6hYOwAJErJOKlA8x5dUQ91NDlbsXXztlMYAoWZ/NYjg8GP19qx5ftmxSQ+OYS6B4bjKV2qvQ0w1jrGGq005jN+Ocs0pryUT9I2UThr8KK+H3T5w8vhOISpH/3NzscsMqPxIRzW4H9drJv7Evko1ngHARqcRRAMGFRQHEQJyua4cuYkHKsfY9Ugm4sPQuJPwlWN/Wee34hbXDmnOiO3KIbVJ2kiHz4A0eqsKBP7taWKjp8lUz4fnnwdlz2EuNc84AJjAilupKFkYpDgfWwjqliRgi9g1nKw9qE97+zA1TXo2OqhocDhO/oFYR9eLV0RvrLQ8/nD7+5E+cYZz9l1Q6c0RQqSAIAkMCBtVVGjowENXKfq1i1umGBgRBsN6G5rZKd/GWkw/szY/MBoacYeWOkM22VnMSUWf5jHmrx5NCC4QvZPaPIeUrG+QdnHEA6gv1bvHb8jSrBJypbAbkAUfuR4uunfgMANubt4mF5MMSC8iOso2w0Ix5y2cpnfk7ce7rykuPsaYEZyqOAKkubnXEdMWBOLK+JoKIeUHCShsbvvfZmya+WTt0OFlf989zPLlm/aeTCf87rPRpRIRSPl+79oMtz7GzOAGc5/s6nU6jUiq9HAbhDeu6Ntx92iGHdOdE+Mg+tvPDjVwuyhnWQlsnzNswKpTyV6ETZxPwSdapaHY7nEVdNim1EQUAKU8pLwNrigUCPyA2f1/nu0/9MbJJqeZtYr+tHSYWkA+iX+ctABxz+crPKJ24gFh9gXVytA3zEBNYgACqZ/hO1W5ERLPfAALBuXCJc+YuFAoPLPrRgW8DfatKhodw9M9zPLlq1RGJVMN3mdVZfjKRznd1OeecMBHLcLxnRZwQuXQ6rYkZzrr2fE/3dSfvvddD0R8Lt7W1UUtLy7AUkv7NrFOz7Q3JiYd8nnRyjoicxl5a2SC/C21SxBF7mv0GiCkXAfqtDYt3L7p+8sO152m4VC1+1Ay/h3FX0W9kbHNzu+6eNvXTgMxl5X+KlD/KhUWIDUMhUXV1jUcGhwZEnvIyEDEQW1lMUDdbu+HhRdcfvgqo+VS1SW3rPxzoa7P+l7ffHpNINV6iPX1ZMp2eUuzpgbU2BKAxAu5V55zVWku6oUGHQVC21rZZU/nB8RMmLAaia/VnYFjmRwBs9cxNm/P7jN7zmFMgdDEr77Ok/IwLi9XudlenkFTL30lHQmKDojjTIeJuH9X94m87Yr+tHWLYP5Qfmn438cHnPDVq1J4HzQLjUmY1m9hLOlOq3sT1vQ1FwgEL0kr5GRJrQrGVhYDcXi5seHDpj6ZuBKphKrQBw0g4WkVUttpMl2tt9b/4qc+eAcI/+4nkDGMMgnLFQByjHh+woYmIiFVa6XSmAaVicSNAN2zYtO62zx188HJgeOdHAGzlFQfkdNO3Lv64QM1l7X+a2BvnTBliK0ZEuB6vuKpx4xa/LXFhKM7+FZCbyvnX/7j0RydtBGIheT9iAanRbxt9/Hkvjc4kNakAACAASURBVHWj9/gCVPJcgf0M6yRskAecs9UZHHXftCCllN9AzpRDAf4AU/yJ6fJ+seSevQpAFCPOARhON21/O48nl69uTjY0XMmKv8xKUTGfdwLITtisDzeciIifSKhkOo1ysfQinPnPRS8tbfvmKaf09B/LOyzZxpiDYy5bdpLyMucS8xmkUntFI3dL1fBxHXnHbfhtkeBxayv3BqV1v3rh9qPXANHLXN+S5JHOiBeQbLZVTZ2a3XJDfOw7y/esBHwW+6mzADqZlIeoIsRKtRqkfp8qUjWfqoCAX4dh8d6ugvntsjsPKEfnNPR9qvrTv2HuieXLD/aSme96nn9WIpUcne/udsZa4frKnYcdAlgAks5kojG71v6xXAx+cOKkPX8DbD3ffVhSE5I+RokzL329iZNjvi4iZ7NO7S2mAmvL0fMlonZ60Fq1u71mQipiAWeetWHhp9YG9y65+eC1QN+mxGF83XeAEfug9n+TOO6yt/ayKvV3xOo8Yj2DWEejO8UIhHb+hgS21KRH8w1SEBvkxYW/deJuWbf68SdWtLWUgNo2+Wo31LvG+9PeLnr27Op8jtc2jFJ74Jt+InW5l/APKhUKCMMgJEF9df/DHBExzMyZxlFcqZTLNghbDbv/87Fx414ChqstSn+ikbvjxzdvmVcz87JlR5DXcDYg57NO7SPOQEwlGrkrqFNIxBJpsJfS4hzEBS+I2HusMvc9d80+K4FYSEbcAxvVoPc64x596asH+t7oMwH396RThwIEZ0oOYl3vrPGdQ0QcETlSCc06CbHhOpHwUSG5ZeE1E55A9HYZCcdVwy+m3doqKpsFiMjecsst3vQvfu1LiZT/HaX1yc5ZVMrlumPYIwoRAbNhZi+dyaBULK1hxg0bN2249dMHHrgGGAH5EQBb3B/6WPRMu+LdAzTTeUR8Fin/MALD2aIRZ1DXC2BtRwJm9pJcXR/eJNK3Sbj55wtvHNl+WyNEQGo3XO8WePrlb0/VOt0C4Bz2UgeJNdUuWDhAuC47hch2umqnkISz5dVw5hcwlbs7b9jn6dqBw3XGc/88xxMrV56UaRg9zzr3d34igWJPj3NRTGuw248MVhyInOf7OplKoVwqPS/WXPPGKy/9tOWkk0rD0jZ+m2xtI9T07WWTrPHO0TrZAlLHEasoBC1OAOK6hKS6NrCXJlI+nCktI+A+V+lurfltDfVR0B+WYf701uxGens4Zl66fBp5/vmk/K+STuwnJoALi7UHrb4bjMgKhJVOMqkEnCmuJNB9QZj/2ZIb9o/sE2ozpoehcIgIdXR0qC39HG+t3j85OnMpa/VNP5kcm+/qivMcuxCphqxSmYwWaxGG4WNBJfjBSZMn/A4YAf0jfegfSjrqyjcn+i79JVLeHBB/nFnvqtnt7/HbYpWEc+Xl4sIHbVC4c/GNByyuHdjc3K47OoaHO8T7MUwf4q0tpY+ft2a6JVwC5X2RVWJvsQGcKYfVUtG6LaUJTKSTiljDmdJygO6CDe7rvH7yy8Dwa/7rT99+jodefrlx0pgJc/ykf6WfSBxaLpUQBEEIEb2rxsnG9CIiRinFmcZGDithvhJW2pwL//3ECRNeA6IcVHPzcM+PRORywh19yvCnfnPpnn5mwmeJcCkr/2PEynNBAbILmhKj3CY71onIb8uWV4s1D7PQzQvmT1hUO2w4+20Ns4e5uuO4qrkaA27Wx867f6ZofREJn0kqMdbZMsQZA1fnLAJUh9qQBumUBgRiKq8K5H7t5K5nrt/rLQB9JrYNT+GI7EfA1SS5enrDhk8z+L/5fuITIoJyqWQBIC7L/Yip5kcUs5fKZBAGwXITmhtNd+WOEw+c2JsficJaw+4+3Ip+/VxNc1elKU2nAeobYP8TxF6md3Z73Y3AFsRCyotynSbYKGJ/Ia5y+8Lnz12Ajg4z3PzqagwbAXlP6Wu2Vc0c/7HPcKLhbBFzJutM9WYJq1v5euxGtvhUkfIbWMRBxHZKWGgVyL2Lrt93VfXAreKzw4n+4aonVq6dkWrIXCnizkkkEjrf3S0S5YJUvOnYrTgRkUQqpfxEAkGpuLhULM1fsXnDvS1TpwYjouy3L7WQcW8vCR0zb8VpWqXmgOg01slGG+QhLjQCYoLwzq0NEvV3CQkpT7GXgTPFArH6hS11/WTR+mceRVuL7d9vNtQZ8k92FPtso5q9x8zLlp/KifRFAJ3GOpWyQQ/Ehlai2Ek91T6u+qvaaGQAZ5+wEtzD5c0Pdd56ZHWM5nv7SoYb/cfJPr5s2aTMqD2vUFpdlEimJuS7u8Raa6s7jiF/fw1VRMQRs0tnMtpaCwAPd3dvuu4TU6b8sfrnDADDa6zudtg6EkDTrlgx29OpsyCuhb3MqC2z24Fd0JQIR6y18hvhTKkEyG9cpXj7whv3+R0wfNaJIf2AR060kZI3XbH8aGH/n1gnvkLsNbqgIOJCK4RdYL4GB2Kt/AaINda54GkQ3Uhr3v595/3HrgeiOGcz4Ib6DbE92tvbdW3H8ZvXXkuMH73nuaz0PyTTqSODSgWVSiXOcwwiCBAnYpXWlGloUEEQdDljflIsBdedsvf4V4CR0j/Sl2p+tLdsnqZdvvx4rfxvEHGWvfQYsRU4G1TD3Ds/jqHXb8tT7GdIXNjjTOWX5IL/6Lx+n+eB965hQ5Eh+6BHiSkyH8s+kQr2OvDvofx/ZuVPduEuSpBFJXuOWGv2GiA2LIoL/ubE/TgwG3699Map+S3nMcw9cqpvq1vKQhds2jQb4P+qWX2GmFEulWxk6xXnOQYdRBDnBERWa61TmQwq5fJyEwY/3LRqxd2fmz59LfDeIoiRwdYVmjP+Yc10BO6bSntnkEpOEWfgbP0D4WoOFERKs5eBs8Eq2OD/+u++eduTbSeVamvZLvtqu5GhJyAi1Hx1VGE1Y97bRyqV+XdSiS85G0JMadeEqsQJ2FfKz0R2z4TfmqB8z+K1f/t1zdBwONqN9Kd/nuMvK9ZMT6cTlyvlneP5fjrf0y0izlWFeujdSyOP3vyI7yOoBM8EYXDdb9t/+PNcSy4QEdXW1oaRUPbbSy1X2bsLaLrircMdJ85XKnkGsXeYSG0kdX2z26MciQjplGLlQWzlV9YW/uui+fu9OFSbiYfWQ5/LMXAVkCM3c97KL7KXuZaVf6Apd1V/uDv7Btx34IxW7DXAmUIBoAcQFO/rvPGpPwIttteTp7cDdjiyDd+qPbVOftvPpL+RSCb3znd3w1pr4jzH0EQASwAyjY3KhAFA/MtKvvCDEyZP+AsAiIhC1Sl5YM90d7L17PZjLn7jEJVo+DKxPp+Uf5SIgwsKUWe6yM67VAgsiKCTo5WzwZsuLHx74fy9H0ZOGLgaQ2ltGToPf04YOQhA0nTFysvIS/wnSCddUIzmRex0A2CtBM+v2o2Uu0TsL8mEty1Ys/dTaOsz8nIIviF8WKqLhyMiuWXBAm/aPvu1JBLJ7yR8vykMQ1TK5RCRcMT2I0MYAokTZ5VSnBk1isvFYrez9q5Ksee6k/fd9w0AWLBggdfU1GRGTn4kIprd3kG18Na0i16bojNjvgJyc5kTRxEx2aAQTUrcWSGJOtsN+2kPYsoSVr7bef3eNwJCyIGGSmRjaAhITrh6QanpWyu+B079K8RBXBgC8HbqM6vCwTqpSflwtvyu2PBXotRti64Zv6B2WHOuXQ+32u1tkRPhWQDX4uDPrFs3Syn/u0qpL7BSXCoWrTgHqq93JmaQISJCzEYp5VVtUZazVv9v7dJ37j31pGgeTd/iiZFENtuq1k0dv0VIDr/8pbFptedXWanzAXUCKU/ZoCAQY+vwzQuJPQ/MgKn89875k/83AOmz5g1qBr+AROEUgEhmfmvt/1I6+S/WFBHV0UJ/2E/ra0NAyoMzwTJx5YdA6scLr5u4pHbgcJo1vj36h6seW7bsiLGjx14C4KJkKpXOd3eJiFjE4arhjhUAyWRSad9HWCk/Kdb957M//9mvLr744rBVRGHE5UeqVOfy1EJbTXNXpV3CfY1V+mxAPsU6qW3QIxBrEeUDP+zu3ICUVjoFa8r/e+EPJ3yv77q3S7/LLmaQLwi9Ca4Z81Z8T/uj/qcNitHW8cOIR9WnChBmnWJSHlxYegNwdxvT/cBzNxyyFMCIMkKrCQdAjgjyxNLleyYmNV6ktXexn0weWOjpgQlDU91xDPL7JGZXUA1rORCjobFBmTC01rmHg2Lp/31s74l/A4DW1laVzWZHWH6kSr8mwKa5C9LwJ38Wnn8eRL7IOq1dkIdEFsAfVkgMwEr5aTJB939fNH/K/xoKL7GDemGIwkezzYzLV8xhL3l3FHK0H27nEYWqiL00EwjWll8n8O1BUGh7/qb93gRGnhVz3yRpe3u7Th125JeT6cw/Kd87wRmDcqkUVmO7cZ5jZBKN1VVKNTQ2UrlS3hSWKndrlfr+zPGZVcBI7B/pQ7+Ru/tf0J7cs+HIWaxoLog/TyqZqrUTfMiZJIZIabCCC8vnLbphyj3VNXDQ2s8MWgHJtopqayE7fd7q47VOPEKQcc6UDcB6h65ltOswrJMesYLYcLG4yj1g7/7Oa8dXu8ZHlnDkcjk+/fTT1bHHHhsCwJPvrj/B8/R3Cfial0xSKZ93LhrQEec5RjwEQBwAq7XnJVNJBEHwmnPuhxs3rb/nMwcd1AWM3PwIAPT6W0Xfv7k5p7tnXPYxWHcZRaatGVfJWwdLO9aTRgCcYZXUQrTemMoXnps/6ZnaWvgRf5udYlAKSC4nnMuRm3HFusnK8x4iVsfaSrcB0Q7tPKqNO1CJ0exssMyFpVsCz9669Jp9Nkb/gDCWtlGtp2O407+f48/Llh0wes9xl4ixlyYymcZ8Vxecc5Zim/WYbRPlR1IppbWHMKz8tVIOrj1x4tgHAUirtKosRmhYC4hG7ra8t5fk2CtXfgaU/Cew/ozYAOLCHY+ciBiVGKXF2QU27P7youv3XVVbEz+qr7CzDMLFQihqyyBp+taq25W/xzdNZbMBRO/Q6YpYsFZRSW6lzZjS1c/dsN9SoLqreXF4N/+9F6F26fWt+uvL6xr9PfU3vIS+PJlKH1LM5xEGgWEilrgsN+YDEBFLzGhobFRBpWKstQ+WS+VrTpmy11PACM+PAOjfSzJtznMZb4+9LoH2/4XAY1xYMNVetR1Zd41K7KFd0H175w/3+nuIVANhgytkOOgEpNbWP3PeqjPJS90vpuyLiNuh7nIRSzqhiFXgwtLVVHn4PzpvvTgcCXYj/WkVUS8Ckqs+zAs2bvyCc/heIpE8EUQoF4uhOKficbIxHxJxItbTWmUaGqkSVtYF5cpdriLXnThl7ApghOdHAPSfRzTjW+9+Sin/emL/cBv0hBD5wL41iXqxmHQykLB01sL5kx8cjJYng0tAqrXPx1/+0ljrTXiElX+CDXp2rNdDxJJOKla6y4SFeYt+OPmebfndDHf6u+U+vWbNdK2S/6h8ldXKSxQLeSciDh++BDompi+OiKzS2kukUggqlZdtGF67YsXbPztjxozN/cvDRyLZbKsCsmhrIzvz26uOIMd3st94vK10h1FE5QPX31D5jZ5zwdMovHV6563Hrh9s/SGD6u2zGR0MANafcC6rxAk2zBvIDix0AksqoYi4S4LiRYt+OPmebFYUcqCRIh4iQu3t7ZqIZDaR+esbq/ZduLH73/xk5rF0Y+bcoBIkCvkeU32wY/GIqRcWEc+Eoc13d1ul1OHJdPrm/Q84+BdPrFpzBhEJEVkRUTXr+JFGW1uLbWuDa86JXnjt5JfCYs9XbaX7z8pv9IAd2EkItA3zhlXiBGQOOAfoXSMHC4NmB1KzNW6au3RfSk98DKQPdWHBftDUQIE4Ik3MnnG2fOHC+ZPvGwlGh32RaGhT5JQr4gWr3p2bbmi8LJFMHlkqFhEEgaH65kDHxGyXWn6ksXGUCoJKKMD9+c3dP/z4fpM7q38+Av21eqmFn6bNWzFFk35QeZnjdqgwSMSyl1EQ86oU13ym89ap7wwmC/hBs6C0TY1qcyk14aukEoe6sPiB4gGBEFiUlyGx5f+7cP7k+3I54ZEiHq2traq1tY94rNnwWd6cfyTT2Hg9K3VkT1dXGJTLjqIdx6D5WccMP4hIQYS7ujYbE4Y6kUye1zhm1CML1m/8t/bXVkwhIktETkS01LqsRxAdOTJNcxd4S+ZPWWHFXgyxy9hLa0QuD+8PkXJh0ZJKHEqpCV8FetfKwcDg+EFW43pHX/r2GN9PdZDyp7mgaD/YXZdClWj0nKn8Ptyw4qtL7pleGEzq/FHRP8/xxLvvHp30kley9s7Snk6XCgVnnXPV4U4DfLYxIwoCIHACON/3tZ9MopwvvKZI/dvCl5c88M1TTukZyfmRLUVCV777debk3c6W/WgkwnZe8EQs+xklNlgSBKXm52/ab9NgyYUMirfS7NJIyBJe5nRi7ygXFmsjJbeHJeV5YsM14ir/suSe6YXmXLsezuIhIlQNV8lsIvPHV17Ze8H6ru8l/fSjqYaGb4ZhkM739BhnLREQi0fM7id6N2YCdBgENt/V5bxk4hCV9O6YedQxP39m7YZTa/mR9vZ2PdLyIx052FxOeOF1e/1MXOlHymsAyQfsKIjYhUUQe0clvMzpQO+aOdAMgmSqVL2nACcmqzjJQOmDmm5EAFLKhwvyty2cP7mzZnuye85599PHZt0uEPHcuo3nJlKpeZ7nzaiUy+jatMkQEROgEQtHzOBAMbOUCgVLzNQ4avRniTBrUVf3z/I93T/4+JQpzwEjLT9CsnRpJJqh8//Nc5XZ7KUOd2FpexEXAmCItbamkgVwT7RmCg10X8iAq382C45mfCw/mr3kMWIrwAeF1gRO6RSLDV7RrK4HgI6l6wZNXHBXIiJcra6yRCR/W7v2E2pzzy883/8xM8/o6e42lXLZUpSMG/CfZ0xMX0SEqvkR6u7aHIZhmEgk0+elU42PPrNuw9ULe3rG1/Ij7SMkP9LWRjabbVVL5o9dAWfmEzOqL33bW8PI2QDsJY9pumL50QBJtHYOLAN+AshG/xHiWRBMcS50+KBtLQHEHgD8+OnrJq5BTni42ZKICLVHOQw3e/Zs0/7WW4cv2Lj5hgR7v/MSyS9UKhUUenqMOKfjGR0xQwAiwHPWuu7Nmw0xTUilM//Dha594aauOT9obU3VcnrVHcmwZurUbCQWpdIvxJrF7KUVov6sbSPCcMZCMEWIZwHYsnYOJAMsIEJtL1arr0ifSMqjyD33/WMwIuJIJ5Uz5RVh2PVLAMgeOTjigbuI9+Q5Hl7wyrjFXfnv7LHHuMcymYbLAKTy3V2Wole7OM8RM9RgAnQQBLZYKFjf96dq7d3d/NlTH3xqzYbPjpT+kVyOXHNOdOet+68WuPuIFUAseL9dCBGJOEfKIyJ9IgBEa+fA7tgG9gdUHd044/IX9yOdPCIa87H9C0KAY50EEf/muRvueR0QamvBsIidiojKRVt+m2vP6afXbTx7n0P2fsTz/R8Q85SuTZuMtdYR0c7PY46JGQQQoEiEi/m8LZfLNplMnZpMJh98du3Gu/727rtH1cJarSIqlxueQjJ+aSQWUulqF2dXsfK1iGwnjCUEZ0E6fcSMb764H3LkkBvYl+cBTaJnl4LaAAg1HkCQA5wNIBB+X5sYEQFrdmEJYgp/AnKuOXfVoPOH+bBU37SoVtb4zPqu4yD2f3i+/3nteaqQz0eVVTvoRhwTMxSQ6J5X4px0d20OtdKZhtGjzqtUKp98Zt2GW025eMNJRNFYXRE9O3o+hk2us60VDiTUrV9/YbQLFrFOTyZTcXifF3uBsLMVsPIOkFTjAQDerq2hA8WAKvu6qR0EAMzqUAGNgbOWZLtv1o5Vgll5r1mpvAD0qvhQpG+eg4jsk6tX79+5cfN/eJp/n25oOD2oVFQ+ynOoOM8RM4whAnnWGNe9ebMR56ak0pl/TTbu8Vjn+o3ntj7xRGo2kWltbeXW4ZQfoSgR/vr8QypiggUQATFHs4y2dbgQwVkroDHM6lCgdw0dKAbwjVaoGXAdAJHyp7PyYMK8bDc0QyTRHPPiqwVGFL5qhRuKGZBaWe5sIrPgjTdG0x7jLmTF85Kp1IHFQgGF7m6Darx4oM81Jma3EDlDc6VSsUGlQqmGhpnCfM8hR0z7+l/fXvnDU/bb+zFgmJb9sn4OkB4BNYLgsK1KVAIJrCjlQ8ROB0DNaHYdA1jOO3A7kBwolyM37ZLnxhPro8RZYPslfFIb6iUmWPr6/EMqyIIH+9D5/rRGyUHaUpa7evXX1JjxjyRSyWuY+cCuzZuNCYOaW+6wjP3GxGwPQjQzo9DTYyuVik2mk6c3jN7jwQUbu256/O23j+xji6JyudwQf0aiAJRD8IJz4QZm7313IAAAERJnQMxHTbvkufG5Ac6DDNjbbS12p2SPcWKCI4UY291+iAAgBbgyQM8DQPO6DurYTedbLzkRntXRwbVSxSfXrZvpsffPnu9/SWudLOTzxhpDzLxjg7NiYoY3xNX8SNemTaHneQ3pTMMlWnufX7B+4809G9bdTkTrgWp+BLBD7WUSANpasw4EHLL6yTff2OuUt9lv3B+2/L7fQ0DkbAUQd6SSPcYBWDuQeZCBD48kvSOI1TgXBkLbaaEWgrBSLM5stCRLAWD8+ObBf8OIUHuvb5X76xur9k2MTl7s+f7fe54/vpjPo+ScIUAxKxpGOcKYmF0BEZEXhqEz3V3OTyT2S6TS/87j9vrqgrUbvv/8I0senk1UbhVREEHLUPPXIhLkctyWa7FN31q7GKBZAKrrwDajWCQmFPL8cUh6RwB4cd26gcuDDNj2r601Kr1lSjaRSgJwbntTugjkmD24sLQyrd9+GQDapl49qFfbVhElAM0mMg/99eXGBes3XpoZ2/C7TOOo/2atG9/T022cczW33Fg8YmLeByJiOKcr5bIt5vPOSyaO1b7fOuOrx//kidXrZrUQ2RYiW+1mH1JhrezSqwgAHKRTxBgA6n1zGgQCnGOVBFOyCQA6mpsHLBc0MDsQEQKRHPz53yQA14TtlT73QiAFAj/35DUnlQChweBGuS36zIa2APD06nVfSDWkv02kPi0Q9GzebCDCcVluTMyHgKiWH5F8T4/VSlHDqFFnQNynF3cV7uzq3jh/FtFrwFAbqxsFoBRkkTOVHmJvjLhw21uQGiIAXNPBn/9N4vUcVWpr6u45314GRqmvji7M6H0OmwhnjxRbgWw/8C8AWMQ6KL0QqHloDS5ykmMR0S0tLZaI3OPL10zr3NB1h59KtyntfbpUKtpiPh8ZRcazyGNidhZiIuWspa7Nm0JjbKOfSMxraBj12LPrNv7Tr5e8PWY2kSEiaW+XQf+S1jb1RQGAktmwDCRvkPKjnrf3hSA2AJw9cswB0ycA2LKm7m4GZBGrWRHbZONRYG+8cwG2l/8AIESKxFaKYs2i3XSaHwZqF9E5yjkiMo++/PLkxZu6vpdOJ/6YTKcuMCZI9XR1GXGOieNdR0zMLoGICOSZMHQ93ZuNYrVfIpX6/qS9R/9+4abuLzU35/Ts2WREhFtbB3H/SO4qAYClN04tEXuLiD9wiWDnAoC98aH2jgYGzt59QASkNlFLkRxLrBMQ2A/YfwgpH4C8nShueLXvZww0ra1RWe5sInPLwwvSnRu7zh2/15Tf+KnM/2TmcT1dXdZF9iNRnmNQnHVMzPAhyo+ILpfLtlQoOD+ZPI6Zf3HNQ/9437NrNp5MRK6lZTDPHyHJZkUBsGLdAnEGUUHq++ZBIOIcsU4okmOBgVsPB+BtuDd34cTO1L02xtuREAEpH+Lsc0++0dYNAMgN7FLc2tqqkM1uqfp4as2az6SSDf8AwqmsFHq6NpuaVcNAnmdMzIigX35EKcUNo0e3EOGznRs33Zvvrvxg1v57vQW8Z7bOoHmdq1VSsSovFmPLRCopYrfdUBg5G1siZudkBgBEa+rubyjc7Wqcqza9HHXRmxOJ9KHiPrjqTggEcQBkITpyJpttff8qhY+Ymv1IS0uLbSGyC9ZsPuiZtRtu8/30L3XCP7VSqbhCT48BoKs3dExMzO6jlh9B96ZNoTV2j1S64YpRYzKPPrN2w5ULVq1K15p422Xw5EdqlVSBKa8i5b9GOvnBeZCoofCwoy56cyLQu7buTna7gCytja9Np45knRovLoTAbW8esBAU26AgYm01/zEwRvhV3yqZTWT+8NJLYxdt7v4n9lV7prHxImdNOt/dHcamhzExAw8REQFeGASup7vbMOjgZCp1LacaHn12ffeXs9msmk1kWkXUoPDXuiqKqGx8d90GEL9A7G034C1wLC4E6dT4RDp1JNC7tu5OdruAbDH/Ejkazo2DOEuy3S/uWCdASr/pTOlNYPfH+1pbW5WI8Gwic8stt3gL1m08e+ykvX+XSKa+z0T79HR3W2utg4j3/9l79zA7rqtO9LfW3lXn0S+p9bBlW44k27LULdmx5Mk4BBgJ5mN4DN8dZr42cwnhdcGBJE5MAt9kCMTHcxmGuRlIgBCSQEhCYgLuECCBxDgQdYwTO7Yl23pYfkit1rPfr9Onz6tq73X/2FXdbUV9+nW6LXXX7/uOZB+dU7VP1a699lq/tX6LEpn1BAmuGhARi7W6VCqZcqlk/VTqLZ6vvvj+T/zp57/Zc/F74voReb1l48nxIBc6v6dkquWjEAsn3TQLDSIgiDUQsxEie4HXR1hxhXfKQptOdLorIrjDCSNOziGgGBHoNjhWmOgfAeCsdW4FRhsRbnE9x5Pnew/ohux7Pa1/TCnFE/l8KCKUhKoSJLh6ES0vSkRkYnzceJ7HDc3N/1Vp/e+fGRz9fCUofZiIzgGvLz8y2N5F6ATIVk5Y41cB5UGsXLHA2jWYEmYPFnInAGw6MSgrzYOsrMXNgTo77zW73nlyA7zMTsh8VAcIAMGG5ROnVbE0AwAAIABJREFUHr4n39EhqnbG79IhInTo0JTMun2yt3fb0wMjH21Y1/ylhmzDj1erVRQmJkKIJDxHggTXDoiZVRiGND46GlhjNzY0NT7Q1Ljun57uH3rHoRMnGqf4kUOHVjwM7QwAYAjdrLweVh4BtZrlCSAWSjfe9qZ3XtjQ2XmvWWlhxRU1IHGuctZmtxHzNjFBbQVeEQEptmEJCKvHAGCwHYRl1PyIJ87BgxQ+ev5869MDo+9OZxr/uaGp8Z1BNVifHx8LTRgmPEeCBNcoYn6kWq2aiXw+BGRXKpv945YtW7/yZN/gjwMd6uDBg+FKy6LEBYWSH+uxttpDyket6nIRYTEBQLwtCCvbgZWvB1lRAxIt/hCm28SEW60NZu2+BTj7yspj1v45iJwClq+BlIjwIyLq4MGDIRHhyQu9925uXPeVbGP2D4j5lol83oRBYAnQCc+x+iHy3a8EqwsEKLFWl4pFUy4WJZVJH/A878vPjX/6z791rvffRNXs9pCIzq2EIcnlLDpEHf3cnZMSll50g5x9v0wAiQ2NtdWt0N6twPQau1JYyV30FP+hdHov6QxMZcyixk6eiCyxx2LDM5Vq4QwQEeh11C6+vJ3sExcu3NPYtO49InKv76e4UMgbEYmEuBK7sZoRGwoigBlTt1sEsHbaiCTTYPUg5kcASH5szGjP40wm8zMM/PDhkbE/K5QmP/7viM4DwKFDog8cWF59rakWFaKOitgqwLo2DxKK1o0gMXsB/FW0xi5rlGYmVs6AiKCTyNz61qeaobw97vfNUT8IAohhqsVXT3yqfQQdopCrFRNcyHCEugBFUX+OJy5dujntZe/XvvdzqXRqY3Fiwk6UyyERqTlkVhJc44gNg1LuJQIEAWDM9Pvac+0hrQXC0L2fzIpVBWJmZcJQxkdHAz+V2pzONvyGUuo/PzM49uGRS+WHD95Jk8BUf/ZwOQYRt6hgCk9AZJhYbbESWpp1oRTXf0ql99z61qeaOx++Jx8JKy7H8L4LK2dAnNiXZJpbN4q1eyBV4Mp21UFEiJnEBgCpowBwoB3U1bl06//IjHayX33qqebNt7XdCzHvzzRkbymXShgfK4UQUUSsE4n11Q1rIwOhgVJJ0Nsn6DlvcaFXkJ90n2nMAls2EW6+iXHjDYTmJoIxzpDwVSiMkWDxiMLTXqVSMZVKBZlsZpef4k9svBE/eWRo7Hf2bVz3jYNEYeSN2Hq31Y0jLBOT6ZONjYV+0g1byAQWmCWEJiAxVYjYPZnm1o0A8vFaW89xzYYVMyAdba5rltYNO8RWd0S/bnb+gyBErIjVoLJyDFg6/3FZuIq+Mzj4Yykv86vK0z9orcXE+LglIiGnlovEeKxuWAt4nvM0Tpw0ePwpi8desjhbdL0vm5VrvzBuBGKAFt/gP+wg/MC/Zezdo5BOEarVxIisRsSyKKViyUBENbW0/EClUvneo/nJz0/kR//oLTfR84BLujlw4ED9wlo5CCD08p/TxP77e48SqzfWHiiRNWUA2KF1ww4A3fFauxJYMQPS/iKkEwCxf5fSaZjKhEENnSgSEmIfplocDMPJF4HF8x+X8xxPXxh4o9+UfR+I7vV83y/k80asRaJbtXZgLeD7QD4v+HpXiI92WVQAtDcTbmiEy+CIPktwAYTAAF09gkdeMnjHvxX8Xz+ssHEDJ0Zk9cLVeBHJRD5vlFJeprn5Fxpk3Y8dHhr7s7ytfvTg5s19QD37j7iCws5OGJA6ImJ/GiIqqkq/UryGYcWoVLMytnQXgH+O19qVwAoZEKFcjuyBAzldAO+brrCsEacjEmIFBOHLRz9+6wCABQsoXs5zvNA3sbnC1fu11m/30+lNhYkJlEulIMmsWluIjcfgkMXnvmTw8FGLN20iaA1UQ6A8S3SbAdzSTLilCfjYUxYXhgT3/aTGlusTI7LKQQRoa4wdHx0NU6nUdemG7AcwKT/xzMDo7w0+++TDB4kqgPNIDh48WBd+RARHEJYrxCpTQ1gRgMv8YMv7DhzI6VyOwpUqKFyZKR8Vt4S7f77JSvVOsQFqk+cug9eVgXhHAMDJDMz/goiIeihqJ/vpQ4fSz4+Ov8149lC2oeE3QbQpPzYWijGWAG+uwSRYPbAW8D1gZMTiz/46xMMvWrxlC8ECKFYBK3Hp6ne/BEApAKoG+N7rCV/uAf68M8TIqIXnuWMnWNVgArxKuWwmC4VQp1Jtftr/s+vuecuXnx0cPQgABw8eDJcqGx9LNYVB/mURueAaTNXePIsNYKV6Z7j755sAYKUKClfEgMTFLRVP7ybwGySsoFb/cwACIhZbrVqDw8D8hcJEhEVEEZHJEdmn+od/6M679v8ta+8vdMpvm5ycNNVq1UR9yJM94xqCiCPMK4HgK48ZfPFFwfduIpQCwFi3OswFJkwZm+/dCHzpZcGj3zAIQ5nK4EqwukFESqxVpeKkKZdLSGeyP6Q87x8Pj4x98jsX+u+MaslsZEgWvpBHkRbP/ssos36BlIeafCwRSVgBkbp5MpXeBaxcQeEKLaAuImfI20c6kxZr5srfFVIpwFQHfHIV6JiD/MjlcvyIMxyWiMzTvcPtzw6NfiadTn8pnc78cLlcNsVCwZAIJ/IjaxdaAydOWvzhty3uuZ5QCqNg6gIeN4ILEJRD4E2bCH/4hMXLr1roRJtgLYEIpCDAxPhYGIZBpqGx6ZdSTY1ffbpv+P89dOnSxsiQiIhrOreAQ0suJ3z4k28PhOhw9F7tL1gjpNIZEtrv3loZFmQFDIhQZ2eHc+7F3kXMjCgLavavCJg9EHvHh08dHQSAzkc6Zg0Q5HI5zuVy9l4ic3RsbP13BkY+kGpMf62hqelnwyBoyI+NBWItE5Gao/d6glWK2PsoTAq6njZY50/XdSxmQhCA0AJaOePzxDMWpVLihaxBEBHF/EgAkRsaWpp+c31Dyz890z/0tmeffdaL9bUWYkROtEWqHTZ4zlYnAWKuEcYiAJaIGdbeBQBuzV2E97NArEB5vqu433/fpSwBe5yA4jyeMGKA1ZFTX/vRSlQYc8UviQjlcjkrly5lv9038lOh8GMNjQ2/bY3dmh8bC00YWCJKeI4EUAq4dElw6FXBLU2EillaMSCT40PamwiHXrbo608MyBoGA/DK5ZKZLEyErHifl858Rrbf9nfPDg4ejMLq8zYinZ2RBxFUT4PUedZ+bWFFIgEMiLBn/32XsgDJSvAgy25ApmJxHnaxzt5oTQCZrSgGiMgiYgnLsGFwGAA67r3yOHO5HBOR/NfHjtzwRLrpT1tbGh72ff/uiXzeVsplA1fPkfAcCQA4b6PnnMWlMuArR5gvFUaAtAecKrhjx1IoCdYmHD8iqjg5GVYqZWppbPhR5Wce/eKl4V+Dy/aUmgKyMSJhRVscGiLlHXPCirNvTQSWrQnAOnsjPKwYD7L8i+tU80C7V0AbxYRSq4GUQIS0TwI7ICi/VOvQJx58kADgBTbtf31x+L883TtkJvL5clorIiJlZY7UhQRrAiIuxTYIgAv9AqXr7CUIwBo41ysIAneuxAtZmxARWBHSRNpnku6+/uKjgwX/r/rzP4ZPfGUdAOChh+Ze2HMPSkfHI+r5z9w1JqZyzJU+1GibJCAxoQhoI2D3AliRxq0rRvsJ0R5mSgEIQbOflwiWVZpFwpMYH3b8xywFhFNeHkv1o6OFAobC1l/JevxDm9eHNzemFSAcWIEVASfbwjUNIiAIBCN5wSZNzlOox3HhPJlNmjA0JqgGgkw6mWtrDRJtVhURPMUyEYT2uYEJ+fvhCf0NnQJECt974zrzxLyPSDLYLoROACY8KmEZRIrEhlduwEcgEEJiSlmiPfX7ZbWxvAZEhDqJzLafO5Qm5bcBBNeqcY4HjBUQVI8/9+l9Q8gJz1VAGBqiPVnNlQD0J/mS/ufJKt7W2mDevLHFbkh5yopQYK3L508MyZqFMUClCnhUX5EaAeATUK4AZlkk9hJczYg3qCnFUrVWXhwp2L8fHKdHSoHKQLCnwUdoDJ9b4HGnpJvEnAbpXrBsETubsGK0toJAXrpt288dSnfeS+Va/HE9sKwhrI57OxkAWrPbt5NK7RAToGZmgEAIimCqsGbyBQByAJhXAWFBBBaCNqUwQeAPDua9/3m6l77VPxaWrA0zWgkTwSaxhTWNhabszhc0wygle5S1gShcBV8xNLM9WyibL5wdsG89N6geKVXVTs10MxMmxaIsFrY4uaCZERcUBqZyBjBnWPmoKd4oQmICEPs7WrPbXYOpaA1eLizrwQcHN0UNpNQ2SLhNTFWkhgsgJAJWSiAjYuVlAEBX17zORQAMCJMiaATQrhWeCq26v3dU//HpPhwdmQiFyKSUggCJIUmQIMGiIOLWD8WMtFYyUg3Df7wwZH+1u58/Ml7UOxTTbsUIRFCKthWL2lPkILmc8NGP3zpgg/IrIIVam2khImuqAhtsE1bbgOk1eLmwIhlKTLqN2E8LrJld1x4ggZDyAVAPEJ4FgK4DBxYkEEEEhAAKAG5mQrtm+qtSVf/M+WH1l2cH7LlCOfCZrc88tYNIsPqxEk5BMpVWN2LDwQSktZKKFfPt/jHzv0730geHJ1QZ4HbtapSLiLzdxVSiT4GkC10MAEJyTGwAIpq1HoQgDLGG2E8z6bbFn3f+WEYORKirC+bWH/lqilTqDhDD1YDUcPCJLbFWtprvfu6Pd5wV568s4LGUqTRKAlABUAWwWzGqAP/BeJEfmyjbn25tMPdsarGtKU8ZaymwkvAjqxwCuP5kNHcbs4WC4NJ5PR0dPzEkqw6x4fBZIbRiXxqdtP8wNI6HJysKRNSmGAGACXG78qn5tUT+YVNb1GBKcJyIR4S4VcjOzoPAAMQglb7j1h/5aqrrawcryymsuHweSFRA2HTLjg0g2is2cA2kZoNACGCIhbXmKADc2zk//mM2xCcrRn/vVow8hD8wOKF/53QfnhoYD0vGmnTCj6wJMAGecot9vRBzKoOhYGMLwfcpMSCrCFM8BzM0K3uxWA7/6tyA/b/PDvLDkxV9m2K6nQlFuM1qvRfUzhdjYUVzwoaVQWIPVKs6QUBiQ4Cxt+mWHRsALKuw4rIZkLiIRWz2RjGV28VUUJv/gIBYAcgL2OlfLVjO5cqHj+wySgAyRGjzmJ4KjP6ViyP6E2f65cToRAgmk1LOO0zqR1YnlAYas4RJ81rSe6kgcjLwm1tdg6p6pQgneP1wOc8xWg3M1y4O2f9+up9/f2xS36qIdytGCKAcfWdZ7nmUgfrCx7deFBO8SuzV9GqEiMSUIWHldrHZG4HlLShcPg8kKmLhVMMe0uns7OlnDgQIKQ9ig2G25jgAtLcv4hmf41KFACYFuIkJuzTT54tV/dNnh9UjZwdtb7Ea+EpZT7lKsMQjWT2wFvA0obUZGA9rucILA2E6ZNW6nqaLCBMLck0iTrCJeY7AivnOwJj5ve5+/ObQhBqC8B5POUVmzCMcuiQOBIiFFQGAND8XqZnMuv0hgMSGlnQ6y7rB1YMsY0HhMhkQoc57yQBgFtpP7DlfsHYHKSH2YE2l58jHbuoGgNyDCzUgMq9tJcHtGioAdmvGNib+P6MF77919/Fjl4bNeDU0Ka1EMztvJDEk1zRiXkIpYPMGqqUotPBjw0nBZz1g/TpKUnivYVgRQAQpxQDBvjJaNJ860y+/fGlUfS0wql0zNREhL24KzetWEy/ZH53RyuKIWFMFoCCzeiEEESH2wEz7AbBbi5dHWHF5DEjOlerf8Wt9GYtwH2Su6ipHcbp9IT8PkEUux8tZAEPRWYsCKAJ2a4UBEfX+/nH9/3X3yTOD42HFWpPUj6wOxHIm128mNPqEwNZn8nMk676zgdDc7DaGyVS5thDzHB4zfK1sb6ka/s25IfuTZwf4U5NlvTPiOSZlMTyHYKnB0ql6kLD0gglLo6w8gObYBkkIi3DfHb/WlwEwtSbXG8tiQDpOOI0qHdqbxZrbranW5D8cUS4K1gQQdgKKbQ8u4gcv/CsxP1IE0EKE3VrR16tG33dxRH/qTL+cHCuERGRTiqfiogmuPVAk3b55M+OezcBYRaB5aY+2CKAYmAgEN65z/IpNxBSvGcSGg5mQ1krGq6H5+sVh+8HufvrfowV9W8RzBHDRCuB1ikxGkZjWwpleZu8EqVTNXYoQkQ2rEGtu16G9GZhek+uN5a1StN6dSqWbxQSoJaAIIApfFQtKh88DM+SMF4pFXiaC210UAexkwu2K6dOTFf32s0PqkfODpq9UDT1F4kX1I0lY69qDtYLmJuDOHYRTRbf4L5VJZwIGqsBNG4F0JlKTSHBVI+Y5yMmPwAjM4aF8+JEzffhvg3l13lrVrtXUxnJJU2TJHAjiGCx1feZgBaSOYA6BcRKQ2ABKpZvZencu+fw1sCwGJCa/he1+Yq0BMqBaEiYipFIg8KuVoYEed5CORdy3+XEgs4GiV5yS16YY64j4QyMF74PdfdTVNxpOhCZMaSUq4UeuOVhL8DzC1i0EGCxZep2iOGgxAHZsZaR8gkkMyFWNOIKQUgwmst35UvjpM/3yixeG9T9UQ7VLMa0jQgEuMrHk1b8+YXiJWloImeoRMRW4hkmzMelCABlirYXtfmCRCUnzwDIUEgrlck6vRWx4l2seO3diI7EClDpy9HN3lgBgLgHF5UR8ZybhhPfatMJLVtT7+sf5P44XzX/a0By2tTZyWrGK1X6Jajd5T/D6Ig5hMTmym30gsEsr/GMCygbYmAa23jCdgcVJB5qrDrFarscMJkhfqWq+NTiO3x8rckmEb1UMBReqmjdBvpLoANAJ2DA4AeJRUt56a6v2ymkb07mBEnUodGty/QsK6z/Vo6KV/fefu4U5s33OAkJAACKxIcTIYQC2o0PU4n5ofW97zI9MAthChDbF9A+VUP/ixRH16TP9cipfDDjiRwAk3sg1AAHQ0kK4swkoBQK1yHoQEWdAJgPB7S1AS7Obe1fdwrPGMcVzkOM5CqEx3+gdMR/s7qf/OVLQm9nxHBYuM/NqzcCOCwqrwVg/a+8k6xSo1oIThbGYU9v333/uFgDLUlBYdwPSEfXytaLaSXsbxASQ2ptzIVZsg1IZpnBsyQNYDqVVuJDWJIBdTNitiP+0UNa/1jOovnR+yPSXqmFKsdUJP3LVQwRoaAC2NBKK4XQYajEgAkJLaE7RVAFhcuevDnwXzwEyzw1NmA939+HXBvLqtLGq3VPw4J7rZfM66sGBAC4iI0LHx//HEKwcJ9ZzFBTCKfNqb4MV1Q5Mr831RN0NyODHuggAiGQPRFog1tQk0EWEdBqkUy8HlfAiMJ22tnAs3xM8kx8pw/EjwsT/a2TC++3ufvpm36iZDI1x/Agl1exXKURcQWFLFijbpS8agRVkfEDpRMLkasHMeg7FZHsmyuFne/rkFy4Mqb+vOJ5jMxMKAgRY5kyiupUikBx4qEuhs9NYUzomNgSRwqzCigKCiIGghUj2ANNrcz1RZw5EqOsALLoAkL8XpCCABTkmZNYvsQfYyrF8eGEIAL2e/MdcmMmPpODqR16yVj3QO8b/ZbxofnRDs9m9voHSSqnA2qQb4lWEmO/wfKCpERgMgW3AkjL38iHQ3AD4XlKB/nrjNTwHQwZKgfn24Dg+NVrki2J5h2L4uLpDVfOCyItiTR7EzULmyjwIgQRiHbms7wAiZfOu+vIg9TW+ORByZPe849RWpVO3whrMUQEpTqXXwoblYz2fOVg+kDu0SP4DWMkpQXCyKCUArURo00x/U6rq/+fCMH+up1+688VQM1lfJWGtqwkigFaE5kZCGKXZLGrWRN8bM0BTI0HrRAPr9cK0/Agho5VMGmO6ekfN/+juo/8xXFBM4LaIpyxF37kW71MXXGuLwJgeYn2GVKq2sCKEYA2Ul71lzztObUWObL15kLoakFi0yxd/m4hst7YKgcx6DgGESClrK1WY6ot1GcTrMDOm+BHF2KWI/2SirN97doC/fH7IDpWD0FeJLMrVgljSpLlxaVXjU9NMCE0NBLVYNj7BojHFcwBIKQVLZI4OT5g/Pt2H9/aPqyOhVXs8phQtM89Rc5B1lBCJeJBjQ985a6rFM3PyIBC2tgoRu90XfxtQf2HFuhqQwXYXYxNFO0HYABMaktnjNyQipDxi9noMqmcAYNOJwSU8hq8Pi/ld9SOaYQF+aKSgct199MTAWFiMZeNjQ7Lyw1zziENYxC6EBYarHF/k8ST6szHrUndtclNXDDHPEbeTPTdZCj/f0y8/c35IPVIJ1G7F9AYmTEQ8x+vmcdRVjomkoxOMznsNwRyfmsyzrHokRDChAWGDKNoJTK/R9UIdORChA4DtAsA6cycpH7ZaFNTKwCISUj4kKHfrYPwMAHQ+0mGvSf8SzhobOLXfDBF2KaKXQqvefWmUf3Js0vzYphZzW0sDpRWrirWwgoQfWWHEYaamBoJi1xtkMbUghGmD0dDgnuOkBmT54TLdBJoZikiGK4F5cnAcnxqd5LPG8i2a4cHxHFdlPUedIGSPAXYSoOysFbEEErHCygfrzJ0AcAAHbFcd60HqN91zoFyO7M77nt1IrPfAWgC2xv2b/tFiSy8e/uTdRXSIWprFfv2nS+yNVOEm8aZINv6vy1X9M+eG+C97+qVnohx6rJK2uq8TiIBsFniD75R0FzNr4sJEKCCbTlR4lxsz28lmtJJSaMzj/aPmd7tdO1kCeLdmCBzPcU2T5LUQKzwxHxMbDjN7BFAN/QNLsBbEes/O+57dmKszD1I3AxLH1ppV6wYxQZs1FUitx0ogEFIipmqgjgHAgcE6uFdXyayJh1GBMyS7FeMWRfxH+ZJ+75kB/ocLQ3Y0CENfKfGYEqJ9BSECZDOEjSkgXOQ2leC8l5s0kMlcNdNuVcLVczj5EQD2+Ggh/PiZfjzQN6aeCK1q10z69eQ5aqGeHAiAzkeihiDFLaesqZwjpYEabb8FRNZUYE21vQlNG4H68iD1d7i97C4QXSemKrX2ZUIQcsnzwzDBCQDYtOnAElfQq6+SK74Ak9G42j1GkYQfHMrr3znVS08NjoUlIyallXBcP5IYkmWFCJBOAU0ZoGoWn4VlBNjgA+lUjSc4waJhRWAFUzzHhWIl/Ktzg/anzw6rvyxX1e2KaRutUD3HYlHvlhREAhE6/EkKCHzUxU5rNZgiitbizfCbdtV1LKjjNZ8SUNTeftYZQKytxX8Q2BJ7sGHxks36LwJLKSC8+sFwab8FAZqdbDwOhVa949Ko/tiZPnlxtBAKXFtdIOk/slyI+Q7fJzRmCKUlFBOGFmhMAakU6tqkaq0jDutqJqQ1y0glMI9eHLLvOd3Hvz9W1NsVeBfzVJg4DhuvFUTCihDoZ8XaEEQ8K6dBIIi17GUBP7UPqK+wYp1IdCeg2N7xiC/G3D0/fkaISAHEx47+n+smASHkasXy5oOrexrFowui104mEIi+UKzqL5wdsg80F+zBzeuDrY0pZa1wYF0+Qc1WKgkWDBFAe0BTllA2i0vDIrgq9KxProiw7qNce4gJckUEjwmF0Jpjg2Pyd8MT9Fg1VFuZabcmVOF4jrVmOC6H4tJz1oSTxKpF7BzBWBFA7P72jkf8XI6q9RJWrI8HEpEyesObN0FMu9gq5ri1AgGLWEukjgBAR0dnfcZyDc2ocvRq04xbFfFHxov6A9196msXh0w+CMN0JBuf8CP1hSsmBBrSwORiSXQAVQtkUoD2EhmTpWKK52AGiOzJsWL48e4+vOPSqPp6YFSbZkqTS5Wvi8z6SqHOHAgwHanx84XTEHRHDaZqzECC2CrEhHv0hjdvAlA3YcW6LNoxKaM9v53J2+za9tY8tpBSJKZSgtjnoqPUYSRXHwdSC/EdLIiLgLR7CgMQ/sDghP7Q6T56esC11U3NaKt7Df28qxYiACsgm3YtjReLwBLSPkFFQj2Jo7hwxOEqXzE8xba3XA07zw3YXzw3yA+Xquo27drJFsVlNl5zl3g52nJHUk/fmvitIin9PPGcgSS2pgomb7OXyrYB9SPS62JAphtIyd1QfjriP2aHQIhTgIQXUBp9CVjd/MdciOtHChK11VVMXwuMevvFEf3JM/1ycmwyBMf8SJL2uxRQJEHCREj5WPyGg4CqwAkpqsVXtK9VxFXkiglppWSsasLHLg7Z93f30YdGi3ojOZn1WC4IuAaNx7KBpKNDFDo7jUCehZgo43VWHsRx0spLC5m7gfrxIHXgQKYbSMHYfaQZLi9ZahxbQMqDSPBC0w1fGANQpwZS1+4Uu5wfuZ0JzER/MVnRf1EctL/ekrH/blNLeENDmq0VDq275Ak/snAIXC8P31tEBWEEAlARwPOS4sGFQOC8DiZCSisphdYeHsnL3w2N06PVkDcyUZtmVODCVdc+z7E8v2AwKnkwpvK8mDBgVp4VY2eRdiOADJFiG4b7gfo1mFr61I9iaW96Z34DEe8SCef4QjRgsYDQka5cLszlZPYsgoXi2p5tUyjD7bzaFOM2Jv7Q6KTOnemnxy4Nm4kwDF8jG59sfxcMIkShp8WHPQ0cl0JIPJD54PJ2sq+MTZo/7e7FL18aVo8GRu1RTOuJMIlrjOeoBbHLIpLWdcAJK6ry2AXS/qs0V4MpACIhiHjXm96Z3wCgLjzIkg1IHEsLMNbOfsMmMQEEdvbjigWIlQkmgaD6HACcqFthy7XFgdTCFD8Cx4+0eQpnraj3D+T1h0730eGhfBgITEYrIUrSfheF+JItYvYJXB2I4oT7mAsxz+Exw2eS/lI1/JtzA/Y9Zwf508Wq2qmYdjFhAtcoz1ELy8GBAMCDbvYGpQvDLHSC2JujoNCymADsN2wKMOYaTNVh3V2yAYldKSa1R6zZJGJszQZSgGWdArHXU5XCqaWef7Ujrh8pCrCOCLsU02NVo37x/LD+9Jl+eXmsaOK2ukm21vwhgik59yVhVa124WSeAAAgAElEQVR29cVMmfW0VpIPQvMvfSPmg9199LujkzoVtZMNkKTlLhjkeJCjn/sPk2FYOerejLsVXeHjAhIxVqzZxKRcg6k6KH8s2YB0bXLquQK5k5RHEJjaAooQUikw6+O+yQ8D0+X5S8fqnH4z+ZEygFuYsFMz/WmhrH/q7AD/zbkB21eqhr7iRDZ+DsSXRQSoBIu/RvFiZ1eP01s3XC6zHgLmmcG8+YPuPvx6X16dtaLatIKG4zlWrW7VMmNK/VyqxyUsGxCr2ToUuoJCGFIeCeROYHrtXgqWZkBywui81+z9laPr2WvY6Z7O2XicGO7Rs6Z84vAn7x7P5YTrOnvWwEwswxmTNs3YysS/Ozqpf6u7jw71jYWF0EzVjzhD8nqP9uoDEWCsoFgG9BLiTxqAMUgsyAzMlFlXTLY7Xww/29Mv910cVn9fDdUej6lltfEctbAMdSAx4tYXbMJuUl4PK58wqyYCAbAEEbDXsHPvrxxdj857DXKz92uaD5b05TiGxtK8jVhtE1utfcFERIjZhiXAVI8CQBe66kegA2viYSa4n1kQt4i1aYVTVtT7+sf075/upeeHJ8LQWptW7FRjEyvyGhABYQCMTQDrF5mCKwA0CYLAqfKudR7kNTyHUjJYDsK/Ozdo39UzyJ+YKOvbFNMuZhSu1XqOxWK5OBAAne0dAgD5vOkRG/Q4HqTG+URIbBXEahtL8zZg6TzIkgxI7EKRplutqWyzJrC1jimAMHvMyrsYUnAKADadWKqA4mVnWENgOE9kEsD1RLhdMX25atTPnx9Wn+0ZsN35UjiTH0kMyXTPjokJwdl+iw3+4maNCLDeA4bGBeXK4nqKrAZM8RzseI5CaMzjfSPmt0730m+PFLRP4F2KYZDUc9QdObLoEHXq4dvyNiyfdLuYeHt5RbA1gbWmsk1ruhVYeoOpJRmQTW1u8SeV3sM6C4ixtQoTiGBZ+RCRM1wwZ4C1XUBYD8RTpgwnHb+LCbcp4o8XyvrdPQP8t+cHbX/UVtdb42m/cd8dZuDlUxb/OgS0pFxPkIXCCtCaIjx9SXCp1665YsLX8hwMIzDPDefDj3b34YH+MXXOitqtFXxa/c2dXk9Mt8CgoxATgphn50GIIMYqnQVUeg8wvYYvFosvJBShTiJz+y880aQ4tSd6E7WnCQuIYYPCq899+rZB5ITrU0AYYw76ZRUj/tkluF1Bu2LkBfw7IwV+S6FsOjY0hftam7jJ1xxYS8a6ZpFrKfQi4np3XLho8XePW9yadXmPi1ncnMy409J6/GmLHdsZ6RQhCFZ/YaHTrSL4UX+Onomy/frAGP6kUFEg4d1awch0IeCaxjJyIMB0CwxLckIJhon5Oiu1iGhnXYhTe27/hSeaOu+lCYjQYkNti5/qD7kBZvwbNwBmj5hqpEs/CwRCxAwbAta4BlJddeY/VlEdyGIRO7ATAFLk9LWOGKse6BvTf9jdh6NDE8YCJq2VrCV+xFonuz44JPjCl0OcGBFszADBEuTcqwZobyH82QsW33zCQESg9er1RF5bz8EyVK6ar1wYsr/aM8B/UijrW5RLyy2J84bXvPEAlpUDAWZEcDj7ogmKA8QeCDy7Ty0gMVUAZo9buzG1li8GizYgU+SL1ttsWL3NmkpNXQ0hCIgUmIeF6BgAbHpHPfmPBDMR8yMFAbZG9SNfLAfqZ88P8+fODMiZfMkoJuur1Z/2KwJoDQwMCD77SIC/fklwWzOhsthmUvFxAYQC7G8hfOCrBv/yTQNjBMyry4jEhoOJkNFKisaYJ/pHzUPd/cgNTegqwLudNzIlTpkYjxVCDgIIPf+R9WPEOD6nsCJFHQrD6m3QehuwNCJ90QYkFuNilb5L+Y0kYmoS6CQQYh82KA+ych0IO1+st7+QTNuZiPmRuK3uLsW4XRP/cb6o33emn79yfsgOlYMwpdSqrR+JeQ9rgX/qCvH55wX3bFi68QCixEjrJv3dLYT3f9HgiafMVFjwWr+UUzwHOZ7DEpkXhifMR7v75d19Y+p5Y1WbVmi4FmXWVw1IclOSJOqwWCsQUZg9FsMixiq/kVil71rq2RfJgUQCigdymlndBWKQ1AxgAURCrGHD0itH/mhbL4A6CShefp66H/Gax3fxI57ChAg/NFKgH5go2f+0oSm8q7WZG33FgbFkZHXxI8xApSoYyQNbmglBHbsHErnOhBkPaMkAx14RfM+bBFoT7DXcpTDeSHiKQSB7brJk/3lgDB/NlxUAaosyqyaRVJDXxDJzIMAMKSjBETGVMpgzEDsrtefWagazugsHcrqzk8LFCisuzgOJLN7+nW9rkLD6RrHBHF8QAMKABTE/DwB1FVC8/FQJrogpfkQAH4Q2zfQdY9W7e8f0x3ritrqwKeU2MKuFHyECTAhUg4gjq7ffSy6TK8M0JZFyrRrf6XayjJRSMlYJzFcvDtn/3j3AH82X9Q7F1KYYRUy3k01QA8vMgQDTPAiHhZOwYR8rP+bKZ4XYABJW37h/59saACxaWHFRBmSqgDDTslOItktYnUNXnC1AbG1QFcvPAvUUUJyJ1bHgLTdifqQowI1EuF0zfaFY1W89O6S+cHbAnpsohZ5S1lfsOmFeA4YkKoCeelk7/YIAQQBMlIAUL99v8UiQL7riQsCde+aYrnbM5DlKxppv9Y+Z3+3uw28N5vUIhNsinmMy+nxiPK4SRJGc4uAzI1DeUWK/prAiiEjCKoRoO2eyO4HF8yBLSjgUyD7WmYzYcI78XRFSPiSsDosNIuGvzqWcOsESEd+sClxl8C7FuE0RfyRf1O/rGeCvXRiyI5UwTCm+KmTjr2QgZv5/XN+hlOvRkUpNv/wUYK2gWBL4qtaTtYTxAfAZKJbdWNIpNw6t3bjiQsPZxv96Gpi406XzPGGPjxTMx7v78K7eUfXNwKp2rdAUyY8k9RxXI0hyOeETnfdWQerZqL9ArZAUiQ2FdSYj0PuWcubFcCDU2f6QoBOwYvYpYgWiELB69tRjASsfAntiaOJ4PwB0PtJRu2vhorB260AWizisVQKg4GRRxqzwbw5P0A/mi/Y/b2wO72xt4kZPcTXmR6iWWmZ9IFGoKX4COAq0x4aCCK8hq40BwihMVSkLSmVgsigoFIBiWXChVzBeJWS1k2FfjvFmNWG8LDh12qJcIrACMmmC5xG0dsZk5pgvNyQxZxJ/ZrnDYHEhoMcMZrIXCmV7aHAcfzRe4hDC7R4jFNdSIOE5FokV4EAA4ERbdHvC8nPWBnAFhTLbTSMQhUSsjZh9ABCt6TXL2K+EhRuQXI6Qy9lb75cUpH/vtHbXHNeJGGB1pOczB8tLKVypDUmkPReJWIVtUoAGIuxWRI+HVv1L7yi/dbxofnxTi9nRkuEUMwd2Oq2zXpi5C4+NRPyKd++hAYKqkw4pFQUTBUF+AshPCEbGBSPjwEheMFwAhovAWFkwHgJjIbDOB7ZnCWqZJEeMAJ4CKobwe180aPSB1iywLgu0NhNaW4D1zYSWFkJLE9DYSMhmKfJUXF91QqTuG4XezAy+ZqbBXCok8jg0EzSzjJQD+/Rw3j48XFDHjeUdmpECYTJ5nJaOFeBAAEwFdEJbfFVz8yVS/g02LNvaqTAWENl76/2SOpWjCnI5Ri63vAak48SD1IkcmvnC7Yobt9qogdSse1KBAMRiyrDGHAaAAwe7VJdrc5HgKgPBhbQCADuYYEH0cLGiHz47aH99XcZ+36YWe2M2zRDhqnVO5GLa6s6UVZ8ZfoprKIIAmJx0RmJ8XDA0KhgaFgwMCy6NAJfGgJ6iYLgKlz/KQEYDGzShQQMpBWzIEDaT814ELltquZ9mJiCrgUoInB0FXhwCRkKLksFU/GdTirCtEbhhHXBDK3DdBsKmDYzW9c7ANDYA6TQh5U1fI2OmvZXY0V6MQYkNf0qxTAbGHhkak78dmqBHK6G+QRHt0q4/x+poJ7t2EEeFwnL/kNe84TgpfYOY8qylFQLL1gRQOr212V64HcDReG1fCBbugXTAWTur9kKrjRJUhWT2DiBCIswpFhuOkK2eBKbL7+uPZLrXA/FVLMPNvt2KUQL4Q6OT/A8TZfPW9Q32no3NsiHtc2gthfOQRbl8188E8AyDUa0CY+MWI6OC/gHBhT7BxT7B2WHg5DgwUnEHaNTAeh9o9gjbGgi3NkVPyAyOwc44n5WV79nBDGTYpfauhyvkpCg4YMUZsmIVOHxR8M89wGQoAFlsSQG3ryNs3QjceB3hhusYmzcSWludx5LyacobmzIocMedy0O5TLfKvjhasI8N5fHZQln5zNTmMQJx9xxInqRrDrkHJZd7kHM5Gtn/7v7jpPwfqnUXSUBiA4HXsAGh2gvg6NTavgAsWgtLrOwFcRqwIWj24xBgSacYNjxZrfQ5/qMdsmwcejLz64Y4IFqEmyjtnsKAFfWbQxPyw/mS/YlNzeGe9Y2cUaxCK7icH5lpNGZ6GYDzMMbGBEPDFhd6BWfOC7ovCU6PCF4pujNf7wHrPcK2BmBnM015EiIuvGMFCMxrjcPVcPtFnFOE6O/Lx0cAsj7QlCJspenQVSUEeguC4yPA0IsufrUzI7hlA2HbFsK2mwg3XU/YuJHQ3ETwI4NijUsjnplQEBuTOBU75jl6ixXbNTCGj4yVOIDw7drdkEmZHl+COmKFOBCApAuiAFgrwQtkKiBSJNZceXtPIEBCEGUEsnexZ12YARGhToLdf9+znmiv3ZkHmcOXJjArWBMcP/rx3x52/MdybQiToO1ygOAWwglxbXU3KaJHA6MevTjCPzs+aX50Y0u4oznr+BFjo0WLXhOWshYolgQjo4KLlyxO9whOnhOcHBT0VIAsE27wgUaf8KZWQBG9xlhUzXcbpJnju5px+fjicFp42e/RDKzLENZngNsQ/e6Q8Oow8HivYPIZi60p4PYNhF1bCbfcTLjpBsbGDYSGBoLnzfBOIsOqmaEVyWg1sM8O5uUvRwv0fGDUG5RCAxNKkmRWLStWigMBsOlE5JAaOkUeDwirzWLDWXiQaO0Ggdhr33/fs17nvQgXyk8vyIDkHgLlQDb0Tm/3VWa7KyCU2VOfBEJEZE0IE5afBzrNgYe6dBcOJvzHNQjGND+yiwkGRJ8tVPQXC4P2XS1Z+/2b19ktDT6DLIPcQpbPC/oGBD3nLE6etjhyATgxJoACdmQI69OE67LT57DidtMhXhvvB67d4rwrgab+mEYomHJZKPrdngJaNbAh474QWODcGHCoz8I8CdzcYHH3DUDbdsKONzC2XE9Y10JIpQhMJJNVa58fnJS/HRynr1ZCtVER7dbK9ZGRhOdYfqzcFY4jOyocPwM0djOnNgtVa0hMCYkNoHRme9Vbvx2gV3IPCecWEPFdkAFx3QNhId42scF2EePs1SyfFxIh9hTEjgnMS9FBlhHJo7DciK9wCQALsJsZVYD/d77Aj5Un7U+1Npt2vxkj/cQnT1u81G3xrQuCvhKwIQXcmCXcs8n51HEYajZyezUZjPmALvsPwWszsQDHHa1LAf8m465h2QDPXBB86VUBtMUPbCLs2U7Ycxsju9Haxyuj8snKpAKIdnkKxgKlGZldCZYbl93A5UQOgpzw4Rz17nt3/6vKb7yn5sgIJCYQsN0O8bYBeKXLGZt5i/AsyIDEzUeU0m2kvKwNqiGB1GyfJ4GQ8kHEPRbmLAAcOHDAdnUt5KwLRPJQLD+inatlQYEFGsDeiofB8z7/+lNM3z8c4MIQobsE3JwBbsgSdjRHoRsThaOQ3KrFwMZJAsb9vyLgxkbC1ibHB53PC77xlCDztEVjo3B+U4buuFnDbKqg0BjAeuJ0ISxPr2vJjVg+rBgHAgAkByCqC7Cw4XFYAwKTiL0iD0IgEjGGOZ1VSrcBeGxT27LVgQh1dsDuv+8THnmZvWAVzeIa+5hYQLFaOHN042fOAkK53HKa44QDWTbEGykCRFsIAVxlpEdT8PtS4As+bhzVuDEkGiRBSxp4c2O0i7ZAKcRUaAZIbtFSEV+/mHwHHNfUmiW8ucEZExsS+X1phJfSCBuyaN4SILihgmBDBWHWQEhAlkA2uSnLhhXkQAAgNgCW+bgiGgPROsGsDaYIYgBWYC+zd/99n/A6O7AgYcX5S5nkEJEr37cRlvaKCTFXAymQy9G0JjyGXM4eyHWp+Q4swVWCKcMhsJ6FKAtd8NBwuhHNT65H07+sR/pwA/Swh6oShGmLprQjhCvGLW5hHGtPFqhlQZx1JVGyQTk2KB5Q8S1s2oIrDP/VNBq+2YKmQ61oeqEF6f40OCRY7e7r1L1OntBrFnGLDEVy3JrKICnfqe/OBgGJCQFLe4Hv2wgiWYiw4rwNyJTYlrdui0h1l5gyZI4GUgRogRQg7BpILbH/7ncP6vI3khWqbogWEmFnOCCE1GAaTS+sQ3NXK7JPNMM7m3IfbRCI77xkEUJop+VCaJatT4LlQUzZWnGZbyTkNpQakKyFZAScV0i9kEVj13o0f6sVDaeaoCc9iLIQbd0eLzEk1yaiCM/hP7jhnJjqaWJd0wsSIhJThkh1F7x1W4CFCSsuWEyRPL+d2G9y6WGzn4gAgfIgNhhmluMAgM4lF39ET0OEKx0vWa2WhthwKAurLSgkZC5k0fyd9Wg6tA6po1lwXkGyAsnaacotWWyubghcIEMApABpdL189UUf2Seb0NzViqZj6+APp9xHtYVwYkiWjBXlQABEwooAQKSfi9+c7SYSQGJDS+w3kee3L/Rs8+VAqLPTpYsL0X5WHhCIgKiWARJmD6ZaONd8/OVTwOIEFHM54RNtIHQCneiEK5UUdAB4ru+UPgWY6V+RcCCLRjS/RLmFRZU0Ur1p+D0ZqD4NMgTxBdIQl3jjNbY8wTUECwAEMCAZ513SBCP1Qhb+KxkEN1VQ2VZCdUMF1reOJzEJT7IoEMs8LpprJPPQQ4QHH4yIgcWH+uNWGcTqiNgwAOBhdr0Qgogl5cEasx/A5+O1HvPYOszPgLjyVtl/37NZGLsPbOb6AiBEAIOIn+/qOhgiJwyieaeHdXQ8ojo7O2wud+XvdLo/XMGvIWIb+WnJBF8YLjcckx7SF9PwT2egBrVbZFICSUXG+RruspfgMgimNwEeIJ4FDMF/JQ2vOwVzYxWV7WVUrivDpA3IJIT7wjGbCyfU0eEiQJ2dsFGYSZDLuX/OCXecAHW2QzDLGjg7XGTGVs3zUJVxUv5GMYGFq1SfZZgGMHbf/vuezRz+JBVRs0BjGvMyIB33dnInYJR3/U2hBG3WkKsQnPUbJCAoERMCfBgAOtpA8wpg5XLuoubuNQDwxgd6t2lj32yJd4rgOibxBSjAyiVK0StNv7fl0ZdavjGZlgZDFUo8kPliRqhKGPAKGulzWXjdaahhBWhyISqCC30khmN1I959KUAaLGAJ+lwK6nwK6euyqNxSQvmGEkwmMSSLBWed+75/y39Uh0FBZ7QBBlyk5SuXetPl0dHwRGd7FTmy0SYZHR2iOtsfEuRy83oK40hPKlW5GJjUi6T87zdhZfYsFmJYU4Ug3O2lb74RwKvxmj/XueYZwnJstfUydzBxsw3LqCWgCECIPbJBaRJMzwHzpD9ywrG1feMDA29kY99B8H6QfG+LIsq4jhUAIIANIYTJwjtHTl731dvOT7656AUNxjk9iRGZHbHHwQJhgS46w5F6NQ0e1S7toTGyLnHMPMHawQyvRLIuvKX6NbJ9zUhdl0Hl1hLKN5YSj2S+mMGBpPOhAoDDb787AMB33X9hL6nUQVi77yvDvVuRomz6+g3Bvnf3DUBwUgjfSKvub3d+mEpThqST5lzUI+VOevLDVL77vaNHQOr75xgjiwnAOt1ixN4J4NUrZChdEfMi0dujnrtiZR+x9gRiXXrHbAOKCgiZTjcH1O0OMsdSFBsPEdp3/6UHPPb+SaWafomIdpiglLbVydBUxkNTGQtNJR/aoGSkWm5ASt3tjTT/RNNjTU3ZlzIgSyRKkh3z5YjCT3FWFVcZDacceZp5phFUiIjxFCKPI1kR1jyiDYRkAElbqEGN7Leb0fJ4K7I9DS4F2IvI9uR5uzLILZRkiF/Z+c0iAOx/7+DBu98z+JfE3jeZvQ8rr+Ft7DcdYC/7Jvayb1Few0+wn/0NZv7Hqr316/veM/yTAKizk0xHR40w1DQkCo8JbPWImABRz4VZmHQhgVhi7Yl1Daba51qvI8zDAxGKeQiR6j4gBQLV0FcBAAGxBll9pOtjv1wCMJVeNts5kCN7ICc6/+5LH1apde+yYQlSHTNRgjsLSE37PBYiJAJYqhZFGERF4uy3mqGHPRTuGoNNWVDIyc4ImArrxYYjcz6L9MtZqD4PosURqXGiRuJxJLgcEekuKTdB1IBGQ18LUjdmULmtiPL1ZVjfgEOVhJAvAwMgMEzGFN/45Y6d+oH3/KKI/SXyMj4FBdhqUUCwU6R57LG4/ggp5TW+RcS8Zf8DAz9izfivd/4RDc7bEwEAEx4XpjyxbrY2mFVYMV7TRcJ9AODW/LkLCuf2QKKikrved+kNpPxbxIZzpaaJEJFYA2vDw0BnZDVrDCQ6x8Rw32+o9Pp32WrBiKmGIFIAVKQRPuOc5OrwAQZBkYChXWqi/0oazd9phSpoWM+s7UVxJs9BgkxvBs3fbkXD4y1QA56Ldftw82StXqME80dUUyJpt+nQl3xkv9mClifXI92XgVBUR7KWn7mZEECEVGgm4Z+XO/TQls+xTr8TYnxTHg2tDeOsVAWIBkSDoEBQgDBErKnmQwnLRvnrfpbR+Nd33f/qps5OMnGq7mzojDyIkhnrJfZeYp2eo6BQSGwIUv4tb/zlM9sAYD4FhXMakI6o164E1M4qtVFMFVK7JbYwKbZhsWrC8Kg7SI3jd4hCjuxd95/99+Rl32erBYgYAWiBUvPuJQ0WusdHy+OtSA1kXBFc/O9rBZcVAXoTHpoPr0PDoXXwzvmQjCsoSziOBIuCjQxJxgIpQJ9NuaLEI+vhjftJDQmAuNOX9YXSZ7U0fmv9dijaE1ZGjDWBBZGm2EG5IggAGGBtxVJYHqqqTOtBUMuHACCXI6mZR5+DQITS4RPDAI6BNWq10XDCilWwSm2En24Dptf+WpjTgAy+GP0Sa/cAsg4ihmpKmIiQToGV/2oQjl0ApsvrrzTszk7XX0Rx9n5ir1lMGMDVzc41tCvDEqTBgkc0mv51HdK9M4zIWsDMcFXAaHylCU2HWuGfdDkIMTGaxKwTLBlRKXGcreefzKDpG61ofKkJXGX33MVV7WsJkfSPaEH2TCMavtVCGBexUjIAKULN+rnvOhgBLCI6LI9apfy3vfGdZ38WgBw40FWDDyHp6AQf/uTbAxtOOmFFp3t7xbtBAoKIAWSdW+un1/5amOOHCHXFEVBSd4A0BFdWdpweCYTYB8DHRnu7hwDMyn90PAIGSIy/4S1g7/ttMAmheZFEtWGjFNQyofGJFqT7MrDarO5FcypcJRC2SPdm0PxEKzJPNoGK7MJVjIQcT1BfxBXuUVEiVQiZ7zSh5V9bkbmQcR9ZS2GtWDeOBQ2vNqHhX5uBkIC0JQgWvbaRy7W1xJq1brxv76+cXT9VXzcLBl/sIgCw1pywNpgEKSXf1Vx6+gRubdcgVncAQJdLu6m5YNQ2IDkQcmTvetdLNyg/eyvsPAoII20LkfLRS1/58WLHI3PwHwCUariHlF4nNgxpEfIqV4QhICVAldDwRAvSAxnHiaxGIzLD61AlhaYX1qGxax30JQ3JCuAhCVclWF7E6b8RF6kGNBq/uQ5Nz66HN+7BemY6rLVaEYetlKDxVBMyTzVBUhbwpC4bNwGUCYtWmO/Wir4PAA64Hk1XxAEccKtdGPYQ///svWmUXVV2Jvjtc869980RoYEZUgKRIi2QACkTMyQZyvawytVuV3n5qdvtldUeapF2OsHptCvLQ5V5tNNlu8pdJoF02pRXOZddzrL1XPbq6io73W6XAgyIBIUESCEGgQYQQkJSDG++wzm7f5x7X4SE4kWEYnjvBXxraYw3nHvvOWefvb+9v+0cI+lSRx4EAIwGqfTNd3zxtWtQIjMXD9Jxs05EtdjkNzDzRmN8MHcib8hASGEiPzKRHgM6uUFM5V2kNz341x5JZ8u0qNISnpANASkGtQjZvYNwJzzrVq8WI5Kk5iYk+TsZFJ5aA+/ljD0RZj7kceiPsPKIPRJOMdgB3NdTyO+xgo1krMbWqpyTicJPHLZKvZCzxkNiybx+IiKYyAjpukKmPgm0jcQlv6D0sJUEkTxx3IT14yQUOh3mmVkY44NAGzhKbwTmFlbsaEDObonfTHwzs7kCJtId69uZWQhHCOmcIO0fB6b79H7w6uxnr5lamwPTVWAzV3bX5UETkGaIqkDuhUGouoJxV4ERSbwO10A2FfIvDdrsqgllhfI+Cld9hG4i4UeyBtQUyOwtoPCdNXAnZpDs/b4GL4JxDNLvZpD5Th5QbI2HXuo1aBe+UN7Ht37ub7MlWzt36ZcScXE3xOiTO0KGOQSwbWnZQVgRJtLM+gpIuQmYYQNmQadaDhqOH7FS3jaSHtjMxX8Qk3DAOjjmU/MoAJS3PNLxrNFwMyouVer0ssVB24wReVYh//wQnIpjdX/69RRkZnAdp9LW6ziYBhwrq/5RuOoj9AQSfsQBOMVw3vIsyX4k9kacVeKNGMA4Gt7ZFLLPF+wZX8EajyW3H0xgAzZ8hVTrMwCAR+b+FjY4COYmICRmC2MRERvDJD0o5W0DgOE5eJDZDUjpESqVyGz5qbE1kO6tYIPOR9r4SEwEHfqHx35vSw1FlnPptwTC1yBqLXv1kbFGRL3rIP/MEFTNse50P52CEqI8LgjMHxxAbmQQclzG8twfGY6P0IOYkWJPISH9XB6F59e0U377OlMrNoTOpGuNR4umD3HLtqUxAHZC6czNF8cSUhL6ILM+R0IRd9RkAh4AACAASURBVEjntRulAaR765afGltTKpFB6ZGFG5Di2MMEACqVWsc62GK0D+4YvgKDhGCjI5Z0EACGz47M/vqH7UWsnQjqAN63mW3L3K3QkCX4zirkXhiAbEmbIdIPRiTJ7nA03AkXhWeH4B3I2tTc1Edex0foA5iYZM8aOEc925jseA5MbNWg+2EdzoSxIWTVUMi/MGjDx8laXFYQQFRnrob234/M+sokAjRF171hwtZJIR0QxKx3mkFktA/WwRaVSq0Dpm3BpTC7BYuL/5STuRnga1gHHfV9mcBEUoBwTrA4BADr1w/PvqURcbHIcm/5niZr/wiBV6bnqbZ1Iuqki/y+QYhAglWPx2NjDSsmIHMsj9yeNVCnnI+4jrlA+EhWo9cQZ2tx1kA0CNln8si/NATZkv0V0jI2EuBMucjvHYI8o2zpwHKvRSIGCRDze6icrAEASg93UPkoMUol8ebj5INwcK4kVwIR64ABvkaJzM0AOhaCz/ppW5LiP3K3CycDsDGd+A+CMCQdcNg47cA5DEyX08+Gs1tG4ir31j6j/YCEWhlqLS42dN7ykB8dgIgIPSnAmGRZOQYyECi8NIjsMwWQTx9Vkl+MxFgItr8IVox6fopBywNx0Xg+MmbTMAR2bJ8Z76CtWUqd8y5sqduriMNWaspF/plBqHed6fW4vOAkW1VHrbGx8q5gHmUS3PYgSO5j1hq2L8is9SBgY4STBZS7HZhhCy6BWeRCrIDiluJul5i32/DJHOElZiIhYUCHvvP42krckKTjljwS5ylHJvyOCxwQKnUXB9UIC6rUvEzE4SznSAo5OYDq9kmwZNt5bfm/fW4kaYGugTvuIre/AHnStam5tCKTtTfxgcuOFR0iAAYgLexBQAAmZQAFULic8ehZYABqWskPa0isFwkJa1AAfGBQvbxpLgc4ztTKGcgzDnJ7hiDvqKNxYw0QDFq6qrClQ8J5VB3knxuEPK/a/VOWGwxmIZRiE05p7e8DposF5/V+HR5gmAYJlWcTda6ZYAYzb99S3O2WShRgFmHFSz+eOMU2s/6Ta9hEt7EJ4or6DteWMPgCBwDbhGrOKyqRKe5m+crvb3pfR82/io+QNGuWwFLDEDjLcF9LI//KoD349IInkvAdyiB9MoP8U0OQp9x2H+sPVSvZtleB2HAyKALIJ1CTQE0BCgA4DLNGI7zJR2t7HfX7p1D93nEENzdB/goaELIGS6+L0Li7itbtDYQ3+dBXhrGMDEAtAjWEHX9A1kvi+GCQeC0flkec1I2kbTfEzHN5FA4MQgSi9/jJxPOoK+T3DkKeW6GwVQwCaaGyAJsXOTP1AgCMPDw8p4+dRIJE0DwC8HGSHsCz5f7ab2ITgEx0W2b9J9cAmFVY8ZIeSHHMdg80qdwnYHAV6wCd20cBJIRgHTSIxP74U+a6LntxsXukw+YfSZn636STvV1bL2RhYoqXC4Y1IofSyAlG9bap7noiBmDFIAZyr+eR2p+zw1zBidp1EOIwht1cKRJ2kyUb9jApA84Z6IKGzmuYfIgoq2FSGsY1MNLuOiwN3PdScX0qr4zhFQyEBM5p1G+u2kuJCKQFRCAgWxKyLiFqCrKiICoSom6NSTtzx+qyxvMvHvdq90402TR0ZddioSZR2z6JMBdB9EJbhsR4NGwpgDzjrPSaNAApNj5M1PzTV353W724m2WZ5iHrHktJjb7xJ/Udtz/0Egl1W8fXE8joACTkVSaV+wSA04lNuBiX3KS3bAGXywBr7BDSSxldm6tE3JB0pYn8U2FYm+Y/5tWFkEyxyLL8+/T+nQ+d+mUhZJmkk2MTrqwRyTC8VzIAA7WtXTIixuoGiVAi90oB7uG0zepYwmrWnkViNAwBIUChvfGcYui1EfSaCHowRFSIYDIRtGemmxklzrUhe4iP4vcagghWePNJ1Hx8ggyF9WjJNl4yrkaYD4Er7OtIE2QgIZoSqqqgphyISQU5KUE1EYdwyCZ5KJ72PlejMSFMFx/mGOqEi3xjDeqfmoK/rgURyunXrTSSsFXNQe75QZvAskJhqzYYWqYKjg7rf1NB8z8DQHnXfP0zm7BULlPEdzw4Smw+N0fKEsEYJpVJGe3vALAnsQkX4xIb9HQDKbC+k0gQQDo+E816dSQdCJiXnef+fgLAHA2kLkS5TKZUYlEq0bfv+OK7vyLd3GMAFOswAq2QEYE95XuvZEAGqG5bYSPSnqQKudFBqGNxyArUW278UqE9e63RoICAyG6WXDCI1oeI1oUIB0LoXATtabsZx28hQ+1fs39+HEe/8AuXH2S9DlvwaY1b3JfuwlEQQ6c0onSEYK0PMtb4iZaEqjhQEw7UOQdyXIHqIq4Bio2JwLRHtZoMyoyaEXleIv/UEMR3T6F5TcMeDHgFw5HxWIxj4FRc5PcOWM9jRY0HAaxD4eYcmPAYG/2Lbz5+s7+gplIzYAL/AIvAkJCC2ZhZdjcCUUQkFFh3bDD1wTfHsa7bvzQxCMYW5mjOQTGS0hTaPzr6+dA2O1lQTQeXYBvLH3ji2sd1UP9lkqlAuFkFILLxumV+YMnelGW4hzLIvzwIMrT8Kb7JJHUN3HEP+WfWQJ1wwXmzOk+bSQcEE/MYDRue0usi+NsaqA9PobJzHFOfnEBtUxX++hZ0KrKeRSAgQgERiQt7cV/qFxjE1AUCndoG5IKuz5caIxNIkzUaoQBpASMZYT5E89oGalumMHXPOCqfHUfjvgqCzS1wzoACsgYliOeH4GUvoVpxGJtpSD4h+/QgssfyVn1hpTK02kksGu6kzbaS768cYT49Dh0KlXbAuqqjxhcOPH714csxHgkPwnrqbSHdI0J6oI48CMAcAYwtt39pYhDAJXmQDxiQtniWaXyXdDJXsA7BMLOfwRlMJISJGoiC+ksAMDIyu0LkrCiRKdlR04Enrvktw60fMmHzoEwNKiJpwHNKAS8e8YLnLMMdSyO/fxAioOUj85JJ6lj59fzTMTGXW2V8B6E908gHqGG5Db3eGo3azklU7j+P6rZJtK5tIMraQ4uIYmOhxXQ20wcMxSWQLAu2Xs3KIt7M9QxOYzZc4lrI0AXXzYoRDgaob6yhsmMClZ3jqN9fQfCJJrig7f2si9hQ8uoi4E1c1U1A+rk8sq8VAGD5dbRmrEvvXBr5Z4as2kNmhbMf2YTCzTkMami/+ZP7H7vm28MlVuXyZVx9XLjdDM6fB8kxki7QqcEUjGAdQjqZK2AatsHUJYQVPxAeOhtXjwvQrQCvYzaGOipgsREqLcHmHcH+G8AcBYSdUCIDlASYsZ/o21seeOtwiugx4eZ+yFZHtiLwzN7oy4DEE8kw3FdTyPtDqG2fQpSJIEKxdOGsONOKJSPzdhaZvXlQJGw++ZILsHUJCa8Rka1dEQw9pBFdEyC8ykc4FECntHWMNYGMuPB0uZjbQLDEe5Rs4rzID5wnmAAi64EsdLO5+OVxqA4mnvDEiLIhwnwAuo6gGgrOeQ/Oex7Uew5ERdp0YZcBuUrId0P2WghIv5iDaArUbqvYRJPlSPO1ncHjDMgsst8pgJq0UnUe06NgGJkadIyJ3je68bMHfu+6vxgu7VEjJejLcjeJuLibZXkXVe986MxBKZ0f7rQeiEHMxgC8ztoCPHf2EsoiH7j9I8nmb8w2CCXnKiAEgUl6gHQOhZON88DcAoodUSoZEDBcYjX25E1vTx3Z/7+yaT0I1mdkakiBiABEy57qyzY/3TnqofDMdE+DJamUTYyHYGTeyiHzTMGetrweS1u8HLRP1GzJ8LoABCPc5KNxfwWV4XFUb59E85omtGtASfjmUiGpRYAR8yQRWcdyBVOfmQBogmUSFzFZLhnyEhChBGmBMBOh8bG69Uw+O4HmPVVE1wU2PFgTtjaGVoFHEnufnLYcZWHfkE3zXerWDLFIqRGM7Jt55J4esAefFZEnAcBgMCKQECo9qDjy91LY/MEDj1/3F8MlViOl4cszHjGSmhE2wUETNhlCiVnTeeOCQgglYXgbMMM2zMCFBqTEAmXSmx48UhBOerOVCZ7r5Eb2u3QwdvBbWydKJRYdS+vnBeKREkXF3Szf/Jsf8Pf97ronjKl9PwfNPxPS09LNKwhigKPO+cyLRKKddcZB4ek1SJ1JT4u/Xe7EZVjtH8HIvlFAZm/ePgUH/e15EGz4JKlzaAqYgkHrjgaqn51A5a4JND5Wh85EIDPDaCyRwfggbCo0RR/g/ZYfxHEV/BLzLxfdKxGnBgNAWAhQ21TF1D3jqO2cRLClCfbY1psEAMAzChj7EHESAucMnDc8m0rbUNPyJ4v6bCARKSVNyB8cRHpvHpx4cytiPFiDiKWXV0J5Te1PPd6qTf3TfY9f/YI1HrQo4wEA68esATCRPiqke0IIlTRhugQI9qYwhJPZvOnBIwWUSV/cAfGCfxTHygQAhUhuIOFuYBOiY4+OWEDRaB9G+wcBYAQjCyXQZ0V5lx3w8PAedeDxG1/eN7Tmxzjyf5RN+KxUaSHdgoKQbHv5LhPi9riiKpB7ehDZt3I2MpDwIjOvlGf8uhQ4jt8KRvbVAaRfyIFdxH0D0L8nxTgmnWxW0dUhGvdUUBk+j9qtkwjW+mBwmyhun0mW83op5iC6cV/J5i2SFsvnJif3T9gMr4Q3YcVoXdlE5c5JVD87jtaOGvSQBrXiWhOg7w0J5wycEy7yewfhVJ3FGZE236GhagqFF4aQeikDeFiR9HlmNgAi4WSkcLNCh41RRK0fGX3s6ocO/eGNZ4pFliMlirB4M9km0g1VjjPr4yRcdFQYYSY2IYjkxkIkNwDTNiLBBQbk7Jb19ofCuYl1sMGY0Fz8mgs+H8wkHEEkTyOIjgDTVm7JUCIzMrIzstLwZEafuLocyOD7o6D+ENg8J4RD0s1JFmSW7aRpCOwhrpQtoHBgELKlYNwZbToTz0KaS7fuTIwHgNzYANL7sjZkJbBi4fklR+Jx1K18SLjRR/0zFVQ+PY76ppr1NrQARcJmJC2bt3Ep2BRsipbYC5j7ay2MzbBaEcy4rwkJT0wICwGq32XDho17K4iujoAAoGZ8xus1mZD5ItayU++6yD87BHfS7dyagWf/xdKu2fS7WRRG1sJ5y7MFgvEBfDmvAkAklCdkalAx81sman7FiMb37Hvs6r8GMxWLuy8rVXdWlMiguFse/MbWCQ7rr9lKkI59hoUxoTEm2ADh3ATMsBExLiDRk82fpHsrqZSEX+lYh0EEI6QrAHMs1CZuIDXPAsKFokwaYCoWIcq/Q3UAj9/yz179Vm5w3fcaE/y8CNSnWEQGjhHLQh4a2AphaeAeSkOec9DcUkOw3odx7TOmiCB8BVYM7WgIPb1CE6OSGxtA6qWMlW7o1/4dwrr11BBghxHe7KO1sYFgXQvGsRu3CJO0q+4NkzR1JyzY9kC6893tv2phcwlSGvWbqmhd24T3fgreW2mokw4AAqfiedhv3FtsRORZhfwzQ6jeO4Fg0LcFh8mySxJiBLcPb0nRqeXFGLLpIPNWFt7BjP3/5U/TtY2VhFTCzQsTNt7nsPEfOJj85v7f2/QmAAyX9qgRgi5j15JHVobPrqcRAAbiZTKRAUHC4NJpUkQEo7XwssoYfSuAv7rYQZg2DsxUJtJbP/e3WaG826avtdPNFExCQgeNI4f+8MYzKLFYSAHhwkFcLsOGtQAxUqLzAP7sxj8/UMk01v+Ze8jJ0yQMZ1igQ3TvssEAKOZFzilknx5Aan0EvTYCJFtZiooCZzUat9bgr29Zpd/47W3jkYnva78Zj8RwNAVYMMIbfbRuig2HYnv67QHDkXw/GQJ1KzTIcSZWF766jSQvQRNIW7n0xvV1+Fc24Z1OwzuSgXpP2anoxW5wP83J2IiIcYn8s7ERGfIhAtm+dqMMRCCRPZEBhQLhmsBmcGmCmnDgnkjZ+g6PYx285XpiDFgVNyXdvDDar5mg/ufQra/te+J62z+pxGoEMHHIalmQZMgSYYxInCOSVxjSHRLO7SYqlHfb1s/9bbb8J1SPhXIZmGlAbFtEdtKb1ho2W8iEmMUuWTCYiIQxEcDG3oCRETGCnct28W2UyIwAZsvuMXds15YgvDKo1jKV0L1CIvWyC+dEyg4wtQypjAwbh01Z8Tf1vgN12kEiYcESoHGJ3PlBOFvraGysAZL723jEabA2hk6Irg3R2mw3IhNX6yfyIV03HDHscqXpWoyVvN/x95Gm3ohOJoYkrtw3itG4oQ7/yhZS76XhvZ6GPOMAysqr91X6r445ygmJ3HNDqN0zgWAwsN6fZHjjHjKH8lDHXYAAz8nYNapha2fi7C6Als94EINJGKmyio02Oqj/N5b4rQNfu3IvABSLuyVQRHkZDUeCJEKkjDmsg/pZclJXkIkMwJcOaDKITQhms8VJb1oLoJ7YCmCGAbGbPwyUugE6+Hhspma9o0xgEkISiXFDfBBYRP3HZWIMYxoAREsq8gT5Qz78u+pI35BBeiwL8b6y+dvLcbKIRQDY4w9sUOxyu3WnnHBg0hreKxlr0PrNeMTigBQI6KtC+JsbaMUpuCLqPcPRBsUhnFiccsWJkNgD6SlcbEgcg/rGGlpXNpF+OwPv9QzEhLTzVK1o3cPiEKv5yvMSuWeHUP30BHQmROa1AlJjGRtqzZj2aylmdtuGYzlTvAUDoTDCKAGh9xvdfPTA6We+hbINT8VV5Ren4ywf4gjRC1+/7vydD713WJDa0vH1RMRRCwA+DqVuAPB221ZgBo3Wdm287O3CySpjdBwcneVzGUzCgQ4b57VwDwFzN5BaeljFX5LMAEPEhGnjY3VMfWYc/h0N2JOzWB7yNiHjzIy/MzDdupPhvp6C91IWcDFNmPcDYiVYqgtwyqB5VxVT94+jvqEOI9mmj84kxnsQpLsU208OFL1mQBLMJNxDAZMyqN1SRWXnOPzbG/ZnCdHeLxIpcbakHBfIfWcAA3vXIv2dnFVGziSyQNTOXEvqapZtPcbfQVWhacgTwbbggH/tOz924LFr/gS7i8Y2gmKKSfIVvMnEpTgVl0jutwms3GFnIjJGG+FkFXnZ24ELHYXYA4kvpAgJyDtBIj4nz+LWAACBSShQ2Dzy8teueRfAggQUlwOJ1BeFAjqtUb1tEu7VKWTGclBvu4DLVoxuZYqC7B8ZvtC49DricBVaBCJCcEsLzc01hAMBwJjmOPogg4cims5w68K9p171zhJcwJEQolyI6tZJuNe2kD6cg3PcBRyA3T7RZTMEzjDkWWXDh9l40a2kJ0Wwm5BvtdCim5rcvDuAX2i8e6L6DycBpmIZorxrCbOrFoixWJKEIEehwxZIpMBsLu2KsU2xIAFA3oki4swwu9vaGV6yH7g5/1qGtX8Hm7lCcYwkCZCFewCwQoi9cFzh5HSlbdVusL6FqXvG0byrZjOE6snJaoUGtHLO6eIh2PbfqAuYtRq1+6dQ2T6BYCCwqbh6mTy55UK0zOGJTqCYMu2HZ99eMwJkBPz1LVTuHkfjnipMxrSVgPuifsQQ4M48uK3g80/qoWoCZkCjfl8Fk3eNUzjoQ4Twrn17swcQl4vdzXlLIkWh3zjMHL4vpIu5CrLZRGDt37E5/1oGQNtmCGBaJCufXbMJoBtZ+x35DzAxgQTrMAQwCkxbta4juQ3J6Sq0xVW1zRVUd04gvNG37nmE/lgQK4HYrbctWIHWHQ1UPnMezesb9kdRnxkOwJLYUXdPzRQmirx9Ms/ioYq4j0n95goqnz2P4JYWyAfgU3+smSSsvFJI1k+LAA0EtzVQHR5HY0MNkMQUCYDIyLWeHdUjj3R3JcWRouj83rMQ6iAJFx3nKBGx9gHQjdZGTNuMCwMRAneSTGXZ6M6sI8GQdMDaH5ehfhmwTagWdVFLAvrgPwXaxVXBGh+V7x5H4+4K2GGrCrua1EsvB8mpqU6IropQ2zmB2m2T0Cl9Ic/Rh2iT2N0YP8UhrGRV9MDqmBcu4EckwnyIyo4J1O+vgPOxN9Jvh4nlhGCAGVQn6PUa9eFJVO6YjMVXpdXXit1Q06j3yF2zPMhYeVcAEqPzeJbERjOpdAYCd878gQCA8m4ksm93kpRy9nhYDGYI6QFCvarOvfUeAJQe7oUlMosxiCe8CAVYAPVNNVR3TiC6Npx2z3vk0a4ohO23gAhobWugct84Wlc1QSYOVyVkY7+hzYXFg1/xMFZsdGemEfcbZqwZYpuYUhkeR7C5ZT3Vjzz49vqhkOBva2Dq0+fRvKYZi3gmEf1uxVA7ox0xCv0DJmwCJARmFahlArMhEophDUhiM0RSFLL9AXaY9VawAWi2nXgGSICEOLC3fE8r/owlvLxFoNOcvtgbuWcC/raGdc8/TAsiJvqoLmDyBvX7p1DbOgnj2aKrVWFQuQsyJu3vnq5DIe7QdKEfEHc+FKFAlLPeSOOeCqCsUGPfHjIWg0usn+rWSZiUmfbak9hOJ62pHgDp1qsAzpB0iTEbD0KxTTBg1lu3P8AOiKySVXGXvVTjnb5ZyNQNRscFhLODbUwsgImiUQBcLPdKguo8ZnJysooEjGtQ3TqJ+n1xf4FWn8R4FwPBgLGLP7zZR2V43HIdiXZTv28IbH+zSrxdzIIitiR6v0mEXApJWCvmwtoe/NUhqJZkuq3ydZNg5vrZZNdPow/XT0Kk14R/TghnTEgPNKsBAcAgo0MImbrBeKdvBoDiLggRl1KAmG4jqdaxCdEpfTcRUGQTTnEQ2vqP5dC+Wm7EcV7SAo2NNdSGJ2EGjSXYV6sRSUJWhtC8q4bKp8YR5sK+5zouCYMZzaS6AIEZIaxVMp8SDz4U8Nf5qNw3Dn9bw5Lr0Yfh8AVbVBsRmp+M10++T9dPCVwqsXjt6584b0xwyKbpdnqALNiEIKnWEZOVuirOINGNiW4DU4aAqFM4ikCGlAch3VfDVHAaANATBHqMhTzE+LUikDZ18dMT0FeGNsa72haDsEkDJmdQ/8wk6psr1tOOVl8YImkg1RaG6NKjtF0WV9GNBaY9+CD24LdNonlvxc6v1ezBC1hDKRn1+yqof6ICFpjuUjrbY+7UDqOrILatNwCj/VfYBCASNCsPYm1CBKYMEN2W/LfaXYShEgt5/sytILL8ecfthEFCgSN/bN3LJ85b/qNXDAgvPH4/Y0GEAwFqd00h9/SQbQ/qck8E5hYFAgAG1QSiGwLU76wgGAz6qiDwcpB0I+yaYSTYmhq9SlOWYm+ECahvrEFnI2ReLECeV1bRth8KD+cLAhAQOKdRv2sKrStb0xI+c62fHuZA2urrmt8A6BykWsfaN7MQ2mT5cQIJdWuxuFuWizCCiHj7qTc3Sje7kU3U2WIymEgCRkOHjZdHRnZGwzshV4WPHhuRYMCHv6WO7tWJLiFiRWJqCARbmqjcY4sCe0Yxd7lAVhnYdgTslvsB+/2rKYR1MQjtZlatK1uo3j+BcENg2+nOIw+nL0Bo90lvfKqC1tXNVbN+Eh4kCv1jRHRMCBfUibVjJjYRyM1uPHrVHRtAcSW6cdIbDEcbWfvgDgrUTMwgodhEVejoVfu/I0t5TYvEIp7ojPz34IoWzFBkW4H2q0suYHuSh4TWJ2uo3jkJ42o7+VfpoXgmuuqBxF5wu6HVakY7DCxszcjd4/Bva9oMLbMKjAhZFerw5hZaVzVtbcdqWT8lMEosXvnDm0+aqPEmhESn0w4TbEGhiTYak94AxA6YILmZSOZhtCaeQ0DR1n8cJwqPA8Dw8HBv5Zks9sEywbgGpmDiZkR9OFMEAz4AAhr3VlD7RMUeCJPajlUOjg8C0F3Mwo9Promk+6oGARDTFezV2yfR2lEDBfYZ9O2ci71ITjH865tJgt/CtoSe5UAAgHh4xPIgbKJDYA0CzVoPQmwbTBGpvCC5GUgerXJuASkwuFMHEICISSiYqHGscMU7xwGmUpcFFD+ARY6GGGDBMK5Zks9bcQgGtQQ4xajfP4n6hlrch7zPskQWCYpWsKXsJcGg2IB8aO57zIuAgdonKmjcXbXrJ6D+NCLEoBAwAxpRLoplaRb6Gb0dv1z/BcuDMNMhABUQyVlLlwjEMAyS1mYAEHf92PMFIeTGecjFsk31AlhHh0dKO6Ph0kiP8R9LM5SkCCyJffYNhJWuN3mN2v0TaF7TsGTfaigMnC+Sa409kK5ed6LH9WFCzIuQIdRvqqF+3xTgGJs+3k9rKYEhmLyGcXT/HSbngfLhuDGUjg6xDs+RdECzVqQnYAjpbLjrx54viFZ+KM+May2B3mG5MQMgAR1pAh8D0Fv0x5LBTvToigBtOYp+OD2RLW4yayNU75+w7XQDGf+su0NbUcTXSt2WESF8OA0IEF+7Jdeb1zdQ+/QUOG1ArZ4Q7F4YZoqz9tnQ54U4grTh3HdOmMg/CeF09poYxCYCG3NdKz+UF8QqAxOtB0fotNqYyBboC1Fj0Glg2v3pHSxyw0gWvSHUN9XQuLtqawkC9PbEJ4CaAnp9hMq9kwiGAms8Vll9x0LQtWZSM5HIqfTw1Fk2zCDXW1c1ULt30jZ2CvokpJcYjIigCxFss4rLGHhPcyAJmMrlXZqEPNaJwQDi3DrWgNHrpcikBbmUYeI8G2NV2ju+VQBASxgaBwD0XAX6EtRtxKcnMFC/uYr6vVXbErebNQWdQAACILomQOX+cYSFwFbG9oPXtIywOlTouuEn/SF+EAm5Hki0rmyiMjxhk1NC9OZaSkBoy5X4dzbQuKU6fRhZ6Lh7nAMBiEul+KqITtteTx06FBLARoNh8mBklGSZM8akCNSRP4+/AABCkqq+pNfQa0jiuBGhsaEGdjWyzw1YIyLRmyfKOAuGgFhiukcN3gqBNCUl6d3tCZIYsg8rDMCSYwkUW8nd00gKQENC81M11D9etf/dr6rKC8MEs4ntwKw8OsAGDE4ZafLKgD0C1Jy8Sfx2sGGBoNvBgVmwhE84ScNMSNleLSxkAC6gSitVjwAAIABJREFUTrkojK9B6/a6NXrStMXvPgQTfxpxLsh06KjLFx8mBUbdHcaKI95OjGMgA4HMGwV4r2TsfXDQm4ewpGhQMhqfqqGxsQbouCnYKn5+Y2NlAgAm8jsWEsZgS5YrKaSrmInmf1xlgIQIWTiLHvWyYAkLlxhgZaBqDjIvFEChzQdf0f7K8wUD7DEoIKSfzUOec1C/tYooF9rCwQ9TFlY8k6f7oXNXWzJQFC9JTqoLuzaUlUN8341kuBMesi/noU64dv30qgefwACQQDgUgAmQhjpIy84DfcGBWJCB6Oh+TL8SDENxp3QKMV/hDmaA4EpQbvHDXSYs4eRkAKmjGYhx2bvGIwED7DI4Y+C+nsLA00NIn0rDSAOOuw6uesx49tNS7l16ZmR1otq1KD08dZYMsfdnlJ1s2aM55EeGoE66Vh+r140HA3As95E5mLeCkXKRIdCe50CALVuKyRizcYxqjncwCKSZTSTIqDpI+ESi49sIVmiRGGmGXg8AiRR872CJVqmx3oc76cF9MwVOd/cUO28Y60xy1kBMSGRHBpE/NAAREjjJY+/56bxItLNnujyOxBkObTrxar/tM0NWqq6Q3zeEzLN5kE/gdB+JKxo7XueYh/TbGXv4WuUo4RH7F9LryB64Zt3wGACRAIgCRGgoAa4xqA4SOXA4+4mNQQRowzoHiGsA4OzvjfTQrprk4C7yYxiAZFBEyBzOQdSlTT/sZe/jYhgCewxoQmp/Fuqsg8btVfhrfIiEXO6jy1kYeDp9tgfQ7kpIq0DZeTbERDkISL+bQfpADvJcrMoL6q+1k8BhpA5lEawPEOUDm023yMsQmWzvzQDbTda2NGdzfRwA7jBOBkgCMHXBuiZYt5ogMU4kO/suxMQwTMIBE20CgPXre6QORPL02XqxI2LASEb63QycY54NXfWD93ExjC2A5JyBetdFfs8Qsm/lrBMijQ1p9cbTW1oQLuxG2O2x6D7dQOeDJGTlGIhQIH9wANmnBiAmJTjXR17HxWACuwwxJZF5IxsfuC7zADDNgZBp1HtvIjxizeJdD54vgHEjc2c2gxJFdpLjxuGmqLfO1UmoUyQUOt+hJCWSIWRq8+affC1fLpNGqdT1lco+BxDkE82ZiDzHB8XEeV3BezVrJ43o45Mjw3ojGQOEhMzeAgqjQ5AN1b9aX3OAAaDbvUASEANJW9veD4UvDAyrGecYeOMeCs8OwXspY3mOXucL5wO2STPOkRS891Mw6nL3gfg+9CiZXhyzA/R1fbNwc+vZhGCYDnu67QdFJN4T4XhdvPb230yBzXHLp88xyxnEOgAJtdlLp2xf3LGHu3hjbCUjsz8FQVOQ0krOLwJMQPp4BvKM6n3ifL4wBCiAPQP31RQKI2uRPpUGK2NDD6tpb4treGzhZ5dJH0IPiDouMRhxyMqADJA7kkd+zxDUqZgoF1gda2ZGKDt9OAfpi8WtFerNApizWywNQdLZAear2ESGOklagTgW7D0BYEpgpBSZsPWG7TZllX07fJ9gHWiGuUGRu2PmALqCwzZ7QLeCMwj1+5AKl33Ui70Pd8KF+2rGcgi9eWi4PMQ1EZwzkJMS2T2DyB8csJkmyqwugt3AStB0+fFxUj8Ud+7r+/ubpOe6Gk7VQeGFNUg/lwfCmCg3fRqymg0xoa5OOki9k7EGZKFI8idML6ZBMg3DtuMQQt1HQgkwa9DsRDhI2ELCsHlk9MkdcWstE7zKJgiIVOeADYEYmkk4gON933XF3emR0s6oa+7Zw2Awi3d/+HvOc+AfJRIgusy0CbKkc/pIDqIuAGeVncwTmLieRQHe/iwKz66BN+7BKLNKiN4Z3QgBdNuKkKH+T+VNvA7BYMFIv5NF/qk1cN70wBkGFM+436sMBEAxUq9loWrOwr2QeG8kAS3CqKdWV7EIUSqRuePzR7eRdO5l7QPcIXzFYJAURvvacHQYiBWTSJgjJJyjJJQg7hwCYkCYsAZi/p6rrhq+BQCGHxmRS3hd8wdNN0QhmP2sI2bC7Dous8EARjG8sx6cox441WdZVwtF3OSHcwbqlGMJ9qO2tKffCfakmVRvcCCwshj9LIMxIz1XBAL5VwaRe3oAoiri3udY3Vl9cUajOC+RPp6xh6yFgIjjtFff5UnLUD/8cE+srrNbYuWjVPZ7iNTHjA4im6M7K4yQjiDpHDMR3gQAgVJJjD6x8XWjm4dIugCJjr4WgQTrUAuVHmCJnwCAkdJw1zovjJw9a4MzpEaYzSmhHAnw/P1FtimIIhBIv54DhWSJwNWMJJwSu+gICZln8yiMDkHVHUuw97E3QppsHUiS0t61gWCa0O9HJES5MvDOpjDwD2vgvZQBK9gQ72o+ZM0EWyPivpaGO+GCk5DvPJCUdsNwPQrDYDmHuSAUd8uREkXbfvr1awH542wVdjsLHxExSRcm8g875v3XwUxiGJ8RAJh18CybEERi1paGMz6ITNgAkfrRHQ++ewdAXCwuquD/8lEsGjDT0c9sPcit5vPkupjDiboQbE/dqdNpyJOO9T5WE/cxFwxZJbQ0w30thcLIENInbby3XyvYKT71d5934HZbW3RZ1HFBSEJWKibKXy8gv2fIJpbkVhFRPl/EhLqoC6TfzMZ9Zub3PBNnnnU0efwnfsLvhaxVACgWbRW4k1r7Y0KlbjVBXYNo9qMzgwmC2Giwbu0dfXJHWCxDiPVj9gQvlfw7AO9AKAmac9sQrANNwl1nhPMVACjvRnd2XiJGuWwfiqP+I4dBQCTlnEYQaHsfsqXgvZGx9PvCA2D9D55RwT4lkXt6ALmDAxCRgHH6jGAnAEbYmDwl/9G9sUxzIH0S5mHY2j/XwJlyUHh+DdLfydm1kubVR5TPG9YLcY6m4J3z5itxwhAEMMME4SkAjM98RnRb3mS4tEeVd5G+7Yvv3GaM/kWjW3O+h4kZUkmA3yMh/w4AUC5DlMtFAzC9+LtXj3HkPy+UB8zn1hCRDqoQ0v3hHQ+e/lEQ8fYHoBZ5bZeHYtEAwImxvX/HWn9b5HJgmHnpe7FkeKdTkKdWUdru5SIm2FkCqQNZFJ4bghsT7KA+8EbiWdtuJtXNR8nTf/ZFCKudnms9z8yJLPIja2wxbSbWsfowrw0GoBjkE1JHM3aOzVUjxgwiQdxqQejwzZUaakeUSmKktDMCQJ6T+TXpZtdz5GtQ58A9gYxQKXDUHN3/2DWjAFDeXTTChp8smc5S/ImJghAghbllfQVsG0OXhfj1Wx84ctPokxRuf2Dfyiv1EjF2s8TnPx+S4d8xrWZdOK6C6cCFxPFd2ZLwjmRs5tqHeH20kVSwZwzUOy7y/8NWsAM2pNHzRgTcG90IASsLlFTF97IXlxDlroFsSeQPDCL7dAHUENZ49GtF+VIjLi5Uxz1451IwsvMkY7Ah5Ui47lFC9CoAIOZsuwRK6va2//y5f0nk/Ij2q+36jVlhoznK6MAQ5J8CQLHIEkSWtyhveYQBIDp36n+Ao2elm8M8iWhlokYgnOxNbmbwdzf9o7/2Rp/cEaK4e+Vp6F1kwCyODW/7BwL9FqUzgBQaHaY+C4b3XhrqPbX6M68WgjizhjPGaoI9W0DhxSGoeo9XsMchK9sPHdPJAt1GRF2Pps2KJD1XGaTfS6Hw9Bp4B9OWJHc+5B75xUiKCwNC6q0MKBIdU9+JyFA6DQ78kaPfe89BMIskWtINbH+AVblM+vYvvv1PwPyI0S2AmefuJMhGODmwDkYjcfLbwLTNsJanVDLFIstX/mRbXTC+YUwIYB5kOgAwuzqoRFJlfnDwlu/+dQBAHBZbzMVeBtpj9SeP/Xuu1/9O5PIOmD+oy5p4H76E92Y67h3+0UL5AAwBjvVGnDdSKDy1Ful3M2DRwxLxccioJ1Jn4+8XvdgXPfaIjGNAmpA9XEB2ZBDyXKxjlbQJ+ggXIvFCTrjwzqdmLS5kYzR5acc0m++i2XwcAFAuU7f4j+ESq9EnKdz+xWO3KJV+jITjsonCuUJXYNg0ZDBYiN9/6dE7JotFliiVbAFi8rrEokycP/ptgP9f6eUFMIeyFgCAwMxC+xUw4xe3f/HUTwPEw6UuJMMSmeE9e9SpH/zBhgnCn+MweIMyWYcvNiJx5pV3JgV1RoHdHt0MewEGMwh2gexTA8gd6m2Cvec4h2QV9YpHxACTTc91p1xLlO/LATSjaVovjLMXMUPiJHU0bcOlF3shDENKSQjR4ij6yvHv+9RL2LNHYdeurvQ1LcYpu7f8s1fXkjP4DVLp603YCGF7Q84B1sLNS5jgWWf82P8NAOUt01c7HfsqlcxwidWbf/rdFUTNx0zk+xBK8TxCWQQIsNGAIUj1O3d+8eRnR0oUbX+AV5wPGdm5MwKzPPG921+lVvizAM4L11VIZCaTzCtfwnsrbR98TyTW9TgMgT0AEkjNqGBnx1gysdsGOCHQAauDxei+B5KMKRTogZziGUR53PDpWA6FPUNwjru2ovzDTpTPF3FxoXrbhXf+AxlZTIKMSGeAMPjqic9s/RaYCTuHu9MUu1QS5fIuvf2BP3Cya6/6v0h5w9qvRJiH8WDAQChhohaHof/YC3981/nh0h6F0jQ/fsHWOVKCRonF6OPX/XcCf1N5eRDE/C6cSLIOQqFSWeGkf+/2Lx3bMPokhcOlPSufmUVksHu3PLpz6//HzcYvggRDSMHMBiCwNHDPpqDec6z30S1XvXPZTu/BYLqC/WRcwX4kj0RHrOsV7PFJcFrKvcsbdvJs454gXUWbKNeQDYXC6BAyzxRAzYQoR9dv14LQbXVjwaBAIHUsY8Ol7fR/jiiXV6bZ/NaxT9/2G/GrqTsDZorr/ADvf/llIdT/EbWm4lU8NwjQyssLCPnHL3/9ut1gppGHLzSEF30QcSLvG0TV39ZB9ZhQaQfz7+/m6LAakEpvVjT4xOaffC0/UtoZobTiRYaMw4cZJRbHd97xTeP7vyNyWSKAmQyLSMI7kbYn1W612SQAAQE+ur8YFoKkgj2WiE8/l0f+xRkV7MlruoZeUr9lTPcE6SKlwNNEeeq9DApPr4H7qu20yS76y+tISmpaYobaQHcGwq71QtwJm+pOzJHI5h1utUb1ZOVfAMDwnj0qadi00hguQY6Udkbbv3jqn0A6/9qEDcRSVfPZjyOh0o4OG+8E4eRvAUCxjA/UsHzgg8pl0sMlVq88seGYMfyrIApAUs47SMHk6NZkRNL9x7n84Fen/3+Fl0+pZPBdZQKAVvj+I+z7/1XmByVLo50Jx/Zp7pbiLgHkE6INPqKPBaC6sEakj9bxdAW7gftGCoWnut+DnePfKOwBAn0GKEJ3PJCEKFcGIiLkDg0g99QgxERMlAPdDz0uBHEUkBqE4OYW9FURyO/Ss07qQhoC3jspQLNGKqVgzGmjg4fe+aH7Tg3v2aNGdu7sSnPlYpHlSImiO3/mna3kpB8lkoo5iuYkzRGHrkhIkIgM63918ImNrw2XWJV30QeiUbPJ9rZdru1fOvdvhEr/sg6qIYxRc6d8AYiDHaRSMGHzoQNPXPv49gf2OaNP7gjn8d4lRZFZlon0xr/f/zHkcn8FyXfknpGRezCrONeF1F0CEAKcNqh8z3loz6Dw4iCcI6npFqB95JAAsO68b6VD/FsbaHy8BpPSNvYPrMwCj4lhYkLhhSGrFJvtcmq2YFCToK+MMPXpcRjPxKTrCnx3fD9YMrxxD5lX8lAnXFtNLtFfhgOIw5MEahL8W5uo3jEB72wKub8fstfTDQUJYlBIMGljqt83RXoIEdX1jx/97NZvgVmCPrjhrgSKRZblMuntXzp7NQn1F0TOPTqYimx93xxgMEhE0ss7Omr82/2Prv+X8Q8uGYabxZUhTsJOU/qFR3RQ/X+UW3BA8w5lCQARWEM4qd/c9uCp7xt9ckdXigzLRBp79qhj/9OdJ5rR2c87Z+Vp58yggstRt44uFBL872ogykVgZVD55CT82xqghugN8nehSHqwJwT7M2vgnvNsltZKdnRMTqjRJed6d0CwHIhZIRI9JsqTIrfsWznb8Okdd4aO1fIPY0kh2Koa+4TWjhqq2yYBBvx1PoLNLVCzaxQD2AGLKcXps2tIa/83j35267dKdu/szl0usSiXSW9/YJ/DxnyNhHePDioRIOaXFUuIlJd3dFD5bxX94q8BNotrths8eyysRDYr6/Ef8MOw8iUTNcekm3Pi6vP5QLEOQyKVdVT2sa0/c3Tz6JM7wmKRVz69d+fOaLjE6vS9976Yehk/D98wK6lgsLInBMGgFkFfFaJ5QwMwBBFKsGTUtk2htb1uXXJtX9tXmNmDPZGIfzPXTpleKYKdGF2Ojc+E9TaSupRlj2IxYBs+GTh1hYEXhpB5rmAbPiXeWJ9NKwgGQgIMoXF3BbVPVGzapxaAYLQ21cEDxvKJXTEiJhKDA9I95P53/9mz/xYAxsa6Ve/BVEr+lrr2V6WbK0b+ZJL6Mo/Zx5F0c46JWmNhGPzcm4//gD9cYlUuz55+3JFMGSlRNFxidfAbHz/KJniQgXMkvemU2LnhmKAeklSbHW/gsdt//NhguUy62IVK9ZGHoYu7Wb7yS5v+jFPRV2UqC2ZbxLJigzAAQGhtbkCnNUgTWHJ7c6l91xQad1ft6wLqPyPSJtgZiAiZLhDsPdMLBEBCord7giwnZuhYpd9No/DUGhsWTRmbsNkziQULQBwahQAa91ZQv6lm5fENgYXNtgsLAfzNDVDQlWceCifvMII36Kz5hTP/4vvrxd0sO224y4nh0ogslcjsePD9HyGZ/iUT1hIRmrlJc2ZN0lMMnGMTPHjwGx87OlxiNVKijg7DnB88UqKouJvl6GNX7zFh/SsgaSCkmE99CACAoHRrUguV+j5ZSP0mYEW4Vjwzi4jLh+32Vb3qL37DeMG3VHpQWIpzBTZqwSBfILw+gH9N88JYeKLaagj1m6qo3zdlu7z5fWhEAGsAFaxE/Bsp5EfWIH0yDZbL3IOdGNACCEVvFO0l4UhDWDZfNyHKXQPhC+QODiD71CDElARn4wH0W8gKaPNHJs2o3T+Jxg01iEjYZISZhoKB5g0N6PVR29isCBiahOOwiRrGn3po339c//psRPNKYLi0R42UdkY7fv7cp9hxHiUYj43WQAeJ9hgMNhBSgIQxYf0ro49dvae425Lwc713Xre7vOsRLpVY7H/s6j8yuvnb0skRgXheUicAWeXeiiGV+entD536MihJF17pzCwyxSLLNx96yK+qoz+nRes56RUcMC0/ua8JrBj+x+vQziXIVALABBEJNG9ooHb/JDhrQE3Rn0Yk0dPKGsiKRPapQeQPDkL4y1jBToBsCVCDYAOl3T51W8+SQgJFYun7W8U6VsaxDZ8Kz6xB6kAWkIgbPi3hd60khM1u0ms0ap+ZQOvqJkQU74MXrRnSAlEugn9z03pZKxNQMCBIEgqs/V/d/8QNfzuf0/pyITEen/zCm9ez0X8gSF1romYEe4zr/GYGE4ilkyOjW7+9/7Gr/6hUYlHe9ci8buQ87XXJlOK/nX3v+K+zbv2l9Abl/KRO4u8xhln7ECpbuvPnTv/PNl145eVOkjTlN0o7zoVDEz+tqfHuAmtdFo7YFY8+5qN1RQtitkycRDspFGhd1UTt/gnodZFN8+1HIwJME+wK8A5kbAV7TLAvdQ92BuBMuhBNASynp7OQAUlL/qqKY4ezFDYtNr7sxA2f3sgjv2fQioL2e8MnAVBdILoqRPXTk/DXtiASj3KWSyJD8K9rWi8kEMt8bmAAMNIbBJvo9/c//uRjtsBuhfnUGFamZGdULO6W2sk/Kpz87TqohfMmzcFaeoOSdesvz753/NcBoAQAKM3r+DF/hy8+vZ8s39PUYfBl5vCA9ArqkmKFlwKRZBNGDM4L6T269aG3b004lnmPYYlgZVb2OQd/6aaDOtd4yIggIiiF5Qg0EKz34Ri0bmrEIZwO8dp4oYhAwh8KUL1vAtF1IagmeiezaKFIaLysgXpvBsGOJapgZwCCIUIB512vtyr842fmnHbjg8MiDVsSlXI0nKqDwotDSD+fn+ae+pEoB+JnxqAaIbohQPWeCUT5ACKQnZ9lXKgZZSL4m5rxCl7GG8AUKm9AsfH/XlPtl4GSwSPoGmle3lJkADh63c5fkyr7wyaoRGBW8ybNvYJiDg/oMPjyyfI9TSuUOP/CxwVFDJPT+4GvX3NCt6o/yyY6K5yUwrxP76RM0AhJuDcp8r5+28+8MmSNyMrLnYw+uT0qguXLpQ1/iRx+hTwPVk1uiX1gsplX4YYA/lp//lXSwnoiYS5E9Z4JhDf7ccEhemdzXAiSkFbaxAR7LBFfdWBcvbiNlW3aqvd+yrYl7qV+3Yl660k3bs61iOtMiHJiZN7OIr8nJsrTfd7wKY7tUV0g3OyjcvcEokxk64jmuUORJvjXNaCviGJCfVn281C4GUdHzROhX//CS49unBwusVrIhruUKBYhUCKz40vnPkfC/SUT1mBYt9uwz4FIqJRiE53VrerPHvj6NSdsxtXCOJwFU07J6f3A16/ba8Lal9logMT8T+/EjvYroXTz97vOFf/OfmY35E6IyyUb59v/f1757+BGT8rUgACJCEt1hIlrANhl+BubNuOqk/dxMWIjor0IlU9OwL+1CWpQf9aKJJhZwf56CoWRNUi/k7VSG5cRdqK4d7dsOEgfysZtiXvoCB6PhyJC+uW87akSh54W9BlspddFSyD/8gAyTw+AasKm5/ZzwyfBAFvOw9/WQGXHBIyrIaL5G48kCSVK6dgLWYbFwdAklGN06Juo8dDLX7/ujS3FMbdbvMf2B/Y55TLp7V84cR8Yv8s6cplNRHM1h7LQIKHYaJiw9uUDX79u7/YH9jmXcy2XtWmPPrk9KhZZ7n/i+v8EY74qnSQldj7TmAA2yrQqWjjpn9rxpXNfufCHK4hSyRR3W7q1efsrvxDJ2oj08g54ifgQss1nousDBOtal5fKGacrsmRUb59Ea0cd1OrTWpEESQ/2nIGoCmSfHkDu4CBEIGz73PkQ7GyNh1EGZAi5gwXI9x2rGNxt4cKLwQROxfUx+wYhWxLanXGdl7rWGT9jYaXXU++nUPiHNfAOZgAXQC95WpcDwYAmkC/Q/GQd1a1TYMEgvQDjMQPEBP/qpuUNlzINnplBRCQ9CKJfO/DEDf91uLRHjZW3BEvzBQuD7e2xI9z6z49cB+V9g5S3liM/BObRUpzt1UgnCxjz1f1PXP+fikWWo09uv6w97zJP/cSJJvz56qu/AdZ/7qSHxLwr1YnIQJOJfECoX/vUQ2f+aVy4uPKk+i5btTm2a2ctKEz9rObKCelkF1IweWkQ2iEHf0MTRvHlNzkSaIe+ap+YQvPuijUgYZ+m+SaYQbCnXsqg8OwQvPMpGBXrac3cYC/6xcTQroYIBXIvDcJ9PQ7l9OrtiAUo1QkXhb1DcCddm0gws998wgXF18CS2w2fcq8XkBsZhHrfsV5Hkh7crxAMBASKgOZ3V1G/ZSo+FFzmGom5EJ2JEGxo2bWxVOdREpFMDQpC9If7Hl1noyYPd0uenYX1FIrSza35mnTzt+qgGoLm09sDACFy0kMCrP/8fPXV3wCS/h6XF/O7/LBRTKof/+bOVmP83S+ZsPWidPMOGPNKiSWQYB1FYM5qIR6/48Gj27rVQ2T0yR3hcInV2K/cfFgX8Hmj9BSRq2yW2eVOQpt5Za6OEKxvLV4hVtgTFhlCbVMNjfsqMwqtenXXnAeSCvasgTrlIr9nELk38xARwTjGGhNlwNLAyPjfjgYxrLLsM2vgjaVj49HjGypbolu96yK/Zw1yrxagKna6G8fAuMb+6djrFYFA+r00BvYOIf2d3DSH1K9EeYJk3ipG/b4Kapuqtg5qIeHdWcAA/GubMIMaFGAp1kYg3YJjwto/iPDILwDgpB/4Yj944Zie4Du+/Af/hlTqhyO/osHz8DwAgBFKt+AY3Xqxqcd/7vg3d7YWSppfjEWvuO0PsDP6JIV3/syJ7eSm/4aEWm+iVpyDPC8E0h1wdVTfa6j+Ay89unGyuJtlNwpyEhGyO/71mZ+WTe/rxvfBiDDPuOKFIAa1BBr3VVDfWJtORVws4mlrHI3U6TSyzw9AVIUVyevnEynQlq2gkBBdFyC43kc0EMJ4Oo6VE0QgoKYcOO95UO+4oCjuotdPG6oAEAIUEMyAhr4yRDQYwaSsdhiFBFlTUGcdyLPK8mjpPhXavBgStkAwq1G/u4LWVU27NoDFrw+2v7Fk5F8agvdKGpxbRD0MIxJOWrGJTvpB9R8f+saNryT73SJHellIak22P3T6n5Nw/oMxAZiNmef+1CbNOWj+o/3f+NjoUlzLkuw4yUC2f/Gd/51k+o+N0ZI5MkTz3XgplKkBx4TNb44+uvanANhK9ZXObiiVBEoPM0B8+7868+8dP//zujUVwZalzf9eEYAAMEMaleHz0J4GmSXMT28bEQN33EXu+UHIc8r26Oh3I5Jk5DStsCSnTDvMBQNQi2wvCMTFcrJPDWd8gKWQ4nALrGGh+HoMABn36+hH9dxLIS4QNGs0qndPIljrL53xSGDQLqzM7xlq1+Is1PAy2AhSgqTX1Mb/3IGvXflfuqUoDljSfPTJHeH2L5y47/9v783j67jK+//Pc86ZuYt0JTmOHa/ZQyiGxJYMhCVULhQKLfQL9OpLS/NlrUm8OwlbCvEkJSUsIfEa8JdAKEtBt5SyNHxpCbpAfxCIJTkJTiCrHcd2HMfWfpeZc87z+2PutRXjJCPH0kj2vF8vv2Qt92pGM3Oec87neZ4P3MyPANHMxo80UWeun4vUrMvv6d40/1snKhCekMyn7q3Q8Fh0b5r/LQZdL90GCBJRK9UBZmUqA5aE897Fa57+OADUja0mFM+z+c7wb7LvRds/aUT/f9VqXca2Gqq1eQ7OqkBnTnDwAEZ3W9mjAAAgAElEQVTViggE03wMXdoHPadWKzLV7Xnr6b5Ze3hbSpQExICEGBahlpC2YbCcygVz9UQCJ9y+46wFpyzYDTPUuIHDVeVU7J57LASDhgXMGRpDr+2Df1oVwh+Hdv81LSSY5kPPDkIx/TiihyBphZMF2L+hd/0Z34XH4niF5hdKu9cViuYr75kHt3EzyXQzGz+yaC5IsHAbwEz/1L1p/rfCczkxiUInaLg5sh/YvX76p6ytfk2mm2UoqkdKzCIwM+syGPAWLX/8XWFL4onXQwodZNq9LrX//7xpxJ8+ssyK0g7p5lRkUZ0ABASbs6jOqYxvFBQABQK6McDQqw8hOL8KGq7lwE/RcfUwthYlJcJB1mWwg3A2CZr6OkAdRu1cCKDav3pa7slwjoQweIwIBOf4GHztIfgt/vNWl7+Q30dMsI6Bf2Y57HYw5vcgLVJNyurSv2y7ZeYNo74x8VfDY1H0lugFy3Y0uu7ZW4TKXGT9oUie5mFWArRMN0trKv/SvX76EYO/E3QuJ26+Wmv/DsD6lT1rjT/0G5lqcoCIyySCZDYBkVTkpNdffPnORd1bKRYPkbA1AMvffeSCR4LG8hWs7H4S6dpK5Hnu+Hrq7jwfOheMfxfUWhAxaYPBV/Sh+rIyUBJhT6CpWrk+mmNlYZ2snGznV9+OHBbwL6xg6JJD0BkdrjwExnWSQ1bAn1GFnW7GVljIrKWbc9gf/rW1g1cD4QoglmLBUS6u6dQZNxA5bzWV/kgNEkMokKkmx1SHflsZ2r8WgD3RhY8ndMOjnkV1360X9UGXl1ld2SdUekye6taUfamyM1WmactFlz88My4PkbDtPMt7rz3zl9opXQVFFsIhPFf/r1rqLiTgz63ASntCMkueFxE2lWPJGLq4H9W2kVAnsDSxhk4JCXUIYYHgiED1ohKG2vrDQsixFAi+gN9dT+kN5vmhxhTlGWQ2wskqtvoJy3pl78YLDoTCdRy2tEzt10HCI9u6cu+HCHKVqfaDKfK6TQuVdqyu7OOgsmzHbQsOtS3l4yoWfC5O+KXs3kpBu8eqe/PZPYLsGpAok5Aqcvt3hmuqg1rI9CVu5rSbFng73EKBDDxvwnf3C52wnsdi+w1zvqlT5c/JVIOgcHvh2ENybfVhpmsEp/kT64Ndq8YFQl+R8iVDoFqmD2QSQRImkLqDYIVQWTyCoYtrBYITETxGwQD82ZVQS3p+K2FDwhEg4VvrX92zYU53e3tXjB12UfM0f/xSku6NNRlWU4S/IIMtkVQgUWaya3puPas7LD488dlj43I5ix5peJ64++aZndYE60hlICA5cp8phtSVPibh/H364PRPAkD+JetowhP9idjbUSAAGLjgQU+LwX8X6SaJZ2vbwgA0IZjjw2R0WFE7kUdMo2pFLhjCyGsHweokqBVJmDoI1BwEgdKrhzH8klEFghPdrMgSgmYfZmYAquJZt7GYww1f4WTI2tKne9bP/A48FsViPMWC+XzoxbFw1e4LZKb5VhJuC5tqtNIIZhaQTE4G1gTrem6e2QnPE+MVCMfxkq4DAPSsn/E51pXbRLpJRu4zRSAisiYYAaT6ROvKve8OK8a7J7zpIgodJp9nufN9Syr2DL3KqspvpJv74y7E9crzjIU/qxJfTRsBdV+R0tkjGH7dAGzdVyRZiSSMJ/UCQQmMvHYQIyewQHDM1Fbk1rEI5lSfs18YERuVahFWj/xrz55f/vOo70z4A5PPd8pCgczCNY+1KNG4GUItCEVzijL2MUhokW6SrCu39ayf8bnwy+vG7XjHL4B4ZOtddkf0wY8af/hXMpUbix4iwRwQCQiVuenilbtfEVaMT3zn3rALcZe658r5e7Rz6Aqr/CeEyv5RZhb5AuZ0A90SvPDK8xdCvayg5isy9Lo+2NOmuK9IwuRGhIWznLEYubQf5TNHwkyrOILHUfgzqrCNYRfoYxxLIN1mxcb/jTX+1Sh0+C+0Ovu48VgUFtzPACBt6tPCSf25qQ7o6KI5tHRzjqkO/2pEH/woMP4JAON+aevVk4tX7lkEp/F7AJ9l/REDivhHYQQylXOYzW8dHnrHr2+ev6deMT7Oh/5H1M/lIu/Rv3EGc99GwJKhDQAJCoukyouHMfySwVAsjDuVdlQXV2fQQeNvW6D2OlO/g2vC5EKGYrk5zWDkkn5UTx+HAsHjodaIkiyh+VfToHalji621UKlFUg8qU35bdvXz767vb1LFYvxiOb5PEShQKZ19f4PCel+0eqqrUnHkTzNhZuVgNiFYPjt2zbO7Z0Il8Rx35UseqTb27vUto1ze4nLKwEMk3QkOGr7dzjGH9QknFdUrbt+3tpfZUJRfaLbvwPFdTDt7V3qXu/cf7OpyvWUSgNMBIKFDdtNBDOrE31Yz0694DAQCJoCDL2mD8G51bDgECdBrUhC/NQKBPVsjaFL+44Ej/Go8Rgr9W0sZRHMrjXOPTJpOtLS3B/68Pb1s+9u9zim4AHkO8Pg0bZy/xuFSN/IRgPWMCIFD5hwTKVh4vLKbRvn9tZ1lPE+7gkZhIvFduN5LO6+edYPWZc+QdIFSNSTXp8fJmmqA0Y6De+cac7xgLrt4sSL6sX2n1sA6H3jw/9sXf92mW4K66F9wJyuETQFx9e2fbwghL4iWkCnNQZf2Qf/peVwO4uTIJJwnNQLBIcF9Nl+WMja5Ic1HpPwnvKn++HqI9zGYgAknAZYE3y6Z9P8b+Q7WRa9eGxp270uVeggc/HafQug3M0gtLD1dcRdGgsSRNIFm9In7r551g89j0WhMDH9CyZoFk/sAQAzdW+Ys94Glf8r07l6k4ZIojqDyQQjlmT66rZV+97jeWTbveKE14cc9hBZskRX3f1XWVUuylSzgqFAzwpgXXv8LanHEwqDCCvG4KJ+VOq1InVfkWQ7KyEq9RqPWoHg4Cv7YDI6XHlMwlY6ZAg6F8BM16AwgGiZbhHg4Dt9w9XrAaBw//G3NH8hhIFriV743t4WacStQrrn22AkiCyaA1amm4Q1lf/bvWHOejCTB2CizmXiLrdHNt8R/j6qDlzD2g8H3oiiOoEEjGaCFUJmP7N4zf7XFL0lsdjhhu1OWO3wFhzym/ZeYbm0S2SzTnB6NQBNtsgxitG+IgsGUH7l0BFfkYkPxQlTkVprKSqPKhB0zYTXeETmcGsTC31GAFj40sk5rCu9bAfX7rz9nBfc0vy48VjUu47Lpjmflm7uUlMdHEsncy1TzYq1X6TywDUAkO/AhDahndBLXs9m6t564dO2Wl7GVj8snGx08yYiaYOKhqAzGHTrouV7z4oriByuur/mot9jpLpcnzFSMU1wYO0L8BCZAGr7wmQJwy8aCn1FZFIrkhCB2p4BVQmVxcNhgaA8fgfBCYWA4PSqpkzKtX653/iDy7tvOXtf3Ro2niMKaV1zYA2p9OXWHzIAR2zywlo4WYetfthWS8u6t174dHt715g9zV8osYx09eyAi1fufaMS7ncBbmQTGFDkeXAgUy2O8Qd/eGjwgY66MUosmVldrIpLSF/4vUdWBzODW6yuMIwFaDIvRXDYO8E6HPqK/KoJYkSG+8RxpiAnTE5qXi2whPIrhzBybow1HmOFAZbWyqormu86g+XD9oPb/mXWVyaDt8fi1U++DSL1Lba6IfIYWBfNQcPa+u+8Z+Oc/5qIjKtjEdOlZ6qX6i9asWeldLIbrK5wqOpGyjpgCKGlm3OsX/p894YZHw57YwMT7hTGte40ID7nVzs2kpNewcODmpnVpN7OAp7pK3IwhcZfN0MeOkl8RRJOHIKBmoNg6ZIhlM4cgTD1DsJxH1wkGAQrUg0y82j6UzvefeYnQ7+heHSPw94eK3a/DMK9g1Rqng1GohYLWoBIqDSZoLSqd9PcjWHwgInjXGJaeBIX18HAY9G7ae5mBm+RqeZ6LXeEl4OYrTT+sBXKXdO25sAHAeK6xjKhEDE6CwIAgrt2fMSWSz+hXJOCIH/Cj2WsjErz9adXMXxpX+ihMJwUHCbUEKG5F2cYw68bCIOHnhwFgmNAi1yTZNZf2+Gc6R35chyV5iy7ty4Ozl26rRkqvVm4DfNsUIoomjMAWJluJrb61t5NczfDY1FcF0/wAOLcuTyyUrBKH/w4bPATmWpRUdu/EyBgNVurFUh8tnXFE38WeohMfPt3dHQYdHWpJ67sKHO5dAWPDD8o0lkXzLEsj8dM3ZyqKcDQaw4hOK9WK3Iy+IokHD91B8FpBsOv60NldikMHsDUuS+YA9HY6NjSyF3m0MG16IBBV0zt2T1P1LfZT2s47ybpNF5qqkPRjKEAhO3ZWxRM8BNl+z+GehlELP7sIfFKXzUPkd9svGCwUu5fxrr0oHAaHAARPURIsqkGRM40Eu6WhZc/dnbY7oQnvmfWkiW6bds2Z9ebXvmYDYLL2eg+clMOWxtLbvmYqfuKZAyGXtkHf0FSK3JKUzOBMrMCDF16CNXpVQhfTo4CwYgws6ZUxuGqv5d9f/njf3VpX9u2bQ6WxFRpvmMdAUDblYc+SkJ+QFf6LdgqRPuLBsLJOqxLD1bK/ct+s/GCwRPt7XE8TIpboS5mLVq56w1Eqe+TkFnWfvR2J4Av0y2uDcr/OfCHb77z4R+vqiLPEnFkVzBLEJlz/uf+Dwglv2iqVQFjAJr0eSohjDCzxgIN9zchvb3hiPf487fETpjq1E2gag6Cw4v7obOTt8bjWWG2kFJQKl3hqv/enX/6su+0d3WpYizB44ju0bpy9zuI3M5w8qsjiuZsSLmSrSkxV/+6d+NZP40zAWA0k2Y4qGcRtK3ev4yEu9nqCnNoyRXhtmWAhJZuTrGu3rLtlulrj1SpxyCqAwARn/OL+z5L2eyHQ1EdEpPo7/2c1HoIAUDDw41Ib2sMr4LDibh+MlN/YkYIwYUVDC0amNw1Hs8OkyBDmQZlq6Xrdl56sQfmsH9PDNs9h8e2pY+8DOmmO0iqeVaXI9V7hE9cKJqz9Zd3rz9jS1wZV8di0twW9TYC3evP2ALgZplqJiKKVqkOApiFqQ4BJNa0rt63AiBu92IojyNiFEJRPfuzBz5hh4e+JxqbFEXvQhw/9VoRRlgr8prB8E7xk1qRkxYKuxFQiVC9qITBxf1hV4WpFzwAQFNDTtnSyLd3Xnrx9Ye/GkPwqPekevHyB6ZTw2m3Cjczz+pyNN2DwUTChAlG9uba2Ii4Wq4ci0l0axDn850SAJ7u/Y9rbFD60Vgq1QEIgDVbDYL8zMLle/48jPrxiOrtXV1qh9fhB6XKKlMa6aVsg8PWTqkgAiYIE/qKjFzaD07bsP1JEkROLuoOgtWjHQQn3gTqhcLWapFtdLhUupsrg1cCsO1dXQoUU6V5gcyCfKfbmJpzC6n0a8JKc442JhG0TDU5Nhj5z6d7fxBWmuc7ZVwZV8diUt0ehUKHaVu6zdlZfF/FVIdWmurQQ9JpjC6qA4pNEAiZyio3vWnh5Q/EJqoXlyzR7V1das9bLnkCxFcw816RyagpI6oDh9tWiECgPLuE4df1w7YYUCkJIicNowoES68axPCfxOcg+EJha43IZBSz2cu6unLXX7xuX3y6B1N77S+YnvWajxGJv9eVPgtmGXEnO5BOo2OqQw8FIwdX7iy+rxJWzXdMqvFjUm5o1wWnRSv3vEGoTCesncamOhZRPZCpZod19cfSHHzXbzZeMBgWDsUwC6mJ6mf9vPfvZCpzu636io22FP1c4ucoX5Hcb1sg674iiSYydak5CLICSpcMonTmCMhMkeryo2CwIaGEcB3Dler7Hluy8Bv1Zy+O46nrFK0rd7+DRPo7zFbBmuiiuUxJCNFnjZ/v3TDrzvqYOAGHPiYm5Ryje+viIJ9n2btx7k8J+sNCKAMhBUdt/w52TGXAkEq9WctpNwIgrAMfFrgnFgtmsetPF33LVqs3UCZNEIRYltTHS70lfM1XZPDVfdBnV0GlRBOZstSCh80whi/tR+nMYQgtpmTwQF0tyGSIA/+zteBR7/Y94Yw20ZOqcT0JpcBGRwkeDFgIKUgoQ9Af7t0w68568eFEHPtYmZQBBAAKnbAA07abZ97GVn9GurlQVOeIojqBTHWQSThXLFq1dy2IuP06yDg8ROr/PdseugGl8tdlQ5Nka6dOAKlTCyImqzH0in7ouUHotT55tmQTokAM8gk2ZzH8un5U5pQhdG1sm3rBA8xsZK5JcKn0b/xIzz8d/kaMovlFKx+aR27jlyCceVaXonXYZTARWenmiI3/2W03z7wNYArHwsnJpA0gIOJ8Pjw+Lu/0jD/0Q+k2K9CYRHXDxocQ7qcuXrn3jUWPdEyZWRadnbK4ZIkWVVzNQfBLmWtSU6ZSfTS1gkOdMRhZNDTapCdhKkAALIEJKC0eQnVG+YgJ1JS8hhzIxpyCCbZJxtqd73tfBZ2dMo4Vfj7fKUPRfIfriGlfgHBebvyBqD2uQtHcbVbGH/xRZV/RC98TIs5K8+dj8gYQ1Nu/s+reujiQQXUN68rvpNPogCO2fwcUW1+TcDKOymxsW7H3xXWL3XE98GNRa3fyyJsufgqlkRWs9S5KZx2Ofi6Th9pKxJ9WRfVFZZBPySpkqkAMKhP8CyqonFGatA6CUWBmTW7KYaOfNsOlVQ8vufgJdHUpdMQgNDPTggV5BoD0rNM+JlQqbyoDBhxxwsqspdPosK78Tgb+6h2FDr/d4wlvzz5WpsStc1iQWvvUpZJSBWv1GawrYxDVWctUi2Lj3yn8kf/9283zDoazhVhuNAUiPf9nPW9TrluAtS5rPZYEgckBA1ZZpPpSyN05LaxSl0icDSczhNBAjBhDS/pRnVGZehXmdSwsJAlyHHBQef/O9rav1q0VYjmeWueL1lX7OoRIf4NtoJi1RRSrNmZDKi2FUPu1GenoXT/nF5OpWPC5mBK3TtEjjTzLnptn/lIHw2uJhIZQAohaUEPSVPoNSff1WjifB0CFzryFx3F07zXtXax2/1nrD2w1+EdyHACQoMm7z/lskCHohgDmdA3ykaxCJjvEoIBgphvopmByWi9Hg0HMItsAq/3P72xv+2q+k2WxPS5Pc1YokFm4Yv9rpMquB7HDNogWPAADoQSR0DoYXtu7fs4vUNNRxvu4TwRTIoAAADph4bHo3Tj3X21Q/ox0G8KN3EiiOghEZPxBK9zse9tW7bsKRJzfAZpwUR3gYjsMmGnXL7//BQT6i7KpGcRsQzuUqQMBsIphm0ySzjslIMACtknDOnYqx3stmpql1frfg0GzDgAK918Xd5uSM6VSW0A0ywZlHWlHgcFggnQbyAblz/RunPuv8FhgEovmRzN1AggR53cUCABS+3feYIPK91SmWYI46qxDwDKzLoNU9trW1U/+VaFApr29GE+7E4DgeRbV6ses7/8X5ZoVKHLB5OSBGDZVv9+TIDKpqQ2vnKr5KE3FlF2CL7INDlcqvwv6B1bvfeviEpglPC8G0by2UsjnJacbbhEqc5HxhzQoqmjORmWapQ0q30vt33kDAOR3FGgyi+ZHM3UCCMJK9Xye5a8Lry5XygNr2ATd0m1S0T3VIdkGGsw5IdwNrav3X1QsLtGxtH8nsujqUo/++eIBUxq+gv3qQyLT4BCmYGbWlLndT3HqwWL09ZpC146YNSnX5Wp1ECMjy/e85ZIn8KVtTjzFgkyFQrhSaJu7ZZ10c2+3/qAGj0GXdZsUm6C7Uh5Y8+vCq8uhLffkqjR/PqZUAAGOZGbt2Hre46bc/yFrgn1CZcbQM4uUDUY0CfccWHxx0cqHZhQ90vlOnviVyJIlekHnDvfxN7z8UVOqLLN+tQTlOmwjr6piJbRVJ4hqPZNnCo1GpzDk1+1op9D1YlgmUiACG/ORx970il+0bdvm4EPxFNiFJQbErWuefi8J9+PGH2bLRoAirem0UBllTbDXlPs/tGPreY9PhYyrYzHlAggQiurtHqueW8/qZltaY62xIKnAEUU0Imn8QS1TuVcRNd0EAIUOMnGI6js6FvjtXawef0PrT9nyhyEESJAET4F9UAKEFhADKqlInxJwmII9pCC0mHj173hhBhGsaMwBgm7auWThl8BM3W1tMXl7sFMokFm4Yne7gPg820DBakug5x8/GAYklWVj2ZbW9tx6VvdUybg6FlMygABAcR1MPs+yZ8O8TmJ9g3QawAQCR1KiCYCw/pCWTuaytrVPf+zItyb+sTosqrdfvAWCbhK5JhBhcovqDEAw1IiEPCjD/qJTZkQ6RWECOwx5UEINq8OeL5MeQT7lmpQtl+947O7//kcAQKEQS4Fd2JOKgpcue3i+EM4Wkmo6Gz+IJpozM4Gk0wCy+oaeDfM683mWoaf51GTKBhAQcWFBuGcy8FDvDcT6X510iwBFjuTCWi1sUAGRvHbx6oPvDC12Y/IQqW0CZX9y3zWoVv6Dck0KgvwJP5Yo8JEPqScyYXdexckO1mSHAajQ59zdm37m1ycrzIFIZ10ujfyBy6UVWLWqGluxYL5Tdm9dHCzId7qpVMtGmWr6E+OPBAAitGdngEg76RbB1v/2wEO9NwBAYUE8JlcniqkbQADAI5vPs3z4x2+pmuH9q1hX7pKpXOT270QkQlEdGWazqW35ztb69tg4H/mxDsbiS9ucHV6H71cGVtjS8A7KNLiYjKJ6rTNvqi8F96FMmNUzZR+BUwwmcIrhPpSB2+/CKjtprx2zNXBch40ZIKNX7HrTKx+L09MchbwFgPT8N9wgZfavTXVAg6OOFRRIN+ewrtxl+neuevjHb6nm8yzj9jR/oUztAILR7U4ufDqoDlxhg8o+odIOoorqRMoG5UC42VmQmVvblv7h9KJHOp+PQVT/0OKgbds254nXv3oP+foK0uZpclIO8+TxECELsLKQvkD2nly4+nA42b6aKjAAhyGGBbL3NkH4AlZZTLphjGFJKiLXtQR8/NElrT8Fs+xeHI9oHu5MELeu2r8UjKt1dQDMPAbRPO1YXdkXVAeu6P1q64HQ22PqieZHM+UDCBCK6m1Ltznbt5yznXV1DVtjxiaqs2OqQ4Fwc6+ghuk3A6BCIR5RvXvx4qC9q0s99oa2X5KxHyYlA1KOiFVUZ4SNsWsrD7KEhvuaoR53wOnEE2TKYQmcsXB2ucjd0wKhBaxjD1/jSbAiYRJkREOjgF+59dHXvOTW2tdjeQbalrJT9EgvXLG7nUCfA1uArYlouWWIpGJrDOvqmu1bztk+Wb09joeTIoAAQPfWNu15LHo2z+skIa+VThZEhGiiOgFslakOWBKpv1+85uC1AOABiEdUbzcA8MjrFtxug+AGkckQiaj+8CcAxjMGEpYW1rWwykINOchtm4bU/RlwNll5TFk4DCLu79No+s00qAEH1gmvcd0fPa5gwmwNNTQ6PDz8U/fQ4McBoNZhN4ZK8y7VvZWChZc/drZ0GraQk2oai2hOEBDhWLSuZ/O8Ts9j0b01nuyx8eDkevpHuQ62rTn4Velk36sr/QHAChHOlZktCSUgpCXtX9a9ac63YpstdHbKulB4drH3W6Kx6W/t0EAAhgM6wZft6MdSMFhwWCpgCLIs4Qy6UAdcuDtTEAMSnOFjvzZhalHrzmtzFtUXleHPqUA36jCQILS2pbBl0KjXjN/hMLMW2QYFrR+EX3rbY3/28j/EZktbG08ufP//5HLNL/0OKffNptIfUTQHA6RVusUxQen27lumvx8Ax+aMOk6cNCsQAAizqMJW7X51z5WmOniXdHOR9RAiEmCtBQkBqW5pW76zNS5PdXR0mPauWtv5kf4ruVK6WzTkHBCdmGA2eoZJDJYMq8IZKGmC0+ei4ZFGNN09DU3F09BQbEZ6exY0IkIPkMmx1ZHwQmECZxlUFshsa0TuZ6eh+denofH3TUgfSEP6AiwsrGPBKpxYPOPeOZH3ALMRjqsAHoCxK2MNHqPcSxubX/wpUu6bTbnfgCMYQ4Vo6eYcUx28y6/uuRIAt3td6mQKHsDJtgKpUV81XHz5nkXSVf8ppDvb6nI0V7CQQLo5xxr/t0Gl7633fvH8p/KdLAsdEy961R+gc+7c/gpqzH6XjZlnyyVDQoxN5D/qQefaKoMIgCHIqoQadKAOunCeciAPqtBtkAFIBiuu9RalmHaiE8aV+kigAdLhioNTFqbZwswMoGdUETQHMBkDrq1OwBR29D0RqxOGhSSIdEbYUmXNziUXr695mk/c1u0RqN0L+1wtWvHE5dLJ3Gp0FQjVviiT7lqlub/P+OW/vOeLZ/eeTLrHaE7KAAKM8hBZtf/tQrlfZxM0WBNYogjVoiFaplqUNX5nrq/vPcXbz6nEtvz0uhS8Jfrcn29/B6fSX4fvZyN5iBwdNKQFi/DrIhBQJQXV78B52oV8yoHol6AgfETYYUAeLk855vslnIQcvtwcDpca4T0hGTZnYaZr6BkB9Gk+glwAm7LhRITD7c5naGLRRxdmZitzTZKHh297bMnCD4KZcN11FEeTxPrYsWjVE68XIvPvgG1i7Ufy7GFmK6QjSDojVvuX9Ww443tTudL8+ThpAwgAgscEj2zbmgNXknRv4qBsmC0hyiyCmUHCSjcnrT/yme6NZ3wsbHYGO+FNhJgJhYJAR4c55+fbr6JU5vO2UjawTKBR53L0UREfWWlYgqxIqCEHzkEX6oADcdABjYgwhVNyWE1eDxrJFlUCUHtSwmBCGqF9sQU4Y2FbDMzpAYLTAwQtPkxWw6rwphmLdsJstcw1K/ardwZDAx1P/MWrD43WACeS+k7DRav3XOjKxh+A+EXWH4lqS2uJBJPKSLb+Vd23zPhCbdJ50j5NJ3MAeaaovurJL8tU8wd0pU8j3IyJcu4GJCSRApvyZT2b5n8jttkE19YORHx2cfttojH3fh4c0ExCHt6vpVD4hghNUoQmyLIDp8+BOlALGgMSVK218Xa4ll5Qu7eTdNyE54I4vG+YAIMwoJja6qSxvtGQeBoAAB4oSURBVDrxEUwPoHMBrGvCAGRxZLvrGe8XBg+RbVBgPMQV/207l1z0e3R1qTiKBcMJIpmXXXHvtFR6boFk+vWm2h81eDAAo9ItylSHb+veMPODAHCyieZHc3KJ6EczSlQf6e/7qK4M/FqmmhQjcrdbCbaaiCBU9vMLlz3+8lgr1QsFAQCVpwY/xoH/c8o1KZDVrDgUOQVDBALuwRQaH8qh6Tenoeln09Dwy2ak7s9AHAoPm7MMztoweDDCwJEEj4Tng2v3CQOQAKc5vJfcsD2KszOFzG9zyP2sBU2/PA25e1uQfiILNewcriGyjgXLWiCybIRyFbSp2nJ5TZzBAx6LemskV51+Qxg8BjQQrT07g41MNSldGfz1SP/BjwJhCvDJHDyAk30FUqPd61JFb4luXb37IiEb/x1M51ldGoOozlq6OQXmbl0deWfv5jm76rOVcT3wY1F7wM78ac9LVGPD98E4n/oqWg2klHPAgXragTikQJVwlcEOh2dZNxACTtLFdEJs0KiPXNvuCkL9hCWDmyzMjNrqpCWAbgxgU4ZZMqTTSDxc+vjO17fe2N7VpYrt7Wbi6z2YPA/keWRbV+5ZIZyGjVZXLNgCkUXzrALxI8zVt3ffPOu++pgzzgceO6dEAAGO7G0uWrHvzdLJfJtt0MQmmjAWwlqmWhT7pR9yJXhX99Y5pXy+MxYDmPYuVsUlpM/54fY35nbN+K56XDXSgDHQJCEZ7KKmZQA4eh86IWEiIISTltFCPADOMEyLhpnha3tWVvnZgX95uO++9yOft3GJ5vWxoW3Nvr8kkf0Wm2oTG21AERqrMhuSriThDJqg/K7eTbN/HFfGZhycMgEEYMrnIQoFMq2rnlouVGqT1eXoswwGg2Blqlna6uBN3RtnXx22OrkOE3/TM7V3QRaXkG5dume5yGQ3WVMGK7bEJBIBPGFSUQ8m9UytgAKpco51gm0m+/Rbej99wQF0skQcafL1bM0rdl8kMrn/AHCODaKL5iABoTLCBqWVPRtnb4ot0SYmTm4N5BnU2r8zU8+GmZtZj9ymUk2hxMcRhtta0zTjDzGp9NpFq/ZeBo8sdqyLIQgTF9th4LHo+dLcLaapuklmm0EBMUyks0lImDgYodjOBJbQaHQdnSr1WX9kZe+nLzjQ7rGKJ3h0qaJHeuF7H2uB424ics6xQSmIFDzCp8yqVJNgPXJbz8bZm8BMoY5yagQP4JQKIAjbv3eE51yRfR9hU71TppoVIovqJGGNZbZCqYbPL1q993UokImlc299n5jApcaHr7EyuENlWiQoqrVvQsIEQgCDLZgUDBgmuKrn1nl3xZbV6LGoaxSiKfsZ5eYuNf5ggOi6qJGpZmVN9c6K7PsIAOQ7cFJnXB2LUyuAIGz/nu9kuePmBYe4XFrONvi9cBsVwBFuYgaIJOuKBmimJHdL67KHzw9byndNfGZWLcvsDx997VCpYe8yLUv3S6cxsh9KQsKEwWAiYWWqCRDyMz0b5n41HMTjcePzah/b1hy4UjqZpaY6aMA2Us88gLVwGxXb4Pcol5bvuHnBoXxnTEk1MXPKBRAg9D9v91htu3XuH7jSvww2GCLhKozBQ8QEQ5pUZgFkblPb0h9mi96SWDxEit4S3baUnQc+8ZJdQW7wCoPSoKBUdD+UhISJgKBVqllZXf6P7t5bPjnqGzF02GXleWQXrd7/TiL1T1ZXYGEobN/9vGgSroINhrjSv2zbrXP/0O6xOlVE86M5JQMIABQ9hEZUW87usqZ6DQkFgCRH7fTEJI0/qGUq9yZkLrkeAAoF2NFN2CaK7q0UtLezuu8T5/6CG82VrMBgUpHPJSFhXGEt3UZH+4MPgAdWo+iFtVQxbPfUvT1ar9h9EYHWA8iyDTTh+Vschc8TSRIOrKle073l7K5wC27qepq/UE7ZAAIQF9fVhOiNczcBvEmmmok4Yg4TgZitMMGQJemsffnaQ0sB4rrGMtEUu2AApt7r595mG/lGmWmCgIijEV1CwhGYDcmUstbvY8tXdK8/7/G2pducOHSPw94e7+1tgZu6VTrZuTYoRxPNASYGq1QzgfXmno1zN8FjUcR1p0zG1bE4hQMIMLpgaWjg/mvYBnfIdLOMKqoTSMBoZqMFgz/78rX731C32B2/g362gyGGF+7f9orTrzWq1ClTTQqcbGUlxAODLaQiIZQhoqt7N87+eT7PMpautJ5XF81JtZx9k3JzrzbVoQDEUbw9ALCR6WZpbXDH0ODvPz7qfU/pVf6pHUCAI0L0V147ZKp7lllTuV84OYWoQjSRZOsHINVsLG5tXbb7/NjanXhkw60B6Oq0x1YHYuiemh9KIqonTCw10Vy5OWFtcPO2L0z/Cpip0BnPtqqHdQCA1tVPf5yker+u9Fswq4ilcIFwcsrq8gNmYM+yP3zltUOnQpuSKCQBBHUhepvTu/klu1AdWmF1ZZikOxYh2rHBSCCdxvPJTW2al/9VpuiRRr4zBlE99Iff8ZFXPKlbylcYWXlKyHQiqidMMGyk26RMdfC/Udq1DqilucZgS9u2lB3PI7twxb48gT0blMBsD9d2PQ+apOtYXRmGP7y897aX7Aq34E7+NiVRSAJIjbrzYPeWs7vAfHVoGzIGIZqhTHVQC6fxTbPmvfizAIBCh4lHVF8c5PMs77vm7F9zg1kNV1QIUnGt7D4hYXwJ01ytrjxgECzv3rq41O51qTjSXEMjJwoWLntioZRqAwnpMBsdxReoJporIgEQX10XzU9GY6jj5RRqZRIFptDilfjla/s+T9K9SvuDGpZlpNkKMwMCwskQW3919/qZG+Lri8MEgACyi/7xyY+pasOnbWXEMIyImK6YkDB2mA2plCRSB9kE+e4NM7riaixYb3h60eUPz0xlT/8+hLrEVAejeZozGIKMcpsUG/+mu2+edjWYa6PAqSuaH02yAnkGxLguvEXsLz76cRuUfyDdZgWKmDFCRIC1bAMAuLF1xeNvKnSQaVu6LaJQdyIhrldL9d4w60btDH1dZJokSGgkmVkJ44OFUEQkwabyse4NM7qQZ1n0lkz8BMpjUSiQOf/Nd6Sc7PQvkExdErZnjxA8AICgpdusbFD+gf1FZyiaXwdKgsczSQLI0dSE6O7urYHRg6tMMPiAdBqiC9FEkm0QkExloNKbWpc9fH64PRZfpToADJ554GpNA7+Vbs5hjuyHkpAQjVpvKOnmBNvKrd0bZn0ZzIQFcbT2ZMrvCCeCzecv+iiRfLeu9Flw1M7bCKTT6Bh/8AEzPLiqu/tDQVx1K5OdJIAcg7oQ3bv53F0Me7m1/iGSKQfRB95QVFcN54vU9C+2LX2kOaxUj0NUX6LbvS71yBUXP2Ubq5ezCh6TKltr3ZLsZCWcKGq9oXT1vw1VrgGAfEchlt5Q7R5koUBm0ao972Kh1nFQBgCOuA1tSLqOtf4hJnt5723n7oqrbmUqMPFNAKcI+7q32nye5Z1fado551Uf2S+E85fMVnJoRB6lX45kU9XSaTyflTN93/xH77i/4Fl4JFAsTuiMbGfxazbfyfJny6btnfnnKx4Sxn0bDGUArQGRTCISXhhsA5lqdsB2R+AffM89G8/dE+oPL42tPfvilfteIZzs7USUYxtEMo9jsCWhhJQpbVmv7F0/6/v5PMuffn1uEjyehWTweA7qrUm6bz79a8YEn5NuIxGJaO3fw8mO0NUBK0j+w6JZG9YAxO34U3HEGnDiKORhPY/Fdm/+HSY99BFyFYgcAbYmWYkkHDdsA5HKOZb1Hj8YeP89m897MK6Mq3yeZdEj/dJlD88nJ7uZSM2yuhzNebTe7NFtJDbB53pumXk7mCn09kh4NpIA8pwQ5ztCH/KevT+7zvhDPwxF9cg1FQLMbE0VQjjXt654/E3hllIMKz8i9gB4Hovefzrzi1oNeyKVEUSOAGwyw0oYKwy2gUw3O2Ds03rksns2zv9tuAKY+Iwrb5RonnKbPg/hLDbVwajGUIdFc+MP/bC892fXAbUtuEQ0f06SAPI8FAodYav2QofPprTS6uF7pNvoRGv/DoAg2QaapMoKt2nzxct3LSh6pPOdMXiIeGQ9AADT9hvnXxc4A9dQyjFCZhTC1LHkYUl4fkLbMqvS0x0w36/18N/cs2FeV00rmPgEDWbyav/Nnb/wE0JmO2x1wCDyFn3Y7NHq4XvYlFbuKHT44Spq4u2qpxrJ3kVE6rnsrSufvESo1L+DebY1ldoMJ8q4y1qmmhWs+WW1dOBv7v3i+U/V89TH/eCPxmMBL3ROW3TNnncJP/MFwanZxh8wCE9GIrk3Eo6i5nBuSbpKyDSsLv9I6+pV92ye92BYsBdTgV2eJQpkFq/c/3+g3K9Y4wtmzc/fYZcAsBYyrUC0z+rqO3o2zrorrrqVqUiyAolI0Vui850sezbOusuY6pUgEYBk5MaLAElTHdSQzqXKbfg8gHB/1eOJvwYeWXggz2PR+89zv81NlbcaMXynTDVKoTKKQBaADgsjE05pGFzLPtRCKCFTzYpIHdB66GPBob3vumfzvAfDLrfxBI92jxUKZFrXPnUpuZnPMayE1TZKe3aADYSUIBEYU72yZ+Osu/KdLJPgEZ0kgIyBuhDdu2HWt62pfFa6jVT36ozwcmJAmOqAlU72sraV+64EQl0ijnYn8Mh668D5PMuea+d00/m736ad4atY6Eco1SiF06hIOBZgDWZTa+mSBJSTGwbADNgwaLAmIY1wslKlWxTJ1AAHI9+xpvTm3vWzP3Pv1y8eCYXreAbcesbVog88ehax3MigmawrGhSl3oMsQJBOI1ld+lzvhlnf9jwWhXwimo+FZJtirOQ7JQod5vw3P5RqeVHTN8lpfGetwjWaWMcwJJUk4ZQQVP9226ZZP4iv3UnI6K20RZ969Czud96n0PA2NnaRUFmwCcC6AmZTy0BL4sjJB4WJSEREQhHJFEg6YBuAgMcs+3daXfp274az7gQAeCw8AF5MxXWH79ml25zW1LxOlWr6X7rSH4AiVpoDWqaaFQfD3+1/cPDdD//4gmr92R7XAz/JSALIcVC/eS9eu3uuS7l/A8lLjD+GjA9AC5VRAD1uTekdPRvmdMe+7+qxyO8AHQ4k3u/n2JHspQqNfwrLr2YdvFioTIpGn+J47HCNviP5qM+T2/UYEJ47oI/h+2zB1oe1ukTCeQSCe1iXf02m+qvuTefdF/4MU74DIl7/bz7cUqRt9VM3Cqfho2YsPevAWrpNCmzu8nnob+65ef6e2PTIKU7yRB4n9VXDxSt3LnJU8w8AzLO6FD2IMGuZalJGV+72MfTW360/d3/sQQRhOmSxWBTFYu04PIiLB7bPFrLlTBLZFxOLc2FoNrGZZgUyNWtGhkC4yRV6Oh4esRg8yriLQSzsMwIPkWUKa7jCLwhLjCPvJ9gSi1Hv98wtBmIylkdXGT/3hFiIZ46mTIIBC4IAH34tca2xJh+dxkmorcCIYAkMe+TbRMSgUefOlkFHjh0MPvy3AgAWtt4gmSDC19ZMkQkAW7b1KEoE5tBhsnaaFkRknvH+9T/Z4Y/28BkJQu0zcfgniQSHP2vBoApZc4jZf9Ja+5i11X3myd6ndhQ6fABAnmUetdqomFNb68/ey1cf+Acod4vRFQGjI3qasxYqqxi8R+vBt96z8ezeyfDcTVWSAPICqO/BXrx8V4dS2X8FW8HWGFCk9EEGYFSqRVl/6BvbNpxxGQBMmmW0x6IdRVFEu/2jdhT5vFyAvKzOaiQ9tJ9U7owxDSipJ88a9fM7nvNn09PO5Urfj+jI57P/+Hd1j/p/23P/7tycFx31+p8/588Xax/bj/GFIgAUi0e+uWPGMf4OBQD5Uf8fxYJjLA28UR+9590rHOeBnKndK8oZOw5woZCPPXAAobdH91YKWlc88WfkZP8NbKexrppougcMkZQgabWu/O09m+d11p/hcT/wk5QkgLwgwges6C3Ri1buuU65Tddqf8gSc7TZEDMTCSvcRmlN+ZruW2Z+enSK7QScQASY4CFsTpcPEwniMAU6NXieZIrx/KtfB8rvKFA92BUWgCfXfVj39lgcLFr+6FlCNvyEnMyF1h+O2J6dmYlYuTmh/eHrezfOXheuPNrNZDrHqcbEd4g9qSAuIvRE9p/8/26Q895wrko1/31kUZ2ILCwhKEGo9LWtq596tMej74SzosniIEgMD1wARk2gawNd1Mcumaa8AOiY/x0H7DPWR4Vn+7GYyHfK7q2Lg/PffEdKuE2bhMpeaCr9PgA30uuJjEo1KzbVb/hP/vIGACji5xZYkgSPF0DyaJ8A6gJc29I/nI7sjO8J5b42snFNiBYqrdia/WQrb9u2cf5vYy3MSkiYVNRVIXDbmr6bpEpdqasDGrCRPc2l2+RY4/8PSgfe3r31wqcT0fzEkNSBnAAKBTKh1eWFT0P3LbNBea9QmegeIoCyuqyFSp9hhXvrovc9NKNusTuex52QMBWo9Y7jttX7lxH4Sl0dYIBF1OAhVMaxurwXum9Z99YLn273OJZmjycjSQA5QdQ9RLo3nXefNZVVbHVAQjpgRL1RlfGHA+U2tYqW6bcAEEWPdCyV6gkJk4S2pewUPdKLVu55AxifC+sb7eh0smeHYYikw9YE1lRWdW86777E2+PEkgxOJ5DurYt1Ps+yd9P870LQtUJlQpvbSC1BCGCrTLVfC5H6u7a1feuOfC+GSvWEhJgJV/UUvOyKB88lmdpCTjrLNggiZVwxM4hIOBlAiGt7N83/bj7PsntrWxI8TiBJADmxcGHBdQwA3TeffiOb4Csy3SRCH/IoMYTIshUmGAKs/mTr6r1/D49s29LuZCsr4dTCY1H0SL9y5UNN6fTMTdLJXGCDYR+RdEUGSGiZahJsgq9033zajQAQPptJxtWJJAkgJxrPs8iHrdp1/+NX2erI/8hUkwNQJD2EQAJsNZEkgvrC4pW7X9G9dXHQtnRbVEE+IWFqw0xYF1ZQBqL5BkjnzaYyoMERM65AgUw1OdYf+R/d//hVAMKOvZ6X9Lk6wSQBZDyoierbb1/UH/iVK2wwsls4WQcc0UMEUNZUAqEyM6Aab21bev/s7q2Lg1g8RBISJpj26yBBxG0r9q4SwllhqgMAEE00Z9bCyTo2GNkd+JUrtt++qL/esXe8j/tUJAkg40TRI93usbr3i2f+jq1dDuZhkq4ag6juGH8oECrdKhrnbXzV2l9lCh1kElE94WSmLnK3Ltv9F6RS/8xWo/bMRBPNpavAPMzWLr/3i2f+Lqk0H1+SwWgcKXqkkWfZs3HWD5n1OqFckJDA8zVsqsNQutxvIOQ7fXveOgDI7wDF0v49IWGcCUXuxUHrsp1/IlNNGyBUlq2vI7YGsiQkhHLBrNf1bJz1Q9Q80sf9wE9hkgAy3tT6HXXfMuMLNqh+Wbg5CVDd+e+5IRCTJeMPAhAfXbTqicsKBTLt18XgqZ6QMI7UC/sWfGDHaSLVuBFSXWD9oSBic1IGyAg3J21Q/XL3LTO+AODYvcYSTihJABlvPLJ17cIMjnzYVgeLMpVzwNFalYSiOmuQgJANNy1a/sSr6ttj43vgCQkThMei0BmuylMN0z5NMvN6U+k3IBHVY0fLVM6x1cGiGRz5MBB27P2jJqAJJ5wkgEwAhQ4y7V6X2n77Of1s7DKrqw8Jt8EBoovqbCqaSM6QqaYvta18/LwkiCScFHieyO8AgYhbV+77sFQNS60/ZGrNSKO1Z3cbHKurD7Gxy7bffk5/u9el4jRoO5VI9tInkLqg17pi75uEm/0O26CZtR+1FXXoIZJuUWz8OytDfe/+3ZfP3Z+IhAlTFo9Fe63jQuvK/e8mJ3UbjO+y0TaS7sFsSLqSpDNgTel/96yf85PkeZhYkhXIBFL0yOQ7WfZsmvMT1pVPCuECQtLRJknPCpE0lX5Dwnm925DbetHlD88MW6iwg2QykDCFyOdZeqi1AFqxLy+c9CZYnWITRAoeDFgISUK64KB0bc/6OT8J/dmTlcdEkgSQiYUL91/HYKbuDbM2mmDkS9LNiZqHXxTBjwASpjpopMq8zc1M/+bCVbsv6N5KQbvHMknxTZj8MLV7XapQION5ZFtXPvkP5GZuY6tbIhtDMZgYLN2cMMHIl7o3ztkAZqp1gUiE8wkkmbXGQD7fKQuFDtO29JFmyjR9m5zsX5hKvwZF9lRnMKxMN0m2+gFdHbp6++b5d4TvzTI0A0oExITJBFO+E6JuSNa29A+n21TT9UK6V4At2BzHVm5Q+n9cHnxX99bzBurP1DifRMJRJAEkJuppi63Ldp8vUo3/ASEWWH9kLB4iDLARTqMCBxWjg82iyjd2b53zNBDqLTN2gCeDh3XCKcxhnQOHnf8Wr97z5yQarod0LjHVIQbbaJpHSCDcBgfW7rDV4f/Vs2X+w4m3R3wkASRG6oLfwhW725WT/QEz59j40dwMj6BBUkknC2sq9xKbDWZw7w96v9p6AADATO3XFeWMHe28YAHYWwcOr3po0HPCTyrhFIUJjJo1bs3+GACOZEOJi5bvXKhUw+UCuAwqlbb+sGGAKPpWuibpKiIa0kHpbds3zS8monm8JAEkXqjdC6tl21bsWUZOdrPVFQBsgOjFggy2BGLhZMPXWHM3E75pqoM/337g7vtwzKV97YFPSDgRhJOSP7qjXvrBR89wHPVKkWp4K8B/I1SmxfrDYKtNuOqIPAQZgKRQaXBQWd69afaWWvCIVpSbMC4kASR2mDwP5HlkW1cf+IJUmbW6OmAJoFou/Bjeig2TIOk2CCIBWL3bGr3N2upviGm7VfSHlv7Kk8Xbz6mM08kknOK8au3u03xfnm2FfSmBXi5VY5tl3SadjGv8kbrWQRhLAg8zM8Aq1SyMLt/cs37GlZ7HwvOQtGePmaQQLXaIvZphFJV3fcI2nH+Gypz2d6bSp8GQoDEEeSJJYLb+UK1yPTVfOJn5gt23A+IQmUrfYCM/3bpy7z6Q6COiSsTsr4SEP4IRzkAZrAhoBDCjani2TDVMI9DpJEQKbMGBZl3p0wwIiiqUH/klDCKj0tOU1dVvUXnXJwDAA5AEj/hJViCThNG9gDLN874uZOotunJQg2lsQeQIDGYLIiYIghCSSIXdIYQY/VMJCScIBrMBWw02mkFsYC2NecUx6u1AbFR6urKmekd54InLdty24FAimk8ekgAyiagLgove1zNDnnbe14RIvVmXDxmmMQmNfwyDQUfVmhAxmOmIoD46kiSfx/v5VGPUSoCZmJiIQeHE5/iGGAYsMVhlTpPWVn9sDj3ynt6vth5IRPPJRRJAJhn1B2TBB3aclmmZt5lIvctUB1HrmzVOW471zYjk88nx+SmPBkjJVBOY9beHD/x+xe//5ZUHk+Ax+Uju2klI/UFpW7oti9T860mqqwCC1ZUAgDrOLa2EhMkNgwGrhco4DABG34Tq7mu7ty4uJcFjcpIMRJOU0fu8i1bv+YCUDZ8i4c4y1QELsEWSAJFwcqEBEirVLKz1n9S69MntG+Z8GXjms5AwuUgCyGTGY+EB8Dyybcv3tpKbvoGE+gu2FlaXNAACeCy59AkJkwhG3VxNqKyi0Prm/7Ff+cfuzXN6vNr9n7TlmbwkI8+kh6ndK8qit0RfdNk9Dalpc95tCR8RTsN5VpfCvHoQg60cc91IQkIcMDNIGABE0pFCZWGDkUcE47PVvr3fvPfrF4+0e12q6LUfbn+SMDlJBpwpQvhALdEA0Lb0ofOQnfYBtuaD0mmYwVbDmooFWxv6pZNIdJKEyUEtw4zBAFuQsCCSQqYFCQUTjBwgIb+MUt9t3VsveAR45r2eMLlJBpmphMeiHUVRf7hal+39E5L0HlLuX4Pki0g4go0PNr5hNgy2xES1lEoB1AoWExLGF2KwBROYwtUGE0kKzZ9csA0s2DzI2v8+G/5az5Y5DwC1wIF2m2xZTR2SAWUqku+U6MxbULi8X7Ti8TkE8VdCpt9Iym1la84hlQKsgTVVsAkAtsxh7ccxrnrcdQ/J51O7DqQGAyACMRNIEEkHQqYAocC6AhLiMdZBjzWV/2LYH/VuOnNv+DomdBTEsXu2JUxmkgAylRklsgMAmKl12WMvY+UulDL9CiLnImv9FzGbM4RKAyRq4xTXErkSEk4QJIB63SBbWF0BkdwvhPsgc3CvMZXfkva392w55776xCcRyac+SQA5Gah5LrQD1hv1MC56X88M0TBrOoHOYSXPB+SZRDyLmaYxbCMlqcAJJwAGNEEME3EfMz0JmMdJm4cZ/JgdefLgYWsBhEGjCIgikGxVnQT8/wnnizxXTKWuAAAAAElFTkSuQmCC;fontFamily=Google Sans;fontSource=https%3A%2F%2Ffonts.googleapis.com%2Fcss%3Ffamily%3DGoogle%2BSans;" parent="1" vertex="1">
          <mxGeometry x="571.81" y="117" width="23.19" height="22.5" as="geometry" />
        </mxCell>
        <mxCell id="uLg59qGG4U38qY8t5iAr-57" value="" style="shape=image;verticalLabelPosition=bottom;verticalAlign=top;imageAspect=0;aspect=fixed;image=data:image/svg+xml,PHN2ZyB4bWxuczp4bGluaz0iaHR0cDovL3d3dy53My5vcmcvMTk5OS94bGluayIgeG1sbnM9Imh0dHA6Ly93d3cudzMub3JnLzIwMDAvc3ZnIiB4bWw6c3BhY2U9InByZXNlcnZlIiBzdHlsZT0iZW5hYmxlLWJhY2tncm91bmQ6bmV3IDAgMCAxMjAgMTIwOyIgdmlld0JveD0iMCAwIDEyMCAxMjAiIHk9IjBweCIgeD0iMHB4IiBpZD0iTGF5ZXJfMSIgdmVyc2lvbj0iMS4xIj4mI3hhOzxzdHlsZSB0eXBlPSJ0ZXh0L2NzcyI+JiN4YTsJLnN0MHtmaWxsOiMwMDVBRkY7fSYjeGE7CS5zdDF7ZmlsbDpub25lO3N0cm9rZTojRkZGRkZGO3N0cm9rZS13aWR0aDo0O3N0cm9rZS1saW5lY2FwOnJvdW5kO3N0cm9rZS1saW5lam9pbjpyb3VuZDtzdHJva2UtbWl0ZXJsaW1pdDoxMDt9JiN4YTsJLnN0MntmaWxsOiNGRkZGRkY7fSYjeGE7CS5zdDN7ZmlsbDpub25lO3N0cm9rZTojRkZGRkZGO3N0cm9rZS13aWR0aDo0O3N0cm9rZS1taXRlcmxpbWl0OjEwO30mI3hhOwkuc3Q0e2ZpbGw6bm9uZTtzdHJva2U6I0ZGRkZGRjtzdHJva2Utd2lkdGg6NDtzdHJva2UtbGluZWNhcDpyb3VuZDtzdHJva2UtbGluZWpvaW46cm91bmQ7fSYjeGE7CS5zdDV7ZmlsbDojRkZGRkZGO3N0cm9rZTojRkZGRkZGO3N0cm9rZS13aWR0aDo0O3N0cm9rZS1saW5lY2FwOnJvdW5kO3N0cm9rZS1saW5lam9pbjpyb3VuZDtzdHJva2UtbWl0ZXJsaW1pdDoxMDt9JiN4YTsJLnN0NntmaWxsOm5vbmU7c3Ryb2tlOiNGRkZGRkY7c3Ryb2tlLXdpZHRoOjQuMjMzMztzdHJva2UtbGluZWNhcDpyb3VuZDtzdHJva2UtbGluZWpvaW46cm91bmQ7c3Ryb2tlLW1pdGVybGltaXQ6MTA7fSYjeGE7CS5zdDd7ZmlsbDpub25lO3N0cm9rZTojRkZGRkZGO3N0cm9rZS13aWR0aDo0O3N0cm9rZS1saW5lY2FwOnJvdW5kO3N0cm9rZS1taXRlcmxpbWl0OjEwO30mI3hhOwkuc3Q4e2ZpbGw6I0ZGRkZGRjtzdHJva2U6I0ZGRkZGRjtzdHJva2Utd2lkdGg6NDtzdHJva2UtbWl0ZXJsaW1pdDoxMDt9JiN4YTsJLnN0OXtmaWxsOiNGRkZGRkY7c3Ryb2tlOiNGRkZGRkY7c3Ryb2tlLXdpZHRoOjQ7fSYjeGE7CS5zdDEwe2ZpbGw6bm9uZTtzdHJva2U6I0ZGRkZGRjtzdHJva2Utd2lkdGg6NDt9JiN4YTsJLnN0MTF7ZmlsbDojMjYyNjI2O3N0cm9rZTojRkZGRkZGO3N0cm9rZS13aWR0aDo0LjIzMzM7fSYjeGE7CS5zdDEye2ZpbGwtcnVsZTpldmVub2RkO2NsaXAtcnVsZTpldmVub2RkO2ZpbGw6bm9uZTtzdHJva2U6I0ZGRkZGRjtzdHJva2Utd2lkdGg6NDtzdHJva2UtbWl0ZXJsaW1pdDoxMDt9JiN4YTsJLnN0MTN7ZmlsbC1ydWxlOmV2ZW5vZGQ7Y2xpcC1ydWxlOmV2ZW5vZGQ7ZmlsbDojRkZGRkZGO3N0cm9rZTojRkZGRkZGO3N0cm9rZS13aWR0aDo0O30mI3hhOwkuc3QxNHtmaWxsOm5vbmU7c3Ryb2tlOiNGRkZGRkY7c3Ryb2tlLXdpZHRoOjQuMjMzMztzdHJva2UtbGluZWNhcDpyb3VuZDtzdHJva2UtbGluZWpvaW46cm91bmQ7fSYjeGE7CS5zdDE1e2ZpbGw6bm9uZTtzdHJva2U6I0ZGRkZGRjtzdHJva2Utd2lkdGg6NDtzdHJva2UtbGluZWNhcDpyb3VuZDt9JiN4YTsJLnN0MTZ7ZmlsbDojRkZGRkZGO3N0cm9rZTojRkZGRkZGO3N0cm9rZS1taXRlcmxpbWl0OjEwO30mI3hhOwkuc3QxN3tmaWxsOiMyNjI2MjY7c3Ryb2tlOiNGRkZGRkY7c3Ryb2tlLXdpZHRoOjQ7c3Ryb2tlLW1pdGVybGltaXQ6MTA7fSYjeGE7CS5zdDE4e2ZpbGw6I0ZGRkZGRjtzdHJva2U6I0ZGRkZGRjtzdHJva2Utd2lkdGg6NDtzdHJva2UtbGluZWNhcDpyb3VuZDtzdHJva2UtbGluZWpvaW46cm91bmQ7fSYjeGE7PC9zdHlsZT4mI3hhOzxyZWN0IGhlaWdodD0iMTIwIiB3aWR0aD0iMTIwIiBjbGFzcz0ic3QwIi8+JiN4YTs8Zz4mI3hhOwk8Zz4mI3hhOwkJPHBhdGggZD0iTTcxLjcsMTkuN1Y0OGgyOCIgY2xhc3M9InN0MSIvPiYjeGE7CQk8cGF0aCBkPSJNOTEuMiwzOC41bDcuNSw3LjZjMS4zLDEuMywxLjMsMy4xLDAsNC4zTDkxLjEsNTgiIGNsYXNzPSJzdDEiLz4mI3hhOwk8L2c+JiN4YTsJPGc+JiN4YTsJCTxwYXRoIGQ9Ik0yMCw0Ny44aDI4LjR2LTI4IiBjbGFzcz0ic3QxIi8+JiN4YTsJCTxwYXRoIGQ9Ik0zOC44LDI4LjNsNy42LTcuNWMxLjMtMS4zLDMuMS0xLjMsNC4zLDBsNy43LDcuNiIgY2xhc3M9InN0MSIvPiYjeGE7CTwvZz4mI3hhOwk8Zz4mI3hhOwkJPHBhdGggZD0iTTQ4LDEwMC4zVjcySDIwIiBjbGFzcz0ic3QxIi8+JiN4YTsJCTxwYXRoIGQ9Ik0yOC41LDgxLjVMMjEsNzMuOWMtMS4zLTEuMy0xLjMtMy4xLDAtNC4zbDcuNi03LjciIGNsYXNzPSJzdDEiLz4mI3hhOwk8L2c+JiN4YTsJPGc+JiN4YTsJCTxwYXRoIGQ9Ik0xMDAsNzEuOUg3MS42djI4IiBjbGFzcz0ic3QxIi8+JiN4YTsJCTxwYXRoIGQ9Ik04MS4yLDkxLjRsLTcuNiw3LjVjLTEuMywxLjMtMy4xLDEuMy00LjMsMGwtNy43LTcuNiIgY2xhc3M9InN0MSIvPiYjeGE7CTwvZz4mI3hhOzwvZz4mI3hhOzwvc3ZnPg==;fontFamily=Google Sans;fontSource=https%3A%2F%2Ffonts.googleapis.com%2Fcss%3Ffamily%3DGoogle%2BSans;" parent="1" vertex="1">
          <mxGeometry x="431" y="120" width="60" height="60" as="geometry" />
        </mxCell>
        <mxCell id="uLg59qGG4U38qY8t5iAr-58" value="" style="shape=image;verticalLabelPosition=bottom;verticalAlign=top;imageAspect=0;aspect=fixed;image=data:image/svg+xml,PHN2ZyB4bWxuczp4bGluaz0iaHR0cDovL3d3dy53My5vcmcvMTk5OS94bGluayIgeG1sbnM9Imh0dHA6Ly93d3cudzMub3JnLzIwMDAvc3ZnIiB4bWw6c3BhY2U9InByZXNlcnZlIiBzdHlsZT0iZW5hYmxlLWJhY2tncm91bmQ6bmV3IDAgMCAxMjAgMTIwOyIgdmlld0JveD0iMCAwIDEyMCAxMjAiIHk9IjBweCIgeD0iMHB4IiBpZD0iTGF5ZXJfMSIgdmVyc2lvbj0iMS4xIj4mI3hhOzxzdHlsZSB0eXBlPSJ0ZXh0L2NzcyI+JiN4YTsJLnN0MHtmaWxsOiMwMDVBRkY7fSYjeGE7CS5zdDF7ZmlsbDpub25lO3N0cm9rZTojRkZGRkZGO3N0cm9rZS13aWR0aDo0O3N0cm9rZS1saW5lY2FwOnJvdW5kO3N0cm9rZS1saW5lam9pbjpyb3VuZDtzdHJva2UtbWl0ZXJsaW1pdDoxMDt9JiN4YTsJLnN0MntmaWxsOiNGRkZGRkY7fSYjeGE7CS5zdDN7ZmlsbDpub25lO3N0cm9rZTojRkZGRkZGO3N0cm9rZS13aWR0aDo0O3N0cm9rZS1taXRlcmxpbWl0OjEwO30mI3hhOwkuc3Q0e2ZpbGw6bm9uZTtzdHJva2U6I0ZGRkZGRjtzdHJva2Utd2lkdGg6NDtzdHJva2UtbGluZWNhcDpyb3VuZDtzdHJva2UtbGluZWpvaW46cm91bmQ7fSYjeGE7CS5zdDV7ZmlsbDojRkZGRkZGO3N0cm9rZTojRkZGRkZGO3N0cm9rZS13aWR0aDo0O3N0cm9rZS1saW5lY2FwOnJvdW5kO3N0cm9rZS1saW5lam9pbjpyb3VuZDtzdHJva2UtbWl0ZXJsaW1pdDoxMDt9JiN4YTsJLnN0NntmaWxsOm5vbmU7c3Ryb2tlOiNGRkZGRkY7c3Ryb2tlLXdpZHRoOjQuMjMzMztzdHJva2UtbGluZWNhcDpyb3VuZDtzdHJva2UtbGluZWpvaW46cm91bmQ7c3Ryb2tlLW1pdGVybGltaXQ6MTA7fSYjeGE7CS5zdDd7ZmlsbDpub25lO3N0cm9rZTojRkZGRkZGO3N0cm9rZS13aWR0aDo0O3N0cm9rZS1saW5lY2FwOnJvdW5kO3N0cm9rZS1taXRlcmxpbWl0OjEwO30mI3hhOwkuc3Q4e2ZpbGw6I0ZGRkZGRjtzdHJva2U6I0ZGRkZGRjtzdHJva2Utd2lkdGg6NDtzdHJva2UtbWl0ZXJsaW1pdDoxMDt9JiN4YTsJLnN0OXtmaWxsOiNGRkZGRkY7c3Ryb2tlOiNGRkZGRkY7c3Ryb2tlLXdpZHRoOjQ7fSYjeGE7CS5zdDEwe2ZpbGw6bm9uZTtzdHJva2U6I0ZGRkZGRjtzdHJva2Utd2lkdGg6NDt9JiN4YTsJLnN0MTF7ZmlsbDojMjYyNjI2O3N0cm9rZTojRkZGRkZGO3N0cm9rZS13aWR0aDo0LjIzMzM7fSYjeGE7CS5zdDEye2ZpbGwtcnVsZTpldmVub2RkO2NsaXAtcnVsZTpldmVub2RkO2ZpbGw6bm9uZTtzdHJva2U6I0ZGRkZGRjtzdHJva2Utd2lkdGg6NDtzdHJva2UtbWl0ZXJsaW1pdDoxMDt9JiN4YTsJLnN0MTN7ZmlsbC1ydWxlOmV2ZW5vZGQ7Y2xpcC1ydWxlOmV2ZW5vZGQ7ZmlsbDojRkZGRkZGO3N0cm9rZTojRkZGRkZGO3N0cm9rZS13aWR0aDo0O30mI3hhOwkuc3QxNHtmaWxsOm5vbmU7c3Ryb2tlOiNGRkZGRkY7c3Ryb2tlLXdpZHRoOjQuMjMzMztzdHJva2UtbGluZWNhcDpyb3VuZDtzdHJva2UtbGluZWpvaW46cm91bmQ7fSYjeGE7CS5zdDE1e2ZpbGw6bm9uZTtzdHJva2U6I0ZGRkZGRjtzdHJva2Utd2lkdGg6NDtzdHJva2UtbGluZWNhcDpyb3VuZDt9JiN4YTsJLnN0MTZ7ZmlsbDojRkZGRkZGO3N0cm9rZTojRkZGRkZGO3N0cm9rZS1taXRlcmxpbWl0OjEwO30mI3hhOwkuc3QxN3tmaWxsOiMyNjI2MjY7c3Ryb2tlOiNGRkZGRkY7c3Ryb2tlLXdpZHRoOjQ7c3Ryb2tlLW1pdGVybGltaXQ6MTA7fSYjeGE7CS5zdDE4e2ZpbGw6I0ZGRkZGRjtzdHJva2U6I0ZGRkZGRjtzdHJva2Utd2lkdGg6NDtzdHJva2UtbGluZWNhcDpyb3VuZDtzdHJva2UtbGluZWpvaW46cm91bmQ7fSYjeGE7PC9zdHlsZT4mI3hhOzxyZWN0IGhlaWdodD0iMTIwIiB3aWR0aD0iMTIwIiBjbGFzcz0ic3QwIi8+JiN4YTs8Zz4mI3hhOwk8Zz4mI3hhOwkJPHBhdGggZD0iTTcxLjcsMTkuN1Y0OGgyOCIgY2xhc3M9InN0MSIvPiYjeGE7CQk8cGF0aCBkPSJNOTEuMiwzOC41bDcuNSw3LjZjMS4zLDEuMywxLjMsMy4xLDAsNC4zTDkxLjEsNTgiIGNsYXNzPSJzdDEiLz4mI3hhOwk8L2c+JiN4YTsJPGc+JiN4YTsJCTxwYXRoIGQ9Ik0yMCw0Ny44aDI4LjR2LTI4IiBjbGFzcz0ic3QxIi8+JiN4YTsJCTxwYXRoIGQ9Ik0zOC44LDI4LjNsNy42LTcuNWMxLjMtMS4zLDMuMS0xLjMsNC4zLDBsNy43LDcuNiIgY2xhc3M9InN0MSIvPiYjeGE7CTwvZz4mI3hhOwk8Zz4mI3hhOwkJPHBhdGggZD0iTTQ4LDEwMC4zVjcySDIwIiBjbGFzcz0ic3QxIi8+JiN4YTsJCTxwYXRoIGQ9Ik0yOC41LDgxLjVMMjEsNzMuOWMtMS4zLTEuMy0xLjMtMy4xLDAtNC4zbDcuNi03LjciIGNsYXNzPSJzdDEiLz4mI3hhOwk8L2c+JiN4YTsJPGc+JiN4YTsJCTxwYXRoIGQ9Ik0xMDAsNzEuOUg3MS42djI4IiBjbGFzcz0ic3QxIi8+JiN4YTsJCTxwYXRoIGQ9Ik04MS4yLDkxLjRsLTcuNiw3LjVjLTEuMywxLjMtMy4xLDEuMy00LjMsMGwtNy43LTcuNiIgY2xhc3M9InN0MSIvPiYjeGE7CTwvZz4mI3hhOzwvZz4mI3hhOzwvc3ZnPg==;fontFamily=Google Sans;fontSource=https%3A%2F%2Ffonts.googleapis.com%2Fcss%3Ffamily%3DGoogle%2BSans;" parent="1" vertex="1">
          <mxGeometry x="281" y="220" width="40" height="40" as="geometry" />
        </mxCell>
        <mxCell id="uLg59qGG4U38qY8t5iAr-59" value="" style="shape=image;verticalLabelPosition=bottom;verticalAlign=top;imageAspect=0;aspect=fixed;image=data:image/svg+xml,PHN2ZyB4bWxuczp4bGluaz0iaHR0cDovL3d3dy53My5vcmcvMTk5OS94bGluayIgeG1sbnM9Imh0dHA6Ly93d3cudzMub3JnLzIwMDAvc3ZnIiB4bWw6c3BhY2U9InByZXNlcnZlIiBzdHlsZT0iZW5hYmxlLWJhY2tncm91bmQ6bmV3IDAgMCAxMjAgMTIwOyIgdmlld0JveD0iMCAwIDEyMCAxMjAiIHk9IjBweCIgeD0iMHB4IiBpZD0iTGF5ZXJfMSIgdmVyc2lvbj0iMS4xIj4mI3hhOzxzdHlsZSB0eXBlPSJ0ZXh0L2NzcyI+JiN4YTsJLnN0MHtmaWxsOiMwMDVBRkY7fSYjeGE7CS5zdDF7ZmlsbDpub25lO3N0cm9rZTojRkZGRkZGO3N0cm9rZS13aWR0aDo0O3N0cm9rZS1saW5lY2FwOnJvdW5kO3N0cm9rZS1saW5lam9pbjpyb3VuZDtzdHJva2UtbWl0ZXJsaW1pdDoxMDt9JiN4YTsJLnN0MntmaWxsOiNGRkZGRkY7fSYjeGE7CS5zdDN7ZmlsbDpub25lO3N0cm9rZTojRkZGRkZGO3N0cm9rZS13aWR0aDo0O3N0cm9rZS1taXRlcmxpbWl0OjEwO30mI3hhOwkuc3Q0e2ZpbGw6bm9uZTtzdHJva2U6I0ZGRkZGRjtzdHJva2Utd2lkdGg6NDtzdHJva2UtbGluZWNhcDpyb3VuZDtzdHJva2UtbGluZWpvaW46cm91bmQ7fSYjeGE7CS5zdDV7ZmlsbDojRkZGRkZGO3N0cm9rZTojRkZGRkZGO3N0cm9rZS13aWR0aDo0O3N0cm9rZS1saW5lY2FwOnJvdW5kO3N0cm9rZS1saW5lam9pbjpyb3VuZDtzdHJva2UtbWl0ZXJsaW1pdDoxMDt9JiN4YTsJLnN0NntmaWxsOm5vbmU7c3Ryb2tlOiNGRkZGRkY7c3Ryb2tlLXdpZHRoOjQuMjMzMztzdHJva2UtbGluZWNhcDpyb3VuZDtzdHJva2UtbGluZWpvaW46cm91bmQ7c3Ryb2tlLW1pdGVybGltaXQ6MTA7fSYjeGE7CS5zdDd7ZmlsbDpub25lO3N0cm9rZTojRkZGRkZGO3N0cm9rZS13aWR0aDo0O3N0cm9rZS1saW5lY2FwOnJvdW5kO3N0cm9rZS1taXRlcmxpbWl0OjEwO30mI3hhOwkuc3Q4e2ZpbGw6I0ZGRkZGRjtzdHJva2U6I0ZGRkZGRjtzdHJva2Utd2lkdGg6NDtzdHJva2UtbWl0ZXJsaW1pdDoxMDt9JiN4YTsJLnN0OXtmaWxsOiNGRkZGRkY7c3Ryb2tlOiNGRkZGRkY7c3Ryb2tlLXdpZHRoOjQ7fSYjeGE7CS5zdDEwe2ZpbGw6bm9uZTtzdHJva2U6I0ZGRkZGRjtzdHJva2Utd2lkdGg6NDt9JiN4YTsJLnN0MTF7ZmlsbDojMjYyNjI2O3N0cm9rZTojRkZGRkZGO3N0cm9rZS13aWR0aDo0LjIzMzM7fSYjeGE7CS5zdDEye2ZpbGwtcnVsZTpldmVub2RkO2NsaXAtcnVsZTpldmVub2RkO2ZpbGw6bm9uZTtzdHJva2U6I0ZGRkZGRjtzdHJva2Utd2lkdGg6NDtzdHJva2UtbWl0ZXJsaW1pdDoxMDt9JiN4YTsJLnN0MTN7ZmlsbC1ydWxlOmV2ZW5vZGQ7Y2xpcC1ydWxlOmV2ZW5vZGQ7ZmlsbDojRkZGRkZGO3N0cm9rZTojRkZGRkZGO3N0cm9rZS13aWR0aDo0O30mI3hhOwkuc3QxNHtmaWxsOm5vbmU7c3Ryb2tlOiNGRkZGRkY7c3Ryb2tlLXdpZHRoOjQuMjMzMztzdHJva2UtbGluZWNhcDpyb3VuZDtzdHJva2UtbGluZWpvaW46cm91bmQ7fSYjeGE7CS5zdDE1e2ZpbGw6bm9uZTtzdHJva2U6I0ZGRkZGRjtzdHJva2Utd2lkdGg6NDtzdHJva2UtbGluZWNhcDpyb3VuZDt9JiN4YTsJLnN0MTZ7ZmlsbDojRkZGRkZGO3N0cm9rZTojRkZGRkZGO3N0cm9rZS1taXRlcmxpbWl0OjEwO30mI3hhOwkuc3QxN3tmaWxsOiMyNjI2MjY7c3Ryb2tlOiNGRkZGRkY7c3Ryb2tlLXdpZHRoOjQ7c3Ryb2tlLW1pdGVybGltaXQ6MTA7fSYjeGE7CS5zdDE4e2ZpbGw6I0ZGRkZGRjtzdHJva2U6I0ZGRkZGRjtzdHJva2Utd2lkdGg6NDtzdHJva2UtbGluZWNhcDpyb3VuZDtzdHJva2UtbGluZWpvaW46cm91bmQ7fSYjeGE7PC9zdHlsZT4mI3hhOzxyZWN0IGhlaWdodD0iMTIwIiB3aWR0aD0iMTIwIiBjbGFzcz0ic3QwIi8+JiN4YTs8Zz4mI3hhOwk8Zz4mI3hhOwkJPHBhdGggZD0iTTcxLjcsMTkuN1Y0OGgyOCIgY2xhc3M9InN0MSIvPiYjeGE7CQk8cGF0aCBkPSJNOTEuMiwzOC41bDcuNSw3LjZjMS4zLDEuMywxLjMsMy4xLDAsNC4zTDkxLjEsNTgiIGNsYXNzPSJzdDEiLz4mI3hhOwk8L2c+JiN4YTsJPGc+JiN4YTsJCTxwYXRoIGQ9Ik0yMCw0Ny44aDI4LjR2LTI4IiBjbGFzcz0ic3QxIi8+JiN4YTsJCTxwYXRoIGQ9Ik0zOC44LDI4LjNsNy42LTcuNWMxLjMtMS4zLDMuMS0xLjMsNC4zLDBsNy43LDcuNiIgY2xhc3M9InN0MSIvPiYjeGE7CTwvZz4mI3hhOwk8Zz4mI3hhOwkJPHBhdGggZD0iTTQ4LDEwMC4zVjcySDIwIiBjbGFzcz0ic3QxIi8+JiN4YTsJCTxwYXRoIGQ9Ik0yOC41LDgxLjVMMjEsNzMuOWMtMS4zLTEuMy0xLjMtMy4xLDAtNC4zbDcuNi03LjciIGNsYXNzPSJzdDEiLz4mI3hhOwk8L2c+JiN4YTsJPGc+JiN4YTsJCTxwYXRoIGQ9Ik0xMDAsNzEuOUg3MS42djI4IiBjbGFzcz0ic3QxIi8+JiN4YTsJCTxwYXRoIGQ9Ik04MS4yLDkxLjRsLTcuNiw3LjVjLTEuMywxLjMtMy4xLDEuMy00LjMsMGwtNy43LTcuNiIgY2xhc3M9InN0MSIvPiYjeGE7CTwvZz4mI3hhOzwvZz4mI3hhOzwvc3ZnPg==;fontFamily=Google Sans;fontSource=https%3A%2F%2Ffonts.googleapis.com%2Fcss%3Ffamily%3DGoogle%2BSans;" parent="1" vertex="1">
          <mxGeometry x="361" y="220" width="40" height="40" as="geometry" />
        </mxCell>
        <mxCell id="uLg59qGG4U38qY8t5iAr-60" value="" style="shape=image;verticalLabelPosition=bottom;verticalAlign=top;imageAspect=0;aspect=fixed;image=data:image/svg+xml,PHN2ZyB4bWxuczp4bGluaz0iaHR0cDovL3d3dy53My5vcmcvMTk5OS94bGluayIgeG1sbnM9Imh0dHA6Ly93d3cudzMub3JnLzIwMDAvc3ZnIiB4bWw6c3BhY2U9InByZXNlcnZlIiBzdHlsZT0iZW5hYmxlLWJhY2tncm91bmQ6bmV3IDAgMCAxMjAgMTIwOyIgdmlld0JveD0iMCAwIDEyMCAxMjAiIHk9IjBweCIgeD0iMHB4IiBpZD0iTGF5ZXJfMSIgdmVyc2lvbj0iMS4xIj4mI3hhOzxzdHlsZSB0eXBlPSJ0ZXh0L2NzcyI+JiN4YTsJLnN0MHtmaWxsOiMwMDVBRkY7fSYjeGE7CS5zdDF7ZmlsbDpub25lO3N0cm9rZTojRkZGRkZGO3N0cm9rZS13aWR0aDo0O3N0cm9rZS1saW5lY2FwOnJvdW5kO3N0cm9rZS1saW5lam9pbjpyb3VuZDtzdHJva2UtbWl0ZXJsaW1pdDoxMDt9JiN4YTsJLnN0MntmaWxsOiNGRkZGRkY7fSYjeGE7CS5zdDN7ZmlsbDpub25lO3N0cm9rZTojRkZGRkZGO3N0cm9rZS13aWR0aDo0O3N0cm9rZS1taXRlcmxpbWl0OjEwO30mI3hhOwkuc3Q0e2ZpbGw6bm9uZTtzdHJva2U6I0ZGRkZGRjtzdHJva2Utd2lkdGg6NDtzdHJva2UtbGluZWNhcDpyb3VuZDtzdHJva2UtbGluZWpvaW46cm91bmQ7fSYjeGE7CS5zdDV7ZmlsbDojRkZGRkZGO3N0cm9rZTojRkZGRkZGO3N0cm9rZS13aWR0aDo0O3N0cm9rZS1saW5lY2FwOnJvdW5kO3N0cm9rZS1saW5lam9pbjpyb3VuZDtzdHJva2UtbWl0ZXJsaW1pdDoxMDt9JiN4YTsJLnN0NntmaWxsOm5vbmU7c3Ryb2tlOiNGRkZGRkY7c3Ryb2tlLXdpZHRoOjQuMjMzMztzdHJva2UtbGluZWNhcDpyb3VuZDtzdHJva2UtbGluZWpvaW46cm91bmQ7c3Ryb2tlLW1pdGVybGltaXQ6MTA7fSYjeGE7CS5zdDd7ZmlsbDpub25lO3N0cm9rZTojRkZGRkZGO3N0cm9rZS13aWR0aDo0O3N0cm9rZS1saW5lY2FwOnJvdW5kO3N0cm9rZS1taXRlcmxpbWl0OjEwO30mI3hhOwkuc3Q4e2ZpbGw6I0ZGRkZGRjtzdHJva2U6I0ZGRkZGRjtzdHJva2Utd2lkdGg6NDtzdHJva2UtbWl0ZXJsaW1pdDoxMDt9JiN4YTsJLnN0OXtmaWxsOiNGRkZGRkY7c3Ryb2tlOiNGRkZGRkY7c3Ryb2tlLXdpZHRoOjQ7fSYjeGE7CS5zdDEwe2ZpbGw6bm9uZTtzdHJva2U6I0ZGRkZGRjtzdHJva2Utd2lkdGg6NDt9JiN4YTsJLnN0MTF7ZmlsbDojMjYyNjI2O3N0cm9rZTojRkZGRkZGO3N0cm9rZS13aWR0aDo0LjIzMzM7fSYjeGE7CS5zdDEye2ZpbGwtcnVsZTpldmVub2RkO2NsaXAtcnVsZTpldmVub2RkO2ZpbGw6bm9uZTtzdHJva2U6I0ZGRkZGRjtzdHJva2Utd2lkdGg6NDtzdHJva2UtbWl0ZXJsaW1pdDoxMDt9JiN4YTsJLnN0MTN7ZmlsbC1ydWxlOmV2ZW5vZGQ7Y2xpcC1ydWxlOmV2ZW5vZGQ7ZmlsbDojRkZGRkZGO3N0cm9rZTojRkZGRkZGO3N0cm9rZS13aWR0aDo0O30mI3hhOwkuc3QxNHtmaWxsOm5vbmU7c3Ryb2tlOiNGRkZGRkY7c3Ryb2tlLXdpZHRoOjQuMjMzMztzdHJva2UtbGluZWNhcDpyb3VuZDtzdHJva2UtbGluZWpvaW46cm91bmQ7fSYjeGE7CS5zdDE1e2ZpbGw6bm9uZTtzdHJva2U6I0ZGRkZGRjtzdHJva2Utd2lkdGg6NDtzdHJva2UtbGluZWNhcDpyb3VuZDt9JiN4YTsJLnN0MTZ7ZmlsbDojRkZGRkZGO3N0cm9rZTojRkZGRkZGO3N0cm9rZS1taXRlcmxpbWl0OjEwO30mI3hhOwkuc3QxN3tmaWxsOiMyNjI2MjY7c3Ryb2tlOiNGRkZGRkY7c3Ryb2tlLXdpZHRoOjQ7c3Ryb2tlLW1pdGVybGltaXQ6MTA7fSYjeGE7CS5zdDE4e2ZpbGw6I0ZGRkZGRjtzdHJva2U6I0ZGRkZGRjtzdHJva2Utd2lkdGg6NDtzdHJva2UtbGluZWNhcDpyb3VuZDtzdHJva2UtbGluZWpvaW46cm91bmQ7fSYjeGE7PC9zdHlsZT4mI3hhOzxyZWN0IGhlaWdodD0iMTIwIiB3aWR0aD0iMTIwIiBjbGFzcz0ic3QwIi8+JiN4YTs8Zz4mI3hhOwk8Zz4mI3hhOwkJPHBhdGggZD0iTTcxLjcsMTkuN1Y0OGgyOCIgY2xhc3M9InN0MSIvPiYjeGE7CQk8cGF0aCBkPSJNOTEuMiwzOC41bDcuNSw3LjZjMS4zLDEuMywxLjMsMy4xLDAsNC4zTDkxLjEsNTgiIGNsYXNzPSJzdDEiLz4mI3hhOwk8L2c+JiN4YTsJPGc+JiN4YTsJCTxwYXRoIGQ9Ik0yMCw0Ny44aDI4LjR2LTI4IiBjbGFzcz0ic3QxIi8+JiN4YTsJCTxwYXRoIGQ9Ik0zOC44LDI4LjNsNy42LTcuNWMxLjMtMS4zLDMuMS0xLjMsNC4zLDBsNy43LDcuNiIgY2xhc3M9InN0MSIvPiYjeGE7CTwvZz4mI3hhOwk8Zz4mI3hhOwkJPHBhdGggZD0iTTQ4LDEwMC4zVjcySDIwIiBjbGFzcz0ic3QxIi8+JiN4YTsJCTxwYXRoIGQ9Ik0yOC41LDgxLjVMMjEsNzMuOWMtMS4zLTEuMy0xLjMtMy4xLDAtNC4zbDcuNi03LjciIGNsYXNzPSJzdDEiLz4mI3hhOwk8L2c+JiN4YTsJPGc+JiN4YTsJCTxwYXRoIGQ9Ik0xMDAsNzEuOUg3MS42djI4IiBjbGFzcz0ic3QxIi8+JiN4YTsJCTxwYXRoIGQ9Ik04MS4yLDkxLjRsLTcuNiw3LjVjLTEuMywxLjMtMy4xLDEuMy00LjMsMGwtNy43LTcuNiIgY2xhc3M9InN0MSIvPiYjeGE7CTwvZz4mI3hhOzwvZz4mI3hhOzwvc3ZnPg==;fontFamily=Google Sans;fontSource=https%3A%2F%2Ffonts.googleapis.com%2Fcss%3Ffamily%3DGoogle%2BSans;" parent="1" vertex="1">
          <mxGeometry x="441" y="220" width="40" height="40" as="geometry" />
        </mxCell>
        <mxCell id="uLg59qGG4U38qY8t5iAr-61" value="" style="shape=image;verticalLabelPosition=bottom;verticalAlign=top;imageAspect=0;aspect=fixed;image=data:image/svg+xml,PHN2ZyB4bWxuczp4bGluaz0iaHR0cDovL3d3dy53My5vcmcvMTk5OS94bGluayIgeG1sbnM9Imh0dHA6Ly93d3cudzMub3JnLzIwMDAvc3ZnIiB4bWw6c3BhY2U9InByZXNlcnZlIiBzdHlsZT0iZW5hYmxlLWJhY2tncm91bmQ6bmV3IDAgMCAxMjAgMTIwOyIgdmlld0JveD0iMCAwIDEyMCAxMjAiIHk9IjBweCIgeD0iMHB4IiBpZD0iTGF5ZXJfMSIgdmVyc2lvbj0iMS4xIj4mI3hhOzxzdHlsZSB0eXBlPSJ0ZXh0L2NzcyI+JiN4YTsJLnN0MHtmaWxsOiMwMDVBRkY7fSYjeGE7CS5zdDF7ZmlsbDpub25lO3N0cm9rZTojRkZGRkZGO3N0cm9rZS13aWR0aDo0O3N0cm9rZS1saW5lY2FwOnJvdW5kO3N0cm9rZS1saW5lam9pbjpyb3VuZDtzdHJva2UtbWl0ZXJsaW1pdDoxMDt9JiN4YTsJLnN0MntmaWxsOiNGRkZGRkY7fSYjeGE7CS5zdDN7ZmlsbDpub25lO3N0cm9rZTojRkZGRkZGO3N0cm9rZS13aWR0aDo0O3N0cm9rZS1taXRlcmxpbWl0OjEwO30mI3hhOwkuc3Q0e2ZpbGw6bm9uZTtzdHJva2U6I0ZGRkZGRjtzdHJva2Utd2lkdGg6NDtzdHJva2UtbGluZWNhcDpyb3VuZDtzdHJva2UtbGluZWpvaW46cm91bmQ7fSYjeGE7CS5zdDV7ZmlsbDojRkZGRkZGO3N0cm9rZTojRkZGRkZGO3N0cm9rZS13aWR0aDo0O3N0cm9rZS1saW5lY2FwOnJvdW5kO3N0cm9rZS1saW5lam9pbjpyb3VuZDtzdHJva2UtbWl0ZXJsaW1pdDoxMDt9JiN4YTsJLnN0NntmaWxsOm5vbmU7c3Ryb2tlOiNGRkZGRkY7c3Ryb2tlLXdpZHRoOjQuMjMzMztzdHJva2UtbGluZWNhcDpyb3VuZDtzdHJva2UtbGluZWpvaW46cm91bmQ7c3Ryb2tlLW1pdGVybGltaXQ6MTA7fSYjeGE7CS5zdDd7ZmlsbDpub25lO3N0cm9rZTojRkZGRkZGO3N0cm9rZS13aWR0aDo0O3N0cm9rZS1saW5lY2FwOnJvdW5kO3N0cm9rZS1taXRlcmxpbWl0OjEwO30mI3hhOwkuc3Q4e2ZpbGw6I0ZGRkZGRjtzdHJva2U6I0ZGRkZGRjtzdHJva2Utd2lkdGg6NDtzdHJva2UtbWl0ZXJsaW1pdDoxMDt9JiN4YTsJLnN0OXtmaWxsOiNGRkZGRkY7c3Ryb2tlOiNGRkZGRkY7c3Ryb2tlLXdpZHRoOjQ7fSYjeGE7CS5zdDEwe2ZpbGw6bm9uZTtzdHJva2U6I0ZGRkZGRjtzdHJva2Utd2lkdGg6NDt9JiN4YTsJLnN0MTF7ZmlsbDojMjYyNjI2O3N0cm9rZTojRkZGRkZGO3N0cm9rZS13aWR0aDo0LjIzMzM7fSYjeGE7CS5zdDEye2ZpbGwtcnVsZTpldmVub2RkO2NsaXAtcnVsZTpldmVub2RkO2ZpbGw6bm9uZTtzdHJva2U6I0ZGRkZGRjtzdHJva2Utd2lkdGg6NDtzdHJva2UtbWl0ZXJsaW1pdDoxMDt9JiN4YTsJLnN0MTN7ZmlsbC1ydWxlOmV2ZW5vZGQ7Y2xpcC1ydWxlOmV2ZW5vZGQ7ZmlsbDojRkZGRkZGO3N0cm9rZTojRkZGRkZGO3N0cm9rZS13aWR0aDo0O30mI3hhOwkuc3QxNHtmaWxsOm5vbmU7c3Ryb2tlOiNGRkZGRkY7c3Ryb2tlLXdpZHRoOjQuMjMzMztzdHJva2UtbGluZWNhcDpyb3VuZDtzdHJva2UtbGluZWpvaW46cm91bmQ7fSYjeGE7CS5zdDE1e2ZpbGw6bm9uZTtzdHJva2U6I0ZGRkZGRjtzdHJva2Utd2lkdGg6NDtzdHJva2UtbGluZWNhcDpyb3VuZDt9JiN4YTsJLnN0MTZ7ZmlsbDojRkZGRkZGO3N0cm9rZTojRkZGRkZGO3N0cm9rZS1taXRlcmxpbWl0OjEwO30mI3hhOwkuc3QxN3tmaWxsOiMyNjI2MjY7c3Ryb2tlOiNGRkZGRkY7c3Ryb2tlLXdpZHRoOjQ7c3Ryb2tlLW1pdGVybGltaXQ6MTA7fSYjeGE7CS5zdDE4e2ZpbGw6I0ZGRkZGRjtzdHJva2U6I0ZGRkZGRjtzdHJva2Utd2lkdGg6NDtzdHJva2UtbGluZWNhcDpyb3VuZDtzdHJva2UtbGluZWpvaW46cm91bmQ7fSYjeGE7PC9zdHlsZT4mI3hhOzxyZWN0IGhlaWdodD0iMTIwIiB3aWR0aD0iMTIwIiBjbGFzcz0ic3QwIi8+JiN4YTs8Zz4mI3hhOwk8Zz4mI3hhOwkJPHBhdGggZD0iTTcxLjcsMTkuN1Y0OGgyOCIgY2xhc3M9InN0MSIvPiYjeGE7CQk8cGF0aCBkPSJNOTEuMiwzOC41bDcuNSw3LjZjMS4zLDEuMywxLjMsMy4xLDAsNC4zTDkxLjEsNTgiIGNsYXNzPSJzdDEiLz4mI3hhOwk8L2c+JiN4YTsJPGc+JiN4YTsJCTxwYXRoIGQ9Ik0yMCw0Ny44aDI4LjR2LTI4IiBjbGFzcz0ic3QxIi8+JiN4YTsJCTxwYXRoIGQ9Ik0zOC44LDI4LjNsNy42LTcuNWMxLjMtMS4zLDMuMS0xLjMsNC4zLDBsNy43LDcuNiIgY2xhc3M9InN0MSIvPiYjeGE7CTwvZz4mI3hhOwk8Zz4mI3hhOwkJPHBhdGggZD0iTTQ4LDEwMC4zVjcySDIwIiBjbGFzcz0ic3QxIi8+JiN4YTsJCTxwYXRoIGQ9Ik0yOC41LDgxLjVMMjEsNzMuOWMtMS4zLTEuMy0xLjMtMy4xLDAtNC4zbDcuNi03LjciIGNsYXNzPSJzdDEiLz4mI3hhOwk8L2c+JiN4YTsJPGc+JiN4YTsJCTxwYXRoIGQ9Ik0xMDAsNzEuOUg3MS42djI4IiBjbGFzcz0ic3QxIi8+JiN4YTsJCTxwYXRoIGQ9Ik04MS4yLDkxLjRsLTcuNiw3LjVjLTEuMywxLjMtMy4xLDEuMy00LjMsMGwtNy43LTcuNiIgY2xhc3M9InN0MSIvPiYjeGE7CTwvZz4mI3hhOzwvZz4mI3hhOzwvc3ZnPg==;fontFamily=Google Sans;fontSource=https%3A%2F%2Ffonts.googleapis.com%2Fcss%3Ffamily%3DGoogle%2BSans;" parent="1" vertex="1">
          <mxGeometry x="351" y="120" width="60" height="60" as="geometry" />
        </mxCell>
        <mxCell id="uLg59qGG4U38qY8t5iAr-62" value="" style="shape=image;verticalLabelPosition=bottom;verticalAlign=top;imageAspect=0;aspect=fixed;image=data:image/svg+xml,PHN2ZyB4bWxuczp4bGluaz0iaHR0cDovL3d3dy53My5vcmcvMTk5OS94bGluayIgeG1sbnM9Imh0dHA6Ly93d3cudzMub3JnLzIwMDAvc3ZnIiB4bWw6c3BhY2U9InByZXNlcnZlIiBzdHlsZT0iZW5hYmxlLWJhY2tncm91bmQ6bmV3IDAgMCAxMjAgMTIwOyIgdmlld0JveD0iMCAwIDEyMCAxMjAiIHk9IjBweCIgeD0iMHB4IiBpZD0iTGF5ZXJfMSIgdmVyc2lvbj0iMS4xIj4mI3hhOzxzdHlsZSB0eXBlPSJ0ZXh0L2NzcyI+JiN4YTsJLnN0MHtmaWxsOiMwMDVBRkY7fSYjeGE7CS5zdDF7ZmlsbDpub25lO3N0cm9rZTojRkZGRkZGO3N0cm9rZS13aWR0aDo0O3N0cm9rZS1saW5lY2FwOnJvdW5kO3N0cm9rZS1saW5lam9pbjpyb3VuZDtzdHJva2UtbWl0ZXJsaW1pdDoxMDt9JiN4YTsJLnN0MntmaWxsOiNGRkZGRkY7fSYjeGE7CS5zdDN7ZmlsbDpub25lO3N0cm9rZTojRkZGRkZGO3N0cm9rZS13aWR0aDo0O3N0cm9rZS1taXRlcmxpbWl0OjEwO30mI3hhOwkuc3Q0e2ZpbGw6bm9uZTtzdHJva2U6I0ZGRkZGRjtzdHJva2Utd2lkdGg6NDtzdHJva2UtbGluZWNhcDpyb3VuZDtzdHJva2UtbGluZWpvaW46cm91bmQ7fSYjeGE7CS5zdDV7ZmlsbDojRkZGRkZGO3N0cm9rZTojRkZGRkZGO3N0cm9rZS13aWR0aDo0O3N0cm9rZS1saW5lY2FwOnJvdW5kO3N0cm9rZS1saW5lam9pbjpyb3VuZDtzdHJva2UtbWl0ZXJsaW1pdDoxMDt9JiN4YTsJLnN0NntmaWxsOm5vbmU7c3Ryb2tlOiNGRkZGRkY7c3Ryb2tlLXdpZHRoOjQuMjMzMztzdHJva2UtbGluZWNhcDpyb3VuZDtzdHJva2UtbGluZWpvaW46cm91bmQ7c3Ryb2tlLW1pdGVybGltaXQ6MTA7fSYjeGE7CS5zdDd7ZmlsbDpub25lO3N0cm9rZTojRkZGRkZGO3N0cm9rZS13aWR0aDo0O3N0cm9rZS1saW5lY2FwOnJvdW5kO3N0cm9rZS1taXRlcmxpbWl0OjEwO30mI3hhOwkuc3Q4e2ZpbGw6I0ZGRkZGRjtzdHJva2U6I0ZGRkZGRjtzdHJva2Utd2lkdGg6NDtzdHJva2UtbWl0ZXJsaW1pdDoxMDt9JiN4YTsJLnN0OXtmaWxsOiNGRkZGRkY7c3Ryb2tlOiNGRkZGRkY7c3Ryb2tlLXdpZHRoOjQ7fSYjeGE7CS5zdDEwe2ZpbGw6bm9uZTtzdHJva2U6I0ZGRkZGRjtzdHJva2Utd2lkdGg6NDt9JiN4YTsJLnN0MTF7ZmlsbDojMjYyNjI2O3N0cm9rZTojRkZGRkZGO3N0cm9rZS13aWR0aDo0LjIzMzM7fSYjeGE7CS5zdDEye2ZpbGwtcnVsZTpldmVub2RkO2NsaXAtcnVsZTpldmVub2RkO2ZpbGw6bm9uZTtzdHJva2U6I0ZGRkZGRjtzdHJva2Utd2lkdGg6NDtzdHJva2UtbWl0ZXJsaW1pdDoxMDt9JiN4YTsJLnN0MTN7ZmlsbC1ydWxlOmV2ZW5vZGQ7Y2xpcC1ydWxlOmV2ZW5vZGQ7ZmlsbDojRkZGRkZGO3N0cm9rZTojRkZGRkZGO3N0cm9rZS13aWR0aDo0O30mI3hhOwkuc3QxNHtmaWxsOm5vbmU7c3Ryb2tlOiNGRkZGRkY7c3Ryb2tlLXdpZHRoOjQuMjMzMztzdHJva2UtbGluZWNhcDpyb3VuZDtzdHJva2UtbGluZWpvaW46cm91bmQ7fSYjeGE7CS5zdDE1e2ZpbGw6bm9uZTtzdHJva2U6I0ZGRkZGRjtzdHJva2Utd2lkdGg6NDtzdHJva2UtbGluZWNhcDpyb3VuZDt9JiN4YTsJLnN0MTZ7ZmlsbDojRkZGRkZGO3N0cm9rZTojRkZGRkZGO3N0cm9rZS1taXRlcmxpbWl0OjEwO30mI3hhOwkuc3QxN3tmaWxsOiMyNjI2MjY7c3Ryb2tlOiNGRkZGRkY7c3Ryb2tlLXdpZHRoOjQ7c3Ryb2tlLW1pdGVybGltaXQ6MTA7fSYjeGE7CS5zdDE4e2ZpbGw6I0ZGRkZGRjtzdHJva2U6I0ZGRkZGRjtzdHJva2Utd2lkdGg6NDtzdHJva2UtbGluZWNhcDpyb3VuZDtzdHJva2UtbGluZWpvaW46cm91bmQ7fSYjeGE7PC9zdHlsZT4mI3hhOzxyZWN0IGhlaWdodD0iMTIwIiB3aWR0aD0iMTIwIiBjbGFzcz0ic3QwIi8+JiN4YTs8Zz4mI3hhOwk8Zz4mI3hhOwkJPHBhdGggZD0iTTcxLjcsMTkuN1Y0OGgyOCIgY2xhc3M9InN0MSIvPiYjeGE7CQk8cGF0aCBkPSJNOTEuMiwzOC41bDcuNSw3LjZjMS4zLDEuMywxLjMsMy4xLDAsNC4zTDkxLjEsNTgiIGNsYXNzPSJzdDEiLz4mI3hhOwk8L2c+JiN4YTsJPGc+JiN4YTsJCTxwYXRoIGQ9Ik0yMCw0Ny44aDI4LjR2LTI4IiBjbGFzcz0ic3QxIi8+JiN4YTsJCTxwYXRoIGQ9Ik0zOC44LDI4LjNsNy42LTcuNWMxLjMtMS4zLDMuMS0xLjMsNC4zLDBsNy43LDcuNiIgY2xhc3M9InN0MSIvPiYjeGE7CTwvZz4mI3hhOwk8Zz4mI3hhOwkJPHBhdGggZD0iTTQ4LDEwMC4zVjcySDIwIiBjbGFzcz0ic3QxIi8+JiN4YTsJCTxwYXRoIGQ9Ik0yOC41LDgxLjVMMjEsNzMuOWMtMS4zLTEuMy0xLjMtMy4xLDAtNC4zbDcuNi03LjciIGNsYXNzPSJzdDEiLz4mI3hhOwk8L2c+JiN4YTsJPGc+JiN4YTsJCTxwYXRoIGQ9Ik0xMDAsNzEuOUg3MS42djI4IiBjbGFzcz0ic3QxIi8+JiN4YTsJCTxwYXRoIGQ9Ik04MS4yLDkxLjRsLTcuNiw3LjVjLTEuMywxLjMtMy4xLDEuMy00LjMsMGwtNy43LTcuNiIgY2xhc3M9InN0MSIvPiYjeGE7CTwvZz4mI3hhOzwvZz4mI3hhOzwvc3ZnPg==;fontFamily=Google Sans;fontSource=https%3A%2F%2Ffonts.googleapis.com%2Fcss%3Ffamily%3DGoogle%2BSans;" parent="1" vertex="1">
          <mxGeometry x="521" y="220" width="40" height="40" as="geometry" />
        </mxCell>
        <mxCell id="uLg59qGG4U38qY8t5iAr-63" value="spine2" style="text;strokeColor=none;align=center;fillColor=none;html=1;verticalAlign=middle;whiteSpace=wrap;rounded=0;fontFamily=Google Sans;fontSource=https%3A%2F%2Ffonts.googleapis.com%2Fcss%3Ffamily%3DGoogle%2BSans;fontColor=#FFFFFF;fontSize=7;" parent="1" vertex="1">
          <mxGeometry x="468" y="119" width="24" height="10" as="geometry" />
        </mxCell>
        <mxCell id="uLg59qGG4U38qY8t5iAr-64" value="spine1" style="text;strokeColor=none;align=center;fillColor=none;html=1;verticalAlign=middle;whiteSpace=wrap;rounded=0;fontFamily=Google Sans;fontSource=https%3A%2F%2Ffonts.googleapis.com%2Fcss%3Ffamily%3DGoogle%2BSans;fontColor=#FFFFFF;fontSize=7;" parent="1" vertex="1">
          <mxGeometry x="389" y="119" width="24" height="10" as="geometry" />
        </mxCell>
        <mxCell id="uLg59qGG4U38qY8t5iAr-65" value="leaf1" style="text;strokeColor=none;align=center;fillColor=none;html=1;verticalAlign=middle;whiteSpace=wrap;rounded=0;fontFamily=Google Sans;fontSource=https%3A%2F%2Ffonts.googleapis.com%2Fcss%3Ffamily%3DGoogle%2BSans;fontColor=#FFFFFF;fontSize=7;" parent="1" vertex="1">
          <mxGeometry x="301" y="218" width="24" height="10" as="geometry" />
        </mxCell>
        <mxCell id="uLg59qGG4U38qY8t5iAr-66" value="leaf2" style="text;strokeColor=none;align=center;fillColor=none;html=1;verticalAlign=middle;whiteSpace=wrap;rounded=0;fontFamily=Google Sans;fontSource=https%3A%2F%2Ffonts.googleapis.com%2Fcss%3Ffamily%3DGoogle%2BSans;fontColor=#FFFFFF;fontSize=7;" parent="1" vertex="1">
          <mxGeometry x="381" y="218" width="24" height="10" as="geometry" />
        </mxCell>
        <mxCell id="uLg59qGG4U38qY8t5iAr-67" value="leaf3" style="text;strokeColor=none;align=center;fillColor=none;html=1;verticalAlign=middle;whiteSpace=wrap;rounded=0;fontFamily=Google Sans;fontSource=https%3A%2F%2Ffonts.googleapis.com%2Fcss%3Ffamily%3DGoogle%2BSans;fontColor=#FFFFFF;fontSize=7;" parent="1" vertex="1">
          <mxGeometry x="461" y="218" width="24" height="10" as="geometry" />
        </mxCell>
        <mxCell id="uLg59qGG4U38qY8t5iAr-68" value="leaf4" style="text;strokeColor=none;align=center;fillColor=none;html=1;verticalAlign=middle;whiteSpace=wrap;rounded=0;fontFamily=Google Sans;fontSource=https%3A%2F%2Ffonts.googleapis.com%2Fcss%3Ffamily%3DGoogle%2BSans;fontColor=#FFFFFF;fontSize=7;" parent="1" vertex="1">
          <mxGeometry x="541" y="218" width="24" height="10" as="geometry" />
        </mxCell>
        <mxCell id="uLg59qGG4U38qY8t5iAr-17" value="" style="fontColor=#0066CC;verticalAlign=top;verticalLabelPosition=bottom;labelPosition=center;align=center;html=1;outlineConnect=0;fillColor=#CCCCCC;strokeColor=#6881B3;gradientColor=none;gradientDirection=north;strokeWidth=2;shape=mxgraph.networks.server;fontFamily=Google Sans;fontSource=https%3A%2F%2Ffonts.googleapis.com%2Fcss%3Ffamily%3DGoogle%2BSans;" parent="1" vertex="1">
          <mxGeometry x="302" y="309" width="30" height="40" as="geometry" />
        </mxCell>
        <mxCell id="uLg59qGG4U38qY8t5iAr-19" value="node1" style="text;strokeColor=none;align=center;fillColor=none;html=1;verticalAlign=middle;whiteSpace=wrap;rounded=0;fontColor=#FFFFFF;fontSize=9;fontFamily=Google Sans;fontSource=https%3A%2F%2Ffonts.googleapis.com%2Fcss%3Ffamily%3DGoogle%2BSans;" parent="1" vertex="1">
          <mxGeometry x="299" y="352" width="36" height="1" as="geometry" />
        </mxCell>
        <mxCell id="uLg59qGG4U38qY8t5iAr-18" value="" style="sketch=0;html=1;dashed=0;whitespace=wrap;fillColor=#2875E2;strokeColor=#ffffff;points=[[0.005,0.63,0],[0.1,0.2,0],[0.9,0.2,0],[0.5,0,0],[0.995,0.63,0],[0.72,0.99,0],[0.5,1,0],[0.28,0.99,0]];verticalLabelPosition=bottom;align=center;verticalAlign=top;shape=mxgraph.kubernetes.icon;prIcon=node;fontFamily=Google Sans;fontSource=https%3A%2F%2Ffonts.googleapis.com%2Fcss%3Ffamily%3DGoogle%2BSans;" parent="1" vertex="1">
          <mxGeometry x="307.20000000000005" y="330" width="19.6" height="19" as="geometry" />
        </mxCell>
        <mxCell id="uLg59qGG4U38qY8t5iAr-70" value="e1-2" style="edgeStyle=none;rounded=0;orthogonalLoop=1;jettySize=auto;html=1;exitX=0.25;exitY=1;exitDx=0;exitDy=0;endArrow=none;endFill=0;strokeWidth=1;strokeColor=#98A2AE;fontFamily=Google Sans;fontSource=https%3A%2F%2Ffonts.googleapis.com%2Fcss%3Ffamily%3DGoogle%2BSans;labelBackgroundColor=none;fontSize=6;fontColor=#FFFFFF;" parent="1" source="uLg59qGG4U38qY8t5iAr-58" edge="1">
          <mxGeometry x="-0.9139" y="-9" relative="1" as="geometry">
            <mxPoint x="270" y="370" as="targetPoint" />
            <mxPoint x="281" y="260" as="sourcePoint" />
            <Array as="points" />
            <mxPoint as="offset" />
          </mxGeometry>
        </mxCell>
        <mxCell id="uLg59qGG4U38qY8t5iAr-82" value="e1-1" style="edgeStyle=none;rounded=0;orthogonalLoop=1;jettySize=auto;html=1;exitX=0.75;exitY=1;exitDx=0;exitDy=0;endArrow=none;endFill=0;strokeWidth=1;entryX=0.5;entryY=0;entryDx=0;entryDy=0;entryPerimeter=0;strokeColor=#98A2AE;fontFamily=Google Sans;fontSource=https%3A%2F%2Ffonts.googleapis.com%2Fcss%3Ffamily%3DGoogle%2BSans;labelBackgroundColor=none;fontSize=6;fontColor=#FFFFFF;" parent="1" source="uLg59qGG4U38qY8t5iAr-59" target="uLg59qGG4U38qY8t5iAr-87" edge="1">
          <mxGeometry x="-0.9138" y="-7" relative="1" as="geometry">
            <mxPoint x="382.0322580645161" y="300" as="targetPoint" />
            <mxPoint x="392" y="260" as="sourcePoint" />
            <Array as="points" />
            <mxPoint as="offset" />
          </mxGeometry>
        </mxCell>
        <mxCell id="uLg59qGG4U38qY8t5iAr-84" value="" style="curved=1;endArrow=blockThin;html=1;rounded=0;endFill=1;startArrow=blockThin;startFill=1;strokeColor=#00C9FF;fontFamily=Google Sans;fontSource=https%3A%2F%2Ffonts.googleapis.com%2Fcss%3Ffamily%3DGoogle%2BSans;" parent="1" edge="1">
          <mxGeometry width="50" height="50" relative="1" as="geometry">
            <mxPoint x="399" y="309" as="sourcePoint" />
            <mxPoint x="399" y="259" as="targetPoint" />
            <Array as="points">
              <mxPoint x="413" y="289" />
              <mxPoint x="399" y="259" />
            </Array>
          </mxGeometry>
        </mxCell>
        <mxCell id="uLg59qGG4U38qY8t5iAr-86" value="client2" style="text;strokeColor=none;align=center;fillColor=none;html=1;verticalAlign=middle;whiteSpace=wrap;rounded=0;rotation=0;fontFamily=Google Sans;fontSource=https%3A%2F%2Ffonts.googleapis.com%2Fcss%3Ffamily%3DGoogle%2BSans;fontColor=#FFFFFF;fontSize=9;" parent="1" vertex="1">
          <mxGeometry x="333" y="407.33" width="36" height="4" as="geometry" />
        </mxCell>
        <mxCell id="uLg59qGG4U38qY8t5iAr-87" value="" style="fontColor=#0066CC;verticalAlign=top;verticalLabelPosition=bottom;labelPosition=center;align=center;html=1;outlineConnect=0;fillColor=#CCCCCC;strokeColor=#6881B3;gradientColor=none;gradientDirection=north;strokeWidth=2;shape=mxgraph.networks.server;fontFamily=Google Sans;fontSource=https%3A%2F%2Ffonts.googleapis.com%2Fcss%3Ffamily%3DGoogle%2BSans;" parent="1" vertex="1">
          <mxGeometry x="383" y="309" width="30" height="40" as="geometry" />
        </mxCell>
        <mxCell id="uLg59qGG4U38qY8t5iAr-88" value="node2" style="text;strokeColor=none;align=center;fillColor=none;html=1;verticalAlign=middle;whiteSpace=wrap;rounded=0;fontColor=#FFFFFF;fontSize=9;fontFamily=Google Sans;fontSource=https%3A%2F%2Ffonts.googleapis.com%2Fcss%3Ffamily%3DGoogle%2BSans;" parent="1" vertex="1">
          <mxGeometry x="380" y="352" width="36" height="1" as="geometry" />
        </mxCell>
        <mxCell id="uLg59qGG4U38qY8t5iAr-89" value="" style="sketch=0;html=1;dashed=0;whitespace=wrap;fillColor=#2875E2;strokeColor=#ffffff;points=[[0.005,0.63,0],[0.1,0.2,0],[0.9,0.2,0],[0.5,0,0],[0.995,0.63,0],[0.72,0.99,0],[0.5,1,0],[0.28,0.99,0]];verticalLabelPosition=bottom;align=center;verticalAlign=top;shape=mxgraph.kubernetes.icon;prIcon=node;fontFamily=Google Sans;fontSource=https%3A%2F%2Ffonts.googleapis.com%2Fcss%3Ffamily%3DGoogle%2BSans;" parent="1" vertex="1">
          <mxGeometry x="388.2" y="330" width="19.6" height="19" as="geometry" />
        </mxCell>
        <mxCell id="uLg59qGG4U38qY8t5iAr-90" value="e1-2" style="edgeStyle=none;rounded=0;orthogonalLoop=1;jettySize=auto;html=1;exitX=0.25;exitY=1;exitDx=0;exitDy=0;endArrow=none;endFill=0;strokeWidth=1;strokeColor=#98A2AE;fontFamily=Google Sans;fontSource=https%3A%2F%2Ffonts.googleapis.com%2Fcss%3Ffamily%3DGoogle%2BSans;labelBackgroundColor=none;fontSize=6;fontColor=#FFFFFF;" parent="1" source="uLg59qGG4U38qY8t5iAr-59" edge="1">
          <mxGeometry x="-0.9139" y="-9" relative="1" as="geometry">
            <mxPoint x="351" y="370" as="targetPoint" />
            <mxPoint x="372" y="260" as="sourcePoint" />
            <Array as="points" />
            <mxPoint as="offset" />
          </mxGeometry>
        </mxCell>
        <mxCell id="uLg59qGG4U38qY8t5iAr-93" value="e1-1" style="edgeStyle=none;rounded=0;orthogonalLoop=1;jettySize=auto;html=1;exitX=0.75;exitY=1;exitDx=0;exitDy=0;endArrow=none;endFill=0;strokeWidth=1;entryX=0.5;entryY=0;entryDx=0;entryDy=0;entryPerimeter=0;strokeColor=#98A2AE;fontFamily=Google Sans;fontSource=https%3A%2F%2Ffonts.googleapis.com%2Fcss%3Ffamily%3DGoogle%2BSans;labelBackgroundColor=none;fontSize=6;fontColor=#FFFFFF;" parent="1" source="uLg59qGG4U38qY8t5iAr-60" target="uLg59qGG4U38qY8t5iAr-97" edge="1">
          <mxGeometry x="-0.9138" y="-7" relative="1" as="geometry">
            <mxPoint x="462.0322580645161" y="300" as="targetPoint" />
            <mxPoint x="471" y="260" as="sourcePoint" />
            <Array as="points" />
            <mxPoint as="offset" />
          </mxGeometry>
        </mxCell>
        <mxCell id="uLg59qGG4U38qY8t5iAr-95" value="" style="curved=1;endArrow=blockThin;html=1;rounded=0;endFill=1;startArrow=blockThin;startFill=1;strokeColor=#00C9FF;fontFamily=Google Sans;fontSource=https%3A%2F%2Ffonts.googleapis.com%2Fcss%3Ffamily%3DGoogle%2BSans;" parent="1" edge="1">
          <mxGeometry width="50" height="50" relative="1" as="geometry">
            <mxPoint x="479" y="309" as="sourcePoint" />
            <mxPoint x="479" y="259" as="targetPoint" />
            <Array as="points">
              <mxPoint x="493" y="289" />
              <mxPoint x="479" y="259" />
            </Array>
          </mxGeometry>
        </mxCell>
        <mxCell id="uLg59qGG4U38qY8t5iAr-97" value="" style="fontColor=#0066CC;verticalAlign=top;verticalLabelPosition=bottom;labelPosition=center;align=center;html=1;outlineConnect=0;fillColor=#CCCCCC;strokeColor=#6881B3;gradientColor=none;gradientDirection=north;strokeWidth=2;shape=mxgraph.networks.server;fontFamily=Google Sans;fontSource=https%3A%2F%2Ffonts.googleapis.com%2Fcss%3Ffamily%3DGoogle%2BSans;" parent="1" vertex="1">
          <mxGeometry x="463" y="309" width="30" height="40" as="geometry" />
        </mxCell>
        <mxCell id="uLg59qGG4U38qY8t5iAr-98" value="node3" style="text;strokeColor=none;align=center;fillColor=none;html=1;verticalAlign=middle;whiteSpace=wrap;rounded=0;fontColor=#FFFFFF;fontSize=9;fontFamily=Google Sans;fontSource=https%3A%2F%2Ffonts.googleapis.com%2Fcss%3Ffamily%3DGoogle%2BSans;" parent="1" vertex="1">
          <mxGeometry x="460" y="352" width="36" height="1" as="geometry" />
        </mxCell>
        <mxCell id="uLg59qGG4U38qY8t5iAr-99" value="" style="sketch=0;html=1;dashed=0;whitespace=wrap;fillColor=#2875E2;strokeColor=#ffffff;points=[[0.005,0.63,0],[0.1,0.2,0],[0.9,0.2,0],[0.5,0,0],[0.995,0.63,0],[0.72,0.99,0],[0.5,1,0],[0.28,0.99,0]];verticalLabelPosition=bottom;align=center;verticalAlign=top;shape=mxgraph.kubernetes.icon;prIcon=node;fontFamily=Google Sans;fontSource=https%3A%2F%2Ffonts.googleapis.com%2Fcss%3Ffamily%3DGoogle%2BSans;" parent="1" vertex="1">
          <mxGeometry x="468.2" y="330" width="19.6" height="19" as="geometry" />
        </mxCell>
        <mxCell id="uLg59qGG4U38qY8t5iAr-100" value="e1-2" style="edgeStyle=none;rounded=0;orthogonalLoop=1;jettySize=auto;html=1;exitX=0.25;exitY=1;exitDx=0;exitDy=0;endArrow=none;endFill=0;strokeWidth=1;strokeColor=#98A2AE;fontFamily=Google Sans;fontSource=https%3A%2F%2Ffonts.googleapis.com%2Fcss%3Ffamily%3DGoogle%2BSans;labelBackgroundColor=none;fontSize=6;fontColor=#FFFFFF;" parent="1" source="uLg59qGG4U38qY8t5iAr-60" edge="1">
          <mxGeometry x="-0.9139" y="-9" relative="1" as="geometry">
            <mxPoint x="431" y="370" as="targetPoint" />
            <mxPoint x="451" y="260" as="sourcePoint" />
            <Array as="points" />
            <mxPoint as="offset" />
          </mxGeometry>
        </mxCell>
        <mxCell id="uLg59qGG4U38qY8t5iAr-102" value="e1-2" style="edgeStyle=none;rounded=0;orthogonalLoop=1;jettySize=auto;html=1;exitX=0.25;exitY=1;exitDx=0;exitDy=0;endArrow=none;endFill=0;strokeWidth=1;strokeColor=#98A2AE;fontFamily=Google Sans;fontSource=https%3A%2F%2Ffonts.googleapis.com%2Fcss%3Ffamily%3DGoogle%2BSans;labelBackgroundColor=none;fontSize=6;fontColor=#FFFFFF;" parent="1" source="uLg59qGG4U38qY8t5iAr-62" edge="1">
          <mxGeometry x="-0.9139" y="-9" relative="1" as="geometry">
            <mxPoint x="512" y="370" as="targetPoint" />
            <mxPoint x="532" y="260" as="sourcePoint" />
            <Array as="points" />
            <mxPoint as="offset" />
          </mxGeometry>
        </mxCell>
        <mxCell id="uLg59qGG4U38qY8t5iAr-104" value="client3" style="text;strokeColor=none;align=center;fillColor=none;html=1;verticalAlign=middle;whiteSpace=wrap;rounded=0;rotation=0;fontFamily=Google Sans;fontSource=https%3A%2F%2Ffonts.googleapis.com%2Fcss%3Ffamily%3DGoogle%2BSans;fontColor=#FFFFFF;fontSize=9;" parent="1" vertex="1">
          <mxGeometry x="412.7" y="407.33" width="36" height="4" as="geometry" />
        </mxCell>
        <mxCell id="uLg59qGG4U38qY8t5iAr-105" value="client4" style="text;strokeColor=none;align=center;fillColor=none;html=1;verticalAlign=middle;whiteSpace=wrap;rounded=0;rotation=0;fontFamily=Google Sans;fontSource=https%3A%2F%2Ffonts.googleapis.com%2Fcss%3Ffamily%3DGoogle%2BSans;fontColor=#FFFFFF;fontSize=9;" parent="1" vertex="1">
          <mxGeometry x="493" y="407.33" width="36" height="4" as="geometry" />
        </mxCell>
        <mxCell id="uLg59qGG4U38qY8t5iAr-113" value="" style="shape=image;verticalLabelPosition=bottom;labelBackgroundColor=default;verticalAlign=top;aspect=fixed;imageAspect=0;image=data:image/png,iVBORw0KGgoAAAANSUhEUgAAAgAAAAIACAYAAAD0eNT6AABfl0lEQVR42u29d5RexZUt3sLGgQEvB+Y34zVvHMZ+9thvnsfzkEGAyVFEY4IBgxAYMFERlDNKCCEJhRaSUEA5IAlllJGEcg4o59D9dc7p61C/2hcJg9StTrfi3Xutvd4fb4z6u7dunVOnztk7IYEgCIIgCIIgCIIgCIIgCIIgCIIgCIIgCIIgCIIgCIIgCIIgCIIgCIIgCIIgCB0QQnxb8irJZyUHSc6R3CqZKpkv/oEiyZjkDsmpkt0kH5C8kk+RIAiCIOwP+JdIXnc2gH8qWSzqj/2SQyXvk7yMT5kgCIIg7Aj6DSRvkHxfMlmoBRKKjyUfl7ycT58gCIIg9Af+H0i2lTwozADXBjOZDBAEQRCEnsD/b5IDzrvDN42Cs70D90t+i2+JIAiCIMIL/FdI9jx78rYZmZIjJG9GTwLfHEEQBEHULfB/X7KdZLpwD8ckX2JVgCAIgiBqHvivlOwumS3cR5JkC8nv8s0SBEEQROWB/8eSb1t2xx8W0s9WM67gmyYIgiCILwL/TyQHO3DHHwayz2oV/JBvniAIgohq4P+l5EjJuIgeUOXoK/kvXAkEQRBEVAL/byUnSJYJouisVPG/c2UQBEEQvgb+/5GcIVnBuH8B4mcVDX/BlUIQBEH4EvgbSc5njK8RUBUZhyoJVw5BEAThauCHIM4yxvQ6oeKswuD/cCURBEEQrgT+uyXXMoaHBlgZN+LKIgiCIGwM+nDm+5PkVsZrZViMqgpXG0EQBGFD4L/krCve54zP2rAaVRauPoIgCMJE4L9UsqnkYcZjY9h0turSgCuSIAiCUB34v3PW5OYk46812HW2CkMHQoIgCCL0wH/5WVObZMZba3HgbFXmm1yxBEEQRH0Dv8uWvFHFcUErYoIgCKKOgd8nS96oglbEBEEQRI0Dv/OWvCXxCrHnRFws3looxi3NE/1m5IguE7JEq1GZ4pVhGeKFwelVsuXITNFpfJYYPCdXzFxbIHYfj4tS9x0LaEVMEARBVBn4nbbk/VwG/F5Ts8UTb6eJPzRPEv/v9fB4fevkIDFAQlFS6rSNAa2ICYIgiC8Dv9OWvNuPlIjXEjNCDfgX4+0dYmLUJ3kir9DpRIBWxARBEBEO/E5b8m7YVxyU7HUF/vP5xzeSxeC5uSIrv9zlRIBWxARBEBEK/E5b8q7aXSSeeTfNWOA/n9e2Shb9Z+aI1GynGwVoRUwQBOFx4HfWkrdCpipLthUF9/u2BP7zeU2LZNF7WrY4k+F0IkArYoIgCI8Cv7OWvOXlQszbWCge6ZVqbeA/n2hA7DoxSxxPKXU5EaAVMUEQhMOB31lLXozdffRZgXiwhzuB/3w2bJYk2o/NEgfPxIXjoBUxQRCEA0HfaUtezO9PXpkv7umS4mzgP59XyUQA+gN7jjufCNCKmCAIwsLA77Qlb2FJhRi7NE/c0THmTeCvjBhX3Hq4xPVEgFbEBEEQFgR+py15MUs/YmGeuKWd34H/fGJ8cd3eYtcTAVoREwRBGAj8TlvyZueXBzP0N7yZHKnAfz6b9E8TK3cVuZ4I0IqYIAhCQ+B32pI3Pac8mJm/rnW0A//5fLxvWiAzXOG0uCCtiAmCIFQEfqcteZMzy4IZeczKM+BXzT/3TA3GHsudFhekFTFBEEQYgd9pS94TqaXBTHzY5jy+8/5uKcEYpOMuhLQiJgiCqEPgd9qS93BSaTADj1l4BvS68+5OKcFYJMYjHQatiAmCIGoQ+GHJO0Q4bMmLmferGPhD5W3tY8GYJMYlHQatiAmCICoJ/LDkHSVoyUtehDe1iQVjk7mFTjcJ0IqYIAhCfGHJO1HQkpesgxVxZh6tiAmCIFwL/LDk/UjQkpcMwYo4hVbEBEEQ1gd+WPIucHGXdsGSN6o8Z0V8Op1WxARBELYFfljyLndxV3bRkjeqPGdFfCxGK2KCIAjTgR+WvOtc3IV9sOSNKs9ZER84TStigiAInUH/nCXvNhd3XB8teaPKc1bEu2lFTBAEoTTwf0N8YYqy18UdNiqWvFElxjS3HKIVMUEQRJiB/1uClrykK1bE79GKmCAIor6B/7uClrwkrYhNglbEBEFoDfyw5G0paMlL0orYFtCKmCAIpYEflrztBS15SVoR2wpaERMEEWrghyVvD0FLXpJWxK6AVsQEQdQr8MOSt5+gJS9JK2JXQStigiBqFfidtuTdQ0teklbEF/S8CloREwRxkcDvtCXvtsO05CVpRVwNaEVMEMTXAr/TlrzraclL0oq4tqAVMUFEPPA7bcn76S5a8pK0Iq4naEVMEBEL/E5b8mJmm5a8JK2IQwWtiAnC88BPS16SpBXxRXNsQStigvAq8DtvyftAdzrzkbQi1gxaEROEo0HfC0vexrTkJWlFbBq0IiYIRwK/F5a8t3egMx9JK2LLQCtigrA08HthyXtzWwZ+klbElmOzoBUxQVgR+L2w5MVsNQMESStip7Bb0IqYIIwEfqctedPOWvJilpoBgaQVsdOJwEFBK2KC0BL4nbbkTcqgJS9JempFfELQipgglAR+py15j6fQkpckI2JFjKokrIgv485NEPUL/E5b8h46Q0tekoy4FfH3uJMTRO0CPy15SZJWxD5ZEf+IOztBXDzw05KXJEmfrYj/lTs9QXw98NOSlyTJKFkR/4Q7PxH1wE9LXpIko2xF/EtGAiJqgZ+WvCRJ0or4i6rnh4JWxEQEAj8teUmSpBVxJWcLyWmCVsSEh4GflrwkSdKKuGaYK2hFTDge9GnJS5IkrYjrjiWCVsSEY4GflrwkSdKKODysEbQiJiwP/LTkJUmSVsTqQCtiwrrAT0tekiRpRawPtCImjAd+WvKSJEkrYnOgFTGhPfDTkpd0lvd2TRGJ83PFloMlgZBMVn65OJxUKhZsKhRtxmRyXdCK2EXQiphQHvhpyUs6S/R2zFxbUO1Gn5xZJt4cnclnRitiF0ErYiL0wE9LXtJpPvVOWq1lY6evLhANmSzSithN0IqYqHfghzNfoqAlL+kwnxuYLorqaCc7e10BnyGtiF1OBFCthfHQ7xjRiJoG/v8jHDbooSUveY6NO6eInIL6Xe72mprNZ0krYtetiIEtZycHvsEoR1QW+P9dcqyrgZ+WvOT5DGPcK7+oIjgN8nnSitgDK2JxVqelKUcIiXOB/5uSbSQLXFzNtOQlK+MTfdNCW2OjPsnjMyV9siIGtgvKDEc++P/PWVEJp0BLXrI6TlgRXs9qLLOMvSSkj1bEwDiMdjMaRivwX3K2S9Qptwxa8pI1ZdiOcI/25pojvbUiPiPoNRCZ4P8jyaUurU5a8pK1dYOLl4XbyoJRUj5b0nMr4t5sEvQ7+P8emjiurEZa8pJ17dwOG7j35bMla2RFPNJpK+KVkj9ktPQv+N/tipgPLXlJJgCk63zVXSvi/ZL/wajpT/Bv6sJ9Py15SSYApG98fpCTVsSpkv+X0dP94P+y9XJVtOQlmQCQnvNp96yIMUt7FaMog7+a1UVLXtKRBKDHZCoCkuHwL32csiLOQe8Yo6l7wf9RYamqHy15SdWNWGFvrijj8tmSYfKht5yxIobL4M8ZVd0J/jeiid62VURLXlIXU0NWaru1HftSSDW8r6sTVsQHMULO6Gp/8P+FZJZNK4eWvKRubj4YXv4LQyE+U1I177LfingJdQLsDv7/JLnLltVCS17SFMctzQttHe84WsJnSmojqk0Ygy4otjIR6MdIa28CMMmGFUJLXtI0/z4kPbT1PGd9AZ8paaSZFWPR9bW0VoDGjLb2Bf+nTK8KWvKStrBRy+TQ5IA5Akia5Dkr4oxcaxIBNAVeyahrT/D/2dlxDSNYu7eYlrykdQxLjvWxPjQCIs3znBVxLMuKbsEZjLz2JACfmFgBh5NKA7lLfpykjZyxpiAUdUo+S9ImnrMiPpNhPBG4h9HXfPB/XPdbLymtEIM+zuE4H2k1B8zKCSXJ5bMkba0IfLA4L3Tny1rgiOR3GYXNBf/Lz97HaD310xuddIEYPa33BMARTgCQdvPPPVPF1sPGZF/aMhKbSwC6ax0C3VYkrmtN9T7SDT43MD2UNc9nSdpOaKygUbBMf58gsuzvMxrrD/4/lizQ9ZbHLMnjPD/pFO/vllLvdT9lVT6fJekMn3onTZxMLdWdBLzFiKw/ARik6+0is+THRbrYLMW1T0ZRP+Czz7XaD2dChI5RWV/wv1IyX8ebHcINkHSY9Z2d7jIhi8+RdO9KoHk4UzC1wKuMzPoSgB463uiUT1n+JN3mgdP10wKgoiXpMseGKIldDfYxMusJ/pfq6PzfsK84yCL5EZEuEyJV9QHuVPkcSaeTgCXakoCrGaHVJwCPqX6L6Tnl4rb2tD8l3efsdfUrgzbunMLnSEb+O6ghhjJCe6D612JEJj8a0guOWlS/00+jVhx7Jd3n1S3CtciuAkmSDRil1Tb/KZ3xWLGTc8+kP+z3Ud3VAAtLKANM+sPbO8REWo5yoYDfM1KrSwBeUvnmICLxYA+q/JH+sOvEuqsBYrPkMyR94uvDM1QnAO0YqdUlAPNUvrl5Gwv5kZBe8Y0PMuv8PZxKK+MzJL3jos2FKsPIXEZqNcH/26qV/x7vy45n0i++MqzuJx6MEPIZkr7xzo6x4HpLEWKM1moSgJtVBv/93OxID/nC4Lr7AWw7TCMg0k+OUTsa+L8YscNPADqofGOJC6j4RzIB+Cq2HGICQPrJW9vFRElcWRXgMUbs8BOA+SoTgGfeZfmf9I8vD637FcCOo0wASH/58XplN8oDGLHDTwDSVb2t8nIhruW8M+khO4zLYg8ASVbCZwcoCynrGbHDDf6/Unn6P3iGGx3pJ9+dlcMEgCQrIezdY5llKkIKFIe+zcgdXgLQRGUCANcofhCkj1y8te4jT/lFFaJhMz5D0l9+9Jmya4BrGbnDSwCGq0wAOo2n5SnpH+/qlFLvRqdX6QZI+nxF9mGWqrDSipE7vARgh8oE4P5uNDwh/SKcLOFoGcb12HWt2R9D+kns/YownZE7nOB/Ofr0VL2ljFzKnZL+Bf8w1c5W7y4W17RgEkD6SUX+AKcZvcNJAG5TefpfvoPmP6RfnLoqP/TvZNXuosBRjc+X9I1LtxVREMjiBKCTygRgwOwcfgSkVzx0Ro1h5qO9aZRF+sf+M3NUhRcKAoWQACxUmQA0HZDOj4D0iqnZSkabxAvv8Vsh/ePT/dMoCGRp8G+Aa3pVb6ektIJ3m6R3xLpWgTajM/l8Se/4h+ZJoliNLDAFgeqZAPxa5el/xxFKnZJ+8bb2MWXfS88p2XzGpJfccrCEgkAWJgBNVSYA45bmcfGTTvH2DjHx1Dtp4k15Gh8wK0dMXpkvVu4sEvtPxUVOQbnKz0WcSC0Vn2wtDL6bfjNyROtRmeKJt9PEH99gFY10mwrdASkIVI8EYITKDa3VSJY0STt5T5eUIMAOnZcr5m8qFHtOxANlPluBvoOth0vErLUF4p2ZOUG/wE1tYnyXpBN8fbiym+Y3GMnrngDsUrlp4TTFxU+a5s1tY6KlTEbHypP1hv3FIju/XPiCpIyyoEIxeE6ueH5QOkWFSGu/wQo1+fVHjOR1C/5XqBQAQjmTC580wVvaxUTbMZli2uoCcTipVNXGYyXgvLn3ZDy4umg+IkPc8CYTAtIOHklWMj6bxGhetwTgdpUb0byNhVz0pDZlvib908SIhXli17G4KI9QwK9JQoBnMuqTPPHMu2k0HyKNEddXivATRnTLBIDY0UyqJFTzXkvMELPXFYjMvHJG+hoiK788SM7R5MjmQlInu0xQZgz0F0Z0ywSAqGpGqpgnRjPRgk2FVjfsuQI4GUKqu82YTHFtKyYDpFr+qUeqqqU8iBHdIgGgvEL6nJPhEaNwk1bmB8ZShBoUllQEI4ioqvDbJVVR0Te8kVHdIgGgtXuLudjJehHNa32nZwdNfIRepGSXidGL84ITG9ciGSYxsaIAccnvMLJbIgCUOD+Xi52s82kfzUI4kRLmsflgiXjjg8zg+oXrk6wvB32szBjoOkZ2SwSA/j6EpiZkLbr4myWJFiMyxbbDJYy4liKWVSaGzcultgdZL8IcThEoCGSDABDGjthdTNaEaDzDtMjxFJb5XWocnLGmQDzQPYVrmKw1YQ6nyEyLgkA2CADtOxmP3KK+Sp5g7+gYE/d2TaESWw0DPzzC03PY1OcqoLWwdFtRcGXDNU3WhjuOKqn0URDIBgGgqavyI5PJdp2YJdbvK77gvhqz1ou3FgbjVbw7ZeD3HSt3MRGojg/2SBWdx2cFd+ADZ+cEM/EP94xmkyXMrhSBgkCmBYA6jMvyfgG/ODhdnE4vq9HzwP9du7FZkd78oNTXY3J2YGhDMBGICq9vnRwYN0EWvSqclP9/cH7EgSIqzwW+HIpAQSDTAkBwWfNdzaouUrPTVxcEVwVR2wShR89RvugAvgsQamrcJdo9Am1GZ9Zq5v3QmVLx0FvRqAjc2i6mavlREKgGAkDK0i+c8HxeuLBgLa9H9XrFzqLINEhCCXLLQXb1R7lZEO6LN7ZJjly1C02SdQGuDqOSBChq/KUgUDUJwG9UfvRLthV5u2AbtUyucdn/YoAjVuPO/p6OsOFDta+c1/zE2aD21pTsSKgLouS/8UBxvZ4XqmXYa3x/VnPWKzEGoiBQNQnAcyo/dtx3+bpgMa4WFk6llXmXBOB6A01OlOslKsOe43Hx1Dv+9gfc1j4W2lXX4Dn+C6mhJ0gRKAh0kQRgpMqP/On+/n7gO46EW85GEnBnRz9EVe7vliI27CtmlCOq7Q/46LMCcVObGIP/RZCWUx5cJficAGACQhEoCHSRBGCPqqdeHK/wduQNHboqStr7T8Wd7glAWRdjfZTtJWob4FqNyvTmyktFk+vfBvmtpoqKYU6BkmohBYGqCP7fQxKu6qPeerjE28WKxhxV+OzzYiezfcw17zzKJj+i7oCQkMvSwrirVyVfPWBWjvfXAKt3K6kaUhCoigTgTpUf85glef4a1PRNU7oRYjrAJQVB3N/x1E+EAZwCIZjl4r4wf1OhsucyYbn/gmqD5+aqenw/Y8S/MAHoovJDbvZ+hrcLFbaoqgELZduvUHDXCbEXgggb8zYWBhbQruwJIxflKX0ek1f6nwA8P0iZMdATjPgXJgCLVC7YW9r56xKGHoAyDc3tH6+3VywIH2saJXwJhTiTUSaeHZge5ZPrl4DzYhSkwUvViIMOZsS/UAAoS9ViPRYr9d/A4oie+27bMn8kJNjwONdP6ABUNofK4GdrIjxhRb6W59DakybJ6rj7eFzF49vEqK9RAGj2ugLvFyqacnRh1Cd29FPc3DamqlGHIKq9ErOtqjh2aZ6W345kG99eFBIARQkVxjK+y8ivSQCo+6Rs7xcqPkidjW/vGRYDgZRvGMqHLgNaDcu2FwXl2I4fZmn5N6GcBy19WKZm5kW77BLLLBPPvGuHtsgQDWX/c/h0V1Ekgj/45mhlyvR/ZOTXJAD054jYWurcBIDe08wkVnDrKiiOTpc/7iH3n44H8qT9PsoJ+h3Ob0iD2JEOHD3vOg06ERDYwuQFrLYxbhuld1NSWmHcTRPJuE7YkvTo4B0dlRkDtWHk1yAAhDGeqLjcXd0iSew6Fte6GeisBOA9Ismp8Dy+4JSNkz2C/V/7pQXv1fQo6Jen3qzqDbWgG/GXPmlBgohRNDTP+Q70ofja8PdVLNxcGDnnREWVxlmM/BoEgHBHHKXFCvlelIZ92/wQBOduKPQyeGCCA4ItSG4QyOuSsMIJUgfyiyrq9P4e6J4i+kzPDjQl8gr9zOBmrS3QKpoFbROdOJlaGjn3RIV6CsmM/hoEgIbMzY3cgoWRz2bNVreJ89U9Z5SZ1+31q9kPdrTLdxQFBkVhbKotRmRq+9vDSOZeGZYR6O77NroJ5UzVollIECdq6vY/h5TsskBdM2p7KYhKliJQEEgoFgB63nPNapt6AqatDv8EhIoGPAl8ALqnESA6jMsK3WNBVxMgEOYpEH4NmK2HR70i7XXt2HMiHohSqZL3XbSlUHvwf6RXamT30cf6KBNaoyCQUCgAhNKqSxK2Kvjy0AytVwI41TZqFc4zR9lY93WGCqBx7t1ZOUp15RWeUi5A4y4pyoLbGx9kilW7i4J5e5eBcjnWb5jPB2OHuvQ+zgE9RXd0jEV6D0WSqujaanDUg79SASB4fEd54X5V0QozwmWaDljYpOob7DC5gZOHq0Dn/qLNhdpc0wZr7ATHCKbq33OPTDI+WJwnMnLdrQrgegOnx7DsaU+klmr72+NlFYGcMFRGuYcmBboPCrAp6gmAUgGgSRHQq66tayCasHQA3eJN+qfVueSGTngXgTI2mrPu7pSi9d3qbAjTOQaGAITrjYNn3LwGwjp+un/9nlen8VlaNT6g8RDlkn9lTFygJMGOtiCQUCwA1HZMJhdvJXxuYLqqjPaCKxiMCdamLwBJAzrNXUO6PO31n5lj7MoJ/Re6gAY+E5LPryZmiE0H3LN4xnrGlEatr0RaJQeNkrqAcU30p0RlbLo2/PsQZVM2f4xyAjBK5YK+S/MpzDWiPI37adU4nFQazLS/NCQjOM2htDtgds4F8+04+bvWCAY1ONy/my6VqrR+PR9tRptNrFGB2HLIrUSgOF4RBJGqplyaDkj/MlFG4MczPhbTU/LPLSwPvkeW+6vm9TKxV+Q30ibKCcBeVYs6ObOMC7eGjVcob0HRTDc+PxEPriVcLPtny78V/gthNTzWlzptkG2R1n5hcLrYedSdRABl/POvxV6Uv+GcUBK+QSTApZpaX/Dv4Jo0Krr+9eXek0quoWZFNfh/XygUAMKoDBdt7TruN+zTP2tfJDfF4TIBcSX4Y5PGfbtt3vA6T8S46rDpt2NywBVfCFwHIAnAqX+6xmub87Fhf/GXyTdZM05ZpUR7ITmqCcBdKhd43+nZXLR1IHTN03PorVsZIM8LzX0b35tOrYQRC/OsrGRhEsKF/hH8jabkkTFVgXt+7nV12xsV4WdRTAC6qVzoT/ZL46KtI29qExMfry9gxD8LaBFAT8Hmd6ZTLwEWqTabtyzZVsRFex7gn4GKQxSlfMMiJnsU4YkoJgCLVd616dTk9rnz1QchnvrckaJh0ZZ7/otRpzXv7HUF1j+P14dniKSMMkZ+iSPJpUGTIfe0+hNNvwowOGrB/xL0Uala8BgV4mINhxhrm/JpfuQ2Tdjv6hC8CYsQbtEFnLC5du0H1gSua3A9wr0sHH6yVcm0zZaoJQC/VbnwRy3K42INma8lZkSiNwDaBdg0a2LBa9P9t05AQ8K1Spaik5u1OOBYAusK0VumYtuRvCxKCcDzKhc/ghUXa/iEwcmaPcXebproJG/SP83J96ITUIpz7RlhamPBpsJIBP8Jy/N56lfEJ95OU/XaboxSAvCBymYXNLFxsapTZBs2L9d5s5bzgbFR20b7ajPCqROHzpQ6u367TswKRk99BLwHXh7Gw49SY6DmSapkmdtSACgEQHWOC1U94T8PdTMf7kl7Tc3mqaQWQHOdy88LpXE0xvkEGHBF3bVPF6GhoAAfUwAoBMxcW8BFqolPO6rbfw71MSyyiVDE0wlYo/og7bp0ux/jgvM2FlLGVyPhkqgAKRQACgFdJlDkQic7fJjl7ImpvpbFtrDVyEytzw7XbL5cZyXOz3U6+MMEiuY9egkzLEX4DwoA1RN/6sHOV92bqCsyrOeAZjCfTkydx+tPwiBl68vzaykTqEIH+wJOpJY6oVHhG9ErpKgH6kkKANUDEEPhAtVPl7qrceLjaFL94ZvT5l/7pQUyuS6hD+XOjfHgGSXS20MpAFQPrNxZxMVpgOOW5lm/WSJjt8XFLmwOnae/jO2jkQx8Ho6nuNMc2Lgz7c5NccYaJVLpW3xPAJQKAL03J5eL0wAhnGMzMK3QfIS/41FjDSRgT7/jp9fGre1iYs/xuPXBv6C4gnuPf71PfgsCCcUCQM9S79rYWFWapSqB2CihBMfTSLh4aYi/CRUMc7YdLrE6AcAEC/ces9UiRbjR5wRAmQAQ5rnZEGP2g0BTkk04573u+7NfuFl/D0brUZnee2BsPmhvEjBgVg73HcNUdOhp63MCoEwAaNexOBelBZK0n5+wp3w6PSIjUqt2659nh6JeFHQuSi0bcMHfw1FnO7hUje30x74Gf6UCQOOX53NRWkDokNuE1buLg8TE52e+5ZD+k2q/j/w9gSJpfHtGjigptWs0EL0ssDnmPmMH+8/MUfGaU3xNAO5W+XG88UEmF6UFinQVFo5Tw8XwFY810uH8phs+jlOCEIf67HM7Da9OpZXR5MeyCpEi/IePCUAPlR+HL6puLtP27mlfXdJMCDF9uMy/iluz9zOs1wLAxA33Gjv4h+ZJqvxQnvQxAVii6qPABsgFaZbtx7ohCbz/VNy7GfacAv1B66PP/PHcQPMwJHVdAK4lqHZq0fWbmkbRob4FfwgAKVMrmb+pkIvRICELm5rtjhww7GB7TvFHFKjMwKEV9sk+PLu/9EkLHERdwsYDxdx3LOGYJUo0OLb4lgD8l8oPovc0SmKa5HjLGv9qimXbi8TNbd2+OrpWnl5NNVe63uj3zkz7Gv1qCgjRcO8xTzRlKoBfgkDyx7yo8mNAFs/FaIaP9Eo1cgINreU2u0y88J67QkHofTGBrYdLnH5ma/cWC5eBGXSfDJlcJQ4Qihqfb/QpARij6kOA0ltD2mEa46YDJcJ1wCcApTw09bj2/HEfbAKYPHC10Q+mYT4AvvTcg8zzSLKSK6T2PiUA+1R9BOv38T7M5GbqE3Yfj4sHurtlsAIXOxM4k+FW461LjX41BTrQ7+5EQyDTnLVWybqa60vw/4HKj2D4AhoAmSCqLofOlArfgIpS5/Hu3K++ODjdyHPC5AEb/cxj3kY2QJsmlBkVINWXBKCxyg/g5WFUxvJo0VsDdLnDFMb299BqVKaR54O+Dzb6mQfun594mz1Qnl7D/ZICQNXc3bIRxkA5tWWySM4sE74D+hK2O0yaTMRsNt/yodGvpli3l9egpqlIQOopCgB52IjkOt+dlSOignL5XScuyBUNLW0QhCa/KdiqvulTo19N4fIkiw9cuVOJMVAiBYAuAvigc/HpnztPz4nW5gpsP1Ii7u1qX8MVNPlN4UHLFOl8bPSrKWAIxf3JHAd9rCQR30YBoIuAYhgGTpwzckRUkVtYLtqOsct0Cpr8pvBkP3vunn1u9KtxFWAwqwCm2HSAkmZc3LP+EwWAqsD93TgCo5PXtEgWsQjc/VeHOesLrOk9gSZ/lAMOGv1wJRUvq4j8umQVwOzeqKjZ9GYKAFUClKG58PSyx+RsQXyBE6ml4ql3zJ+AMa1gCphAMPnb7+wYC3RACFYBbOCOo0pE0dq7nAAoEwBaur2Ii06z9SX8yIl/oFQ+jvfm5BpVolyzx1wANKmX0GJEpsjKL+ciPA+ffc6JAFMct1SJMdBcV4O/UgGgAbNyuOg08s3RmdxdqwDkkO8ypMi27bA5Kea+0/WbcKEJFc2/RNV4tDftgk2w5Ugle2SqqwmAUgGgJv0pfqGTWw0EmlW7i5zZdLPlabTVSP0l8YNn4sZ+85C5elU4H++bJo7G3Gn0g0Y8tCR04+P1nI4ywVvbKTPm+qWLCYAyAaCSeEXQdMFFp2/j1Y2Vu4qc1BzA6fRajQI5SRnmrmXGLtFjRuNiox/ug+EU12qk/soZntMdHWPcuwzweIqSBPUpFxMAZQJAmMnmYtNHnCh0b2BfNeXpMC4ruG93BTilImnS8W4wmmgK01erP2m62OiHvozrWv8jCdywX//fP3oxnQJNcI6avTLRteD/DaFQAGjsUi5uXbylXSyouGg9WVbyfl8emiHyi9w5AWIkCDr0VyluECw3+Ejmb1JrRONiox8CwPmqkbiTL9f8M6CEyCqpN5NS21xLAH6ncnG3HJnJxaaJA2frLcHjLv2GNyvfuJ6Qp2rXVAjRla1KMvemNjGjv+3cNQ0b/f5xJVJVwqe7igbYJloVBT7cU4kxkFuCQPKP/bvKhY1mCy42PdStroaE42J/D8SfFN2zKQOMQl5LDN+18tkB6UZ/1w4FV3GuNfqdA6o9F/td93RJ0X6NhekU7mH6halgla0AN7uUAIxTtaix+XOh6SGEbnQiTZ7ua9JAd1v7mNh1LO5ckJi0Mj9wUgzr/Qydl2v09xTHK0L7Pa4q+iGotx9bMz2EySv1yzb/qQdHAnVz9W4lPR/tXUoADqha0HM3FHKRaaJuY5Xe02o+V44mK5MiOHUFxvZQJqzvu4H4kA0n5TDUAF1V9CsorhAvD6t5ZQdXQcWa+2kmrMjnXqaZg+cqScznuhL8f6RyQb81JZuLTIezmjzZ6ewwj2WV1bppCc1WJu5Wwzg51ybZqYxdJmRZ8Vv2n4rXq9nMVUU//M1/rYMZ0pRVeqsA6Km5ugX3M518fpCSq7lUVxKAe1Qu6Ed6saSlg23G6J1f7j8zp86l45GL8oSLgIf4LXXoZ2ncOcUqv3skYbWddkAFx6SRUX0AcZ+6WiGb6AVo9n4G9zTNapWK3vGvXEgAeqpayDiRXtWMC0wHF2/VZzKDU0p93fV6Tc02OhJX57Q+u0y8WAsDF5TLbbS9xfhboxoKID3xdpo4FnPTuvfA6Xi9RXbmbdRr4LRoM69NdXP3cSU9Sk1cSACWqVrINLrQl8EWluiLpiMWhqPrgPto3XesYaCi4gvtg+pKtSiXp1k8BomehOYjMqpM0qGMB8MUV617Ybd7Y5v6Nz1CF0An8C1/VZiIVE/0XijAcBcEgJTVY9H1zMXll/EPgkGYc/LPDkxXNYajHHBbHCbXOO4QG3dJCcrFTQekB46D+066M/VwJqNMzFpbEIx0ojLz/sLcIHkvibsZ+IFl24tCFdbBiJ5O1HRSgbR6D90RaQGgF+l1rYULN+srUapQk0OXfSyT1sVEOIAo0fnqfvVl61F6e2wwmsa9TR9xTaQAONlcHkkBIEhpXs8ylpbuf52Su08rcnW8u1OKOHSmlNGLqBdQvVCxPpFQJGtMUlFpq2+fDVk7KnKCvDWSAkB7T8a5qDQQc8268PkJte8U97W4tyWIWh84ZA7cU/HI8TDNQk5tRlMaWCcXbFJSSe0QSQEgzM9yUTnbvFIp6jsLXxPi3nbp9iJGNKLGgJHTGx+oD5YY56zQ2BaB6QPucfqI/U3FrWkkBYDasYnFK+1/NITBzEbHb4Jq3pRP8xnZiGqB6y80Yer63jZoVEDEuG3YvQxk1Xysj5Jpj/RICgChK5qLSv2JRBcWbdF/GkE3PUFUBYxY/qVPmtY12eFDvYqOfxvERmpdxMEjr1BJiedXNiYAygSAIBPLBaWe3Sdla9uIXhlmRp0MErqlHBAgzsOJ1FJxX1f9hwzdmhvQYeBep4/r9iqp8DSxMQFQJgAEVTouJn/U/yBja7IU+WpiRmDkQhAAmlHhMBkF1U0oGXKv08fEBUqqjsNtC/5KBYD6fZTDxaSBkKXVAYjEmP6tMHLJyC1n9Is44EJoerxYp/AWmg6hyMj9Tg//PkSJMdAO2xIApQJA8KXnYlLLe7vqu/9/LdEOc5IHuqcE6ntENAGN/DDV/Vy5BgjDwpmsGZFclod/zrBLEEgoFAAqkh/GH9i5qpwdNTUjQabXJntSlH5RAiaihUkr860yFlu6Td+o6rTVBdzzNFKRjPetNiUAygSAthws4SLSQMid6jp12Zilr91bzKgYEWAaxLY12HWivmkAjPpyz9NHaNgoQAebEoCDqhbr6MXsWtVBXbK5ncbbqeeAqsTcDYWMjh4DpVgEWhvXHwyxdIoCmWx6jBqhYaMA820J/leqXKivD8/gItJwB1muYfPBBndrO3s3HpSExyzJY6T0ELCJtn0v2avR8bHZ+9xXHddXSbclAbhP5UJlx6p6wpBHB/accGME6e0ZOVoSIkIP0HcCW2Xb192oRfqST/xb3Pv0UZE76a9sSAB6q1qkR2O8q9JBmJ7owFiHREgwmgVNeMJtQEQM9tAurLkXBqdrey7oeeHep4+fqNF6aGJDArBC1SKdvY7dqj41ANoy/ldTQjZVkZQnoQFHkkuD8qszVtytkgPbXh3Iyi/n3qeRfacrOWQNNx38IQCkzGWl26RsLh4N3HFUvWUuGrBc9CN/tHeqSMmmVoBrwJp28fpwxxF99tX3d6O/ii4+2U/JNesu0wnA71Uu0IfeSuXi0UAdsriu3P9X1cSD0yThBlbvLhbXtU52cq19sFhfH0Cb0RQE0mYM1DxJhdgTBIGuMJkAvKxqcWazRKWFd3aMadlsMAvr8nOCdfF2jaczom6Ys77AactbTCrowvsLc7kHauSG/Uq0Rm43mQCMV7U4V+0u4qLRdM+tA3Dh82FccvmOIkZZS4ERTpvU/erCW9rFtD0vmqzp5Ug1Ux6dvBQAGjyH2akOdtNkAfxIr1RvSnnTVxcw2lqGd2b6Yximy5/i4Bk6A+p2IVWAhV4KAOFkykWjnqM13Dmix6BhM7+emyKbT6KWKJWxEkprPq2tRVv0KFJizLUhfVa08YY3lQiuIato4JUAED5qlFu5aDSYkGxXX9LedczPkwY05QlzQAB7eZh/inYDZudoe4ZwxOQ+qI+ouijAr70SANpznKUpXcSz1tGY5eOzw33zOpoIGUOPyX6OCb+WqK8RkJLAXmiuNPVKAGjiinwuFk3UMeM+YFaOt89P0XxvKBixMC9Ql6sr0ZEOwRgbAQvnq5r5uaYad0nR9hx7T6PWik4qsl0f4ZUAEOdT9bFUQ7+RawqAtSXsVW3DwpBsl18akmGlL0J3z0XCdClQYnKC+6A+QnxJxS2rVwJAmE3nYtFjQaoDviuO2TYVAGvnMIVwBlvY63BPF7/XFPpmdGDBJo4C6mZaTuhVNb2CQEKhANCZjDIuEk18rE+q8g0Gp8erW/j9HHU2bVWH3MLy0Bu7UGq3Sf8AstJ/8Lx7XdckwNbDJdwLdTdeb1PyLd3uhQAQFj4XidNzqV8DbDB9f479Z9qRAFRUqGvqgo/DsVipNQkAx3PDwel0Hrh0891ZSvaLTl4IAPWZzqYUXcT8tGpsi8AJAzbHtjT9qfydsNXV4RtRE7ho9FMbYsJBBzBKyb1QL5/ur6RxeKEXAkBP9E3jItHEt6ao32SiUNHZcsi8R8BnnxdrEVt6c3SmFQlA8xF+N5a+MkzfKKCrxkmuEtdXxfHQE2k9gkBCoQBQoBhHZSp9d9ez1JeufR/pxMhWueFJOZRxdZ6Ix1lQ8Zi9rsDrdQUbal2A2yX3Qy8ODb/WkQD0UbUQ4ZbExaGPKBmrxpC5fns6jF+ebzQQ4iTxuOaqGZL0TQfMVj0wvnpXJ38Dl64JHQDNwNwP9RLjlwrQVEcC8KmqhQi3JC4OfZy0Un3w8lWtDXzqnTRRZvj033m8GR3829rHggZPk1i9u9hbMSBc51RoareA6BP3Q71UZPs8QnXw/yYq9aoW4quJlKXUyY/Xq59fbzXST1EnzKGnZpsNgFNXmb1eeVomQPEys02BE1bke5sEZOTqyS7f+IDCa7qJKzsFCd4u1QnA/1O1CPEw4JbExaGP8zYW8nRRx+xd1+ZcFXYcLRHXtDD/vejqVr8YYGiFioRv60yXLXDXiVncDw3waPhjtWoFgeR//BVVixDqZVwU/iUAKJP7UI7FaRc9EwdOx40HPOjz26SWOXdDofFnAulcVETgzeBLRUDXWus2iaPXJjhrrZIK7O0qE4CJqhbhR58VcFF4mABgdtzFZ3Njm2TRZkxm8IxMn/bPBwycbHpWw+blWvd8MCXQelRmIGDk6vcJlT4dgJAV90P97DJBiQ5LZ5UJwGHfmpmYAKjFfV3d6dR+pFeqGDg7JxjRKbPTBO9L3GvRc/10V5G1zwnTApsPlgRyza4lo2s1WU0zATDDP/VQMuq5SFXw//9ULsKw9cvJ6rlSw8Z9t8WjWte2Sg7u86etLhBJGWXCJXT40J6EOT2n3JnnhveM9w0hIdsFcFZqSqx8H9W1mZl5oX87KCs0UJEAPKBqAaLEysXgjSnF13BTG7uas1CRgNz0mj3FoiReIVzFjDV2XJnp9K4PG3j/OGX3+yjHygOIrgRAtYQ0eZF3vFPJO/6NUwJAK+RD4GLw8wrAdAIA2U1MIny4LF8cTioVvsCWptk2lkgDh4HjKaVi8sp88fLQDNGoZTITAFI5B32sRI31OacEgPAQuBj0c+baAi8TAKioocFmybaioDvcR2BsFo2KptfQOEuMkMJGUUlF0NvQa2p2oPnABIBUwaYD0lW80pFOCQDhIXAx6OdkDUqAOjTqMfaFccP3F+aKPcfj2hTUTAP9C8Y1zQ+WROJZo+KCZAfVpD809ysBgD0t90MzRKUJjowhY48zAkD48TaU26JIHTa2qqYAIBqF8jNm0G0b09MFeMYb1UeQgdAWe2CdQFVp2faiQEDnDoV6DKt260kAOAVglhD1CrtAKPk9JwSAdh4t4SLw2Azo/m7hJQAY4wrG9A7aP6anAxhXNLl+dDrW2Yz9p+Ji1KK8oJIZppupLptpJgBeXqPd6YQAEJqzuAjMELPRqvFEPZzqGp0d04PC2xnHxvR0AE6AV7cwt366T8rmSzgPOQXlYuHmQtFpfJa4pV39qgPbj+hJAN6aQiVAk2w5UkkjbRcnBIBajaIRhSlCfEk1mvSvXQKAhqve07IDp7fieAUjSsjPN0xCvZOoGuVy+e46FhfDF+TWSaL44Bk9UsAdP6QIm0nCx0IBFjkhAISObS4CM2z2fobyzaW6RjU0VD0/KD0og/k0pqcLqOKYWj8ofRM1B3pV0LOC3pWaTMfEsvRUvbAPcD80S4yghoxwBIGEQgGgk6k0ADLJZ95NU765VKZYh4z33JhebiEv8+sDUxoaUFEs56ure3Wg/IsejsFzcsVjfSqXKC4s0VMBe3Ygp7BMc44aa/bfWC0ANH9TIV++f1rUX8PbM3KC0idKoCiF7o7QmJ6uU6WJtfOsmvnlyCKWWRbocrQamSmub50cWD3rAjwwuB+apSJb7eesFgCCyAZfvjmiDKkaR5JLndKKdxEPvaV/A8fsOKEG8bIKse2wPn2FuzrRh8U0MeGkACOtFgDCGBFfvlkWlfA47jpwr3xrO329NH/pkyb2nuT9vy+w3RQpCkSVFBMkIWNPfROAq1QtOohpNGzGF2+ax2JsvPMBmJiAsmPjzilKe0Zstv4lao/8ogrug5YQk08ho36CQPJ//JqqhbdubzFfugVcp8lznNCD0jIR3CU/2CO86hrkbzce4DrxEUdjbMS2hbBlVoA765MATFa18NAQxpdunrPWcpbbR6DLfNGWwjo3eKEk2XxERtC0SfiL9ft4ELOFGIdWgC71SQCOqlp4Lw3h7KkNHDYvl7ug54CpzNPv1EwwCNdy7cdmif2nGfijgI/XF3AftIQYrS0NX/phUV2D/78oO51UCPHHN9h4YpIQ4Pn7kHSxZg9Lu1EBrntQzq9sPUBSGOY2CgRJCIsx6hNaAdtEBRW3ugkCyf/Rn1QtOiiI8WWbISovCzYVqug4JRzBjiMl4rXEjKDMj1NH3+nZwRw6Ec0rgJeHZRj1lCD/wYkrlFi0/6YuCcDbqhbd9NUsO5kg5n0VeE8TjgJa89RoIABMZaFnpDrpblIt3xytxBjo+bokAKtVLbYO42g+YYJLt3OEiyCIqgGbbRhycb80wzs6KhFn+6AuAkCFqhbZvV25wHQTfuUEQRDVAR4d3DPN8XR66Ndxe2ubADRUtbjScsr5kjVnlPigCYIgagr0hXD/NEP0aIUM3Pt+3woBoKXMLpUTIjBvTckOxr9K4rzzJwii9vjoswKtEtPkF+w9TYkx0F1WCADBRIQvObxRPjj6wV/8g8V5gZRkGpu6CIIICTAmwqQA9u0n+qZRvl0DYQ+tAN2sEAB6un8aX3INiewbhkmvJmaIbpOyReL8XDF7XYHYdKAkuCeiHztBEDqRW1guNh8sCcbVukzIEo/LpKBRS2q6hEkkWZjKCBmLjQsAwbCE86Zf3Mv/bVB68AEhqE9ZlS/mbSwUu47FRVZ+eWDQQRAE4QpSsssCC2PsY5B5h789tCbgHMlrBCs8WnCvcIlRASAskKi9yEatkkXLkZlBY8fnJ+KikPa73gAVGLgpYrxyxMI80X9mjhg8N1cs3kqhpVCer/xUcK3Va2q2aNI/TdzXNSXwTcesNJ43nvuR5FJWwhxAhXyXqFqulYEN7w2Jwow1BcF7RLLwwnvp4u5OnA47x8QFSiTaf2tUAGjskujITmKWFgu8oJgB35fNC1a4oxfniY4fZgUnm2taJF808es5JVtk5zM61QUb9hUH/S01+dbwHvA+4GEAaVs0v55MLQ0SCMIt4ICEgxKqCC8OTo9sxRgy7QrwvFEBILiL+f7iIK86YFYOu+8dRSyrLCi/TViRH2jjw0TnutZ1v+O8vUNM7DlBY53a4P2FucF3FEb17cl+acFV29ileYHvRVIGJY9dAq5Ex8iDY9SuEa6Xe46CytYHRgWAbvH8JTZsrmSGk1C0saCZCf0XKDE/OzBd3NRGzfpEAgHZXaJ6YPRM9XcKIzI0I3eflB00syHhS81mYmAzcKWGRugoJQH7Toa+Z+ytLgG4TtULhMuY7y8MmxdhF9BNu+NoiZi5tkD0+ygnKCve1l5/IvpA9xRWharBGXk6N9lRjgQQiSASQiSGSBAzcnmFYxPmrC+46NWbT8QaVICfXSwB6KLyxfn8stqOyeTXaRBFZ+8O0Vw0YHZO0IHc2DJN8wnL8/miLgI0g9n4bSNhhI0y1PGQ5KOZmU2e5oBeHFRbfU8A2o3NUvH4Ohi5/7f14w6DsFSlAI8elJYJcehMqVi0uVAMm5crWo3MFPd3S3FCoAQKjUTlgODMjW3cOtnBXRNWupj+gD4HvNzZ9KsH6NHxPQFo3DlFxaPbW1Xwv1SyRNULw/iOry8Kd1NEuEADDK6Nlu/4YsSuzZjMYA39wfHMH93pxIXYfyru1QRQs/czxKCPc4KK1N6T8UADhQgXuM7zPQmIZSrpTflZZQnA71S9KJTLrvJYQvKzz4v5NdYDuPtdtbso6NTGiB0kR9HB7eNaWbuXa6UyYHTPd3U3VKqgCYLKFSpYB07Hg8oHUcekUT6/qzyXJv5kq5Km8qaVJQBNVb2onUf9FgBSINvoPRAIMWKHjuwodfbSmTGaCUBV/Gu/NL78euD14X6Plg9XIwg0VqsAkM/+0je3jfErrAOSM8siaSyCSgdxIXB/HknFt/m5Vr0HSPruOFISTM64MAExd0MhnQFrj22VJQBTVb2kySv9bdiAQIWNQLPcdvkho1kmKKu/nRYkK+iMh7nQws2FgcKdSaCBKmobPvoaiAuBKY6oVYPAPcft0IfAZAP8SSrb3zBRM3JRXpAU2Ca7DClun9cHZK8VAPPqDc5PADaoekkoY/j6gjCTaovk6FH5MUz5ND9oQLq+Bup1KD+i+Qr3kNBUx3gNEoZZa/XoGUAzP0qbPacALg6cdqK0HtAsqBtoSjwnmwxZ66XbisQbH2TW+G/GpEbrUZmBroYNk09wJ/R5jWD8VBH+/fwE4LiqfwljMj6/pL0nzWXxUItCU9Gf6zhlgSaa80vx+Mh1NCfh3zAhymOK8MIgqgbGO6OUAMA4Sjdwmg+zsRFVg6mr8o0lA4u2FDIBqBsanp8AZDEBcONDRhkZQR/qcqp+E6oBOjB0Xm4kNntUijLzqBVRHZ4bmB6ZBOBwkt7rIExjqTLXQTLw0pCMoMKgSwsBV5hoJPZ5jeCaVBHuOD8BULY7QYLV55cECVHVymBwlZu2uiDQMNfxm9qPzdLyEUODPQqOX+jDIKrHJxG5Fnp2QLr2Z/uxJjVWeF90kOsdtr8q7c/htur7Omk1SpnC7MPnJwDKMHiO/6c8KB2GDTTcYILimXfTtAvgoCGrqERPJt9hXJb36wOd1UT1QPMqHBR9Xw84KevGCwaEc3A4giASXDbDBBoSTfpG6CIcSRXhT9oSANg5RuKOd2k4d7wooU1amS/u62pWy16XsyHscn1eF2i6ImqOYZ5fCyHB0W0MBRtkk2O3OMCgKhCGw92mAyXKnDtt4xB118v6EoAolGrO8e0ZOXU+OeNuH9myLYv7xcH6ypSvJvo7Eoj1T9QckD/12exl1CL9zaAfLLbnEIZ9BdcRtb02LSmtCCbKouIGCOLaVxEePD8BUFajXLOnOFLdvTBxwJhMdc0w56xqR32SJx7rY59XAiYETqXp8UnfcshPtcgb3kymQUwdAJMnH9cDrtbQz6Mbf+ph3/6C3p9XhmUEQR3d/JAEr6p6geqqbe6ejsvMX39+ApCs6l86nV4WSZUvfOyQqoSZDdzCYGyDxphxcjHXZvbWJFGO1YXnB/nXAQ4LWaL2WL/Pz0ODidE/V5JrXBM82S8taHyDAM7fh6QHWglRjB3niCZpRfjV+QnAXlX/EoRyolS28YmwPNWl/rXxgH+bvu5RL5/wYI9Unv5DAHzluZe5R2ikKMTl5ycAK1T+a1Cd40t1k0s1Gtj4JA/8wnvpVgVUdNhDfREBAcJRSO4e7Z0qukzIChqrbMNEzzzf31+o//QP7QkevtzkK+o0AGKVeQGMUbkQ+83I4Ut1lFD70gV0Cfti8bl4a6E1wRR3idWdqF8emhGYwdgCNIld19qP4HVnx5jSmfiqgLtz7mHRniqrBCsqSwA6q1yIcEHjS3WX8N7WhbZj3G8Aw6hXqSWxNHFBbo2TqjtkoDIpbX0+uk/ywx8ArnW6gas7NCRz/3KTB9TtuUMqSwAeU7kYMRp3bSuWolxlt0n6mtnQNNrI8bWis3nyYphUBydOeEHY0ruAZMT1b6fpADNXQZ9EzGzLJyIRV3kjX1kC8Gs2o5AX07LXafiR6LCDJGbYMctuGmg4q6umxL1dU5TLW9cUTfq72z+EzvaDZ8xUVJ7uz74rTg9Vip9WlgBcIr7wCVaGdXuL+XId5oDZOdo2r+J4hbMjQJhhtwH19eAYMCvHit8B2VxXv5n35pipBEF6mnuWu1R4DXcqoSrgql71wnzorVS+YIfHmHSeCqGZ4OJzQqJrGrhGqW/3N/73+O+YBhTgbmnnnvQrJi3wt5vAax4ra/pOxdLh718sAejJbJ68GEdqljFtPsKtjQyd9hUWCP+1CamRUpcrZHWARLZT10DNzBlAoWGXe5W7hIqsQtx7sQTgdh2dqQ/3ZBXAVd4qT2I6pW3hIgY5XVeez4Tl+caD5e7j4Y1S4r8DsyYbKhoNHRoP7WNQARIqetyr3B0XVWgUhc3puxdLAL6Lhn3VC3QtewGcJqSNdcIVMylMLtjQOPfcwHAllXXqQFwMkNV2YR2gd8WU/8OhM6VOJUqk1tP/uITqgCq9joUK9TG+cDeJznKdkqYoqUNVz/bngjVtGit3qumb+HRXkfHftnq3/QcHVEw27DPXAwIdfe5RbhI+CIpl12+uSQLwoo6FCie8+7tRpMJV6jY1wVid7R7ge46bLZVj81DVZIv/brnh4gYSwfu62r1nmDR/wtUP9yY32ahlsmqxtaOSl9QkAfhnSS0qIPjBFAdyk5Bo1akLAMAy1Obs3TRUX5Xgv28aNkvborepqMRcB+hLQ9j57yqnfKq8d6hFQk0h/48X6Fq0CzZxKsBVdp+k/7TT4UM7r45g92wSuHOG/LBqeWNTd9vnAHMbnJZsPMEdOG2uAsS+KnfZebzyq0OUa79XmwTgcZ2L991ZNApyUvGumV6PgHOBzjYtCVxNFMfNBkZdyon4d0yj03j7ksBpq80lgJyscpdwyS1Rv3e8nVAbyP/BtyVTtS3gCpavXOULg/V3iEOn3iaXuP4zzSrm4SpG1/PAv5Nq2DFw51G7VO5MayVMX13AvchB3tY+JpLVS4bjbuHKhNpC/o/66lzEGJ+yvcGHrJzoPNcNWwSl0PV9PMWscU6PyXod8/DvmcYTfe3QuX+kV6oRm9+v7psuqiRGnfCI2HJQi1BU34S6QP4PfyqpNdXHHZov/t9RIoxjTJTA0XFt+rf/fYjZGXlUQ2A+pPvqx7RbIHouTL/7m9vGxMlUs8/hrSnZ3IMc5NRVWgTDUMX/fkJdIf/HE3QvaJs7vcmLjAUaMD3B3efLQ81eHS3fYXY+vtn7Zn4/tOZNAt32sC021v8ik64N+816Puw6Fqfoj4PsOlHbldGLCfWB/A/8HxML2zXdbzJJXN0iSRxJ1n8ayi0sF3/qYaYB6q5OKUZn4zcdMHsXvvGA2QD4zkxz+4TpkUisu8f70u7XNT79Tpoug6gtoiZz/zVIAqZpX9zy+bwyjE2BrtGUZCzu4G81cA+qWxL5q4AoDjqITb5v3MObND7Ce7/KwAl44GzzNskfLsvnnuMYMUYLbxMNwEns9wlhQP6H/rfuXoBzzS1UCnSP0w2NQ6EcqrN/BE08JrvhF26246oMzZgmoXt6CB3/pt0e0XdAATW3CGvtrYe1uUN2SwgT8j843MRCh7HF9WwKdIp/fCNZnMkwExg/+7xYW0McHNdMASVEWyZmGndJ0THHXCVWKPI+qIyoSpaanYAMgNFb7jVuUeOV0VbJS8NOAK6UNLLjLdlWZKTMR9adLw421xk/Z32BlvWC+3dTgOWwTe977BJzVyG4C2/cWX0y9My7acbFngBXnDFJI2OzuJv6RYIKoNpmatEPmZvLhcSrgFptkiqTgD/3TDX223A1ZpspErrxdbpDno+Ri9T6AzTpnybyi8wHf5T+UWHj/uIOsXbiZdrWziMJqoCOQlRZjWT5Fe54gZNfEFc3JgVyVJ6UJq/MN/a7Blgqm91vhrnGuPSc8mAKxefgjz3w2QEs/bvEOzrGdPYJ9U1QDfmP/KekkdkfjHs92IN61y7xibe1Zr8XYPzy/NArAWg0hJW1CZxOLwuaiWwdAzUpitN2TKa3wR8YsySPe4pjTX87jmq7Jpwl2SBBB+Q/9JqpjwDqYyyBuUWcWE3io88KQm0MNCmD22FcltXv2mRj5JZD4WoioNHOluCPCRdVFQ5SDWet1XYFul3ysgSdkP/gaFMfw7LtbAp0iXhX6/aaFYxZtLkwtA10/ykzlq+fn4hbv+7x92k89VyAR3uHUyFsOTLTioY/AEkIx6HdYs8p2g4JaZI/TdAN+Y9+S3K9qY9Cl/UpGQ4h0hPLNDs/tWZPcb11AlASNoUX3nPj/hf31KYwLQRXvO6Tso2qO56PNgquNkh1bCrXv6ZRUdy33ZRgCvIf/7HkGRMfBYQ4mo9gU6BTEpj9zfYDAHtPxgM1LtdEb1bvLnbqXaNKZwIFxRV1viJE9QLTBDZhyqdU+3OJd3aMBQ2pmvBKgmnIP+JqU02BaMR66C02BbrE3tPM28hCpAhjfLX922G5qknD++vd33I/ebinW+sc3gymBHOwxmr79zZqlRxcE9kEXKXw3t8dNmqZLHYf13Y9ODLBFsg/pompj+RojE2BrnHuBvMbLSZKajtWakr/Hc1ELr7nKavMjEpCPbS2o1oaN+4aISO3PDCa4n7hDj9er63pby2u4BNsgvyDBpr6WFbuYlOgc+MxR0qMb7KYqx48N7dGaweWq6fS9B9pC0sqgrKiq30fpsYlnx9Us34JmFel5ZRbFfxxTcZ5f7fYZ7q2yuYpyX9NsA3yj/qG5DJTHw1c2bgQ3XLFSsoos2LDhdR0dVWkVxMzuK7rQCRYJvDJ1sJq7/sxnlpmV+wPAK947hHu8LmB2pr+0FjTMMFWyD/uh5JHTH04GN3hgnSHGNlC05YNOJFaGljbVvW3frpLf1Mbmolcv96CY50m+9Ovt0fLf7KqZk88U1NNitXBNo8H8uK8u1NKcF2jCU8l2A75R/6XpJHLPwSTP/dkU6BLfC3RDne1c6XXt2dcKLN7T5eU4LpANzBL7MM77jw+y8j7TJx/4ajw0++kBcmejVi+o0ibkyUZQtOfTG73nNDWO9I/wRXIP/YhUx8RtOdveJNNgS6xy4QsqzbiVbuLgsawc3/fB4v1j4Ydi5WKP3gSDNA/sf+0/iY76E6cC6h4lsMX5Fo13/9V7DxaUm+NClIvNY4EL8YVe4JLkH9wN5MbeEM2BTpFUx32VQGOe+3HZgUNixpLfF+ixQi/rrNeHmqmh6LVqMxgJNG2Lv+vAv4Jt7WPcR9wiBqNrw5L/iDBNcg/uoHkbFMf1ahP2BToGicZdNirCiZkf7ceLvHy/X72uX65EExuYJLCVqRkl4l7u3LczyVCkVNT8yhKj79NcBXyj79Cco+pj6v1KDYFuuYZAAvfqAP31D6+38f6pBrppbAVWfnl4pFe7FlyiY27aG36eyDBdcgf8QtJIxZhaArkB+ZeErDQMkU2nahufI1iKX4ABj+QxuY379ZEy76T2iqCnRN8gfwxt0saab9Bx+9NbXi/5lTTWPMk62RZdQDTEL67vkHdrqikIvLBvwmDv3NcsEnbnjQTV+gJPgH9OKY+ONw9cryGSYDtmLgiGjPg6M9h8Oc37hL7z9TW9LdL8vIEHyF/2HhTH96YJWwKdDEJmBORkjEkc29uG41KFYR4TExW2BD8m1Li1zm+ODhd1/goRmV+nuAr5I/7juQmUx9gm9FsCnSxJ2D6av+TAIxB0hXS74Y/3vm7R0xo4N1pAOTQbkvwHfJH/ptkzMRHiHEgyM9yYbvH0Yv9LRvDEwGqYlF6nxDmgWhXFIBqByYg+B27RQgzHdAnYNU8ISqQP/ZaSSPKHJgLjkqp1UfxDR/HyDqNj6b5C7w7fAdEfh7ozjl/F7loi7YepLEJUYP80X8z9VGu38emQFf55uhMURL3JwvAWFGUray3HS7xNvh/fiJOhT9HOUCfMulGyW8nRBHyhw8x9XF+uIyuWy7bb0Kq1we8NCQj0u8Sokc+ApNH11Pb30nim9RUaUyW/HFCVCF//KWSK019pO3G0nfbVaKseiTZ7TvkPcfjkfesQPVj44Fir4L/5JX5rDA6SuhwaDpcoPR1TULUIR/ClZLHTXyoECT5Sx925rpKuD6u3u128MjOLxfzNxWKtmMyIyNYhR4cTOTMXlcg0nP8GQfEqBimG/htuklUbA6d0XaoaJpAfJkE/LekkVmv0+lsCnRdK2Ds0jxvAghc66BZAfe8az2ZDGjUMjmYpcbv2nsyLio8bOREpz9MYvhNuluJWrKtSNdyeY9R/8Ik4DFTH++mAyUs2TlOGD/lFvolLgNpYFwToKSM6ypXXONu7xATryVmiGHzcsXavcWiOO639C/eEUxi+B26y/fm5OpaLsslv8mIX3kS0MvURzxhBZsCfbi/23sy7nWwwf3kloMlQVLQbVK2eObdNHFLOzMVLCj6PdkvTbSXycnIRXli1e4ikZpdJqKEjz4rCCoc/P7c5SvDtDX9HZX8ESN91QnAJZLzTH3MHT5kU6AP5eYpn+aLqAHVD4ydoYw5SSYHONF0GJcVdDQjSCM5wlVXdSOHqIShF+FWmVQ83DM1KN0jwL8zM0eMXZIXSDNvPVwSSSnfrwKyvm3GUFnUh2ZiTU1/2JR+xyhffRLwPcn9Jj5qlCqf6MumQB+IO/SonUZrA3gPfJWwziZqWPKXiRbFffzwpDicpK3p72FG95onAb9Cg7SJjxuyrKZKqmT43eaLtxYyYhGhNWmOWpQXyBjz+3K/6W/Zdm1Nfz0Y1WufBDTGN2fiQ8cdKz9yf/jGB5mRL1kT9QMkfWnj6w+HztPW9DdXsgEjet2SgDamPng0WfFD8Ye41567gdUAopan/gohxi/P92Ykk0wSrw/X1vS3V/IKRvK6JwANEItNffydx7Mp0MfegBOppYxsRLXA/fBT7/DU7xMfeitV17hwluQvGcXrnwRcJrnVxAYA05m/9uMG4OOkwIiFeaKklI1vxIVAQ+Sgj3N4Dehh09/RmJbkHxnGnYze4SUBP5FMMbEZJGeWBcIm/ID8IyY+COKrgHARRX38bPpbuVNb098bjNrhJwE3ShpRecHc89Ut+BH5xrdn5DDiEV8D/An4bfjHxAXamv4mMlqrSwJeMrUxTF3FpkCfiPLumQzqBBBfB7RAomLKFBU2H5Ghy39is+R3GanVJgHvm9ocuk5kU6AvhLY+QVSG/jNz+I14wj/3TA1UGzUgJvnvjNDqE4BvSa4x0hRYWiGeZlewF9x5tISRjqgUR5JL+Y14Yhd+PEVL0x+upq9ndNaXBPyL5EkTm0Msq0zc0ZElQtc5cUU+Ix1RKaAXwW/E/aY/mFNpwguMyvqTgKskjSi77DhSIq5pQWEQ150DCYJXfX4SY76akMhobC4JeNLUJjFjDbuFXadGIxDCIUAsht+Hu2w5MlPXUlkleSkjsdkkoJ+pjaLH5Gx+cA5z9e5iRjviAlzfmtU9V/lIr1RdzpYnJP+ZEdh8AvANyUUmNop4WQUNQhzmp7uKGO2ICwDFOH4fbvp9aJL5xtXz7xl97UkCvi950MRmkZZTLu5kU6CTTUKxzPB1ANBAhkZRQj0w251TEL6u+98GpfMbcYwN5fe8Zo+2it7jjLr2JQG/kcw1sRHtOhZnU6BjfDUxI/R1ABnZc5vRi4PTxZz1BbpmkCMFNOH2m5Ej7uqUEpj1hI1pq9nf4xpHfaKt6a8Po629ScD9OBiY2JRmreWm4RLX7wv3tIDT6BNvX3gdBBtZiA4t2Vak627SO5TJQ/6G/cWBdPM9lej0f7I13GGg7Pxy0Yj2v87wjQ+0Nf3Nx5UzI63dSUBHUxtVzylsCnSBj/ZODf3dL9pS/ew4XAhRecAESWo2rwkuhozccrFgU6HoMC5L3NgmudqRztKQHycbfN35lgtLtCTW+3HVzAhrfwLQQHKGiU0Lm1DTAbw/tJ3zNoZ7YoR+/IM9UmvdgwCradjOrttbLIpKol0dwCaOU/57c3IDl0Y8n9o8zw4fZgXOnWEBtrENm/FbsZk3t42JU2laEulsyf9kdHUnCfgnyZ2mTi53d6KdqM3a4OUh9Y2hAXTg7BxxS7v6N4Gih+S5gemBgMnGA8Xe9w6geQ9KbXh+mKSBOVMY7xcJ+LbD4cg8tx9LQSBrm/7kekHPjQZgt7iXUdW9JOBnkukmNrc9x+NBuZcfqn1cuj2c0b+xS/KUvmOcPpGsdJmQJaavLhB7TsSDSoOrd/j7T8XFx+sLxFtTssXD8ndd1UxtcMCVTH1xLFYaWmJChssxS7Q1/bVnNHU3CbgF+4+JTQ+bHT9Uu/hkv3A6xgfPyTU26oT77hYjMoOrA1xlIDHIzCu3ItDDLAul85W7ioIECckLnrmJZBgVlf2n4/X+Tb2nsRfANrYZo63pbyqulBlJ3U4CXje1IfaZzs3DJm46UP/SMEbQrrLwbhhd65CwfXlohug+KVsMX5Arpq7KF4s2FwalUlSlIJKCDve8worgVF5tQI9XBP+3SRllgWzydvnbUbZHcosAj1G8tnIzRtndRoOs5wfVvwCIKz3cNfP7sYN/6ZOmq19mu+RljKB+JAGjTTUF4l6XH655vjm6/qeGqkb9fFBQ+yp9KnuvC+GeeDp1Aaxp+judrqWgi1LhTxk5/UkAviW53lRTYOMubAo0Sczi4xRbX6DkzufpFp95Ny2UxA+CQ3yeZpv+NuzT0vQHLeGbGDX9SwJ+LHnGRBLw+Yk4hUUMcuSi+jcMYXKgtqN+pB3ccqgklG+YY4Hm+OGyfF3b9SuMlv4mAVdjbNtEEsDToxk+0D0luMuuL3CXzufpJluPCqdpDEqEfJ76CTEoTRjJKOl/EtDEVFNgP24g2omZ+jDg491/lMrHYVwBQcqZ13l6CVEoTeOva3FVzAgZjSRgoKl56BfeY1OgLnYaH87JYefREj5PxwmFwTCwencxn6cmQmArjMStBjgl+a+MjNFJAL4hucxEEpCVXy7u7cpThI7NA886DHQeT0U4HzrIoVMQBtpRIVBL1SaMsd0aAMpgDRkVo5cE/FDyiIkkYN/JeNCZzg9dHT9YHI5SGMq+17Xmu/KBi0NyDTwjT6UNqRColBNWaGv6e4rRMLpJwH9J5ptIAuB0xg9dDR/rkxpK4x+bN/3iy8MyQvt+4dnAZ2r31V0N0J9RkEnAQ6aaAvvPZFNg2Lxentah4R4WXhzMng1vysrNkkJzDCyX+eVLQzL4XEMmHDJL9DT9LcZVMCMggSSgm4kEALPlfx/CABMmw7T6jWWVcfbbM45aFJ6JDES+bJRAdpW3tY+Faul8ERyW/AEjH3EuAWggOdtEEgBb1PvYFBgKYT4TJsYuZZnXR12IMLH1cAn7AUIg5Ke3HNTS9IcM8LeMesT5ScAVkntMJAEHTsfZaFZPIolCw16Y4Oy/n9xxNNxAA2MkPtf6cfJKba1YDzDaEVUlAb+QzDSRBMC/nBtB3Qh3vrB1wo+nlPLZesqeU7JDXSvwCvjbIF7l1ZVdJ2pr+uvMKEdUlwTcjut5E0nAgNlsCqwLYX8bNtjl7S/heBgvC7dahMbTP/AqoNZ8+p200PQZqsFMXPUywhE1SQJaGWkKlN8BRpW4MdScd3dKCTzrw8afe9L4x2eu3Ru+Jcg7nOqpFW/vEAsabTVgl+TljGxEbZKA8aaaAu/vxqbAmnLNnvA38sNJLP/7TlTbQpeUK6kIElI+3+p5dYukoIFSAyD+8HNGNKK2CcB3JDeZSAIOnSkN5tm5UVyc8GhXgcQFuXy+nvOeLilK1s5HnxXw+daA01YX6NhKUV64jdGMqGsS8G8YBzeRBCzZVhQ0t3GzqJrLthcpefYs/0eDe0/GQ187uM/GPDufb9XsMTlb1zbanFGMqG8ScK1k3EQSAAczbhiV88Y2yaJUwfUhu/+jw/cX5ir5bvtMz+bzrYJN+qeF3oBZ1XQmoxcRVhLwN1NNga8PZ1NgZWw1Us205vjl+Xy+EZKdVYGl24v4fCshVBNTs7U0/W2U/DYjFxFmEjDERBKQW1guHuzBkvT5HL5AzentuYGc546SfgTkfNlEqp7XtEgWO45oafpLlvwxIxYRdgJwqeRKE0kANpQ/vsGmwK9yxprwm4jSc8qp/R8xomkvbCRllPHZavheK2vBkLyG0YpQlQRciWtiE0kAGt7YFPgPzl4X/oYyaSXL/1EjKj5h43Q6EwCVyosXQVNGKUJ1EvDfkgUmkoCh89gUeI4w6gm73+KRXrxq4TRACKozx+J8rmfZdEC6kmbdynqmGZ0IXUnAY6aaApuPYFOgCue/CSt4+o8qX3gv3CrAx+upBQDe2TEWXKtpwHLJbzIyETqTgF4mkgDI3j70Fk+qjbukBCYsYT3Tm9tydjvKXL07PEVJlLzZ9JccVEI04KjkjxiRCN0JwCWS80wkAUdjbAoEN+wPZ9MeTL2FyBOTNmHMp5fEKwKNe/boaLklhYfw7xiNCFNJwPck95tIAlbuZFPgsyE0cMEbni5uJJg4v/6jpdSRSAqEkDThYUYhwnQS8CvJbBNJADXrk8Tklfl1fn6n0sp4WiO/JEZAkVjXFftPx8W1raJdmcNUhaamvx6MPoQtSUBj9OiZSAJajsyM9qYtT+/Ld9R+00bnN4M/WdnddV08JqDVEXUPADghqhBWqgRzJRsw8hA2JQFtTCQABcUVkTevQRIAXfeanDzwf4MRwkYt2UNBVq0Q2Hd6dtAcWhMs3loobngz2usJ39Oe41qa/vZKXsGIQ9iWADSQnGwiCYCBTdQ3IPD+bili6qp8kZ1/4SkEGuQY9cP/DYMcWRNiMmTYvFxxJLn0gvVUJpfYur3F4pVhHMsF524o1LHVYfb3l4w2hK1JwGWSW00kAat2synwqxWBR3unBpvz3walM+iT9eat7WKBqM2riRnB/8spnH+w34wcLTIokncyyhC2JwE/kUwxkQSMXJTHDYkkSa0iSmV6up/eYHQhXEkCbpSMm0gCWo/K5MZEkqQWMS5NTX8TGVUI15KAl0w1BVLTniRJpU1/rZLF5ye0nHE2S36XEYVwMQl430QScCK1VNzUhiNuJEmq4YJNWpr+YpL/zkhCuJoAfEtyjYkkYM2eYnrbkyQZOvvP1NL0h/LC9YwihOtJwL9InjSRBIxezKZAkiTD44uD00W5nqa/Fxg9CF+SgKskC00kAW1GsymQJMn6896uKSIrX0v0T2TUIHxLAp40kQAUllQEM/HcwEiSrCuva50s9p3U0vS3SvJSRgzCxySgn4kkAKY39LsnSbKuXLRFSwHzhOQ/M1IQviYA35BcZCIJWLu3OFDI42ZGkmRtOGC2lqY/ZBi/Z5QgfE8Cvi950EQSMG4pmwJJkqw5XxqSIcortGxPjzM6EFFJAn4jmWsiCWg3NosbG0mS1fK+rikip0BL018fRgUiaknA/ZIVuhOAopIK8Zc+adzgSJK8aNPfgdNamv7m42qUEYGIYhLQ0UQV4HQ6mwJJkqyccBVdsq1Ix1a0H1eijAREVBOABpIzTCQBG/axKZAkyQv53hwtt5PZkv/JKEBEPQn4J8mdJpKACcvzueGRJPklXxmmpekPjQX3cvcniC+SgJ9JpptIAjp8yKZAkiSTxP3dtDX9teeuTxBfTwJukSzTnQAUxyvEE33ZFEiSUeYf30gWh86U6thypuLqkzs+QVyYBLxuogqQlFEmbmnHpkCSjGrT37LtWpr+tktexp2eIKpOAkabSAI2HShhUyBJRpBD52lp+kuT/Cl3eIK4eALwLcn1JpKAySvZFEiSUeLrw7U0/eFu4Sbu7gRRsyTgx5JnTCQBncezKZAko8AHe6SK3EItTX+vcFcniNolAVejR093AlASrxB/7cemQJL0venvSLKWpr+R3M0Jom5JQBMTVYDkzDJxW3s2BZKkr01/K3dqafpbiytN7uQEUfckYKCJJGDLwRJxdQtuliTpGxMXaGn6OyX5r9zBCaJ+CcA3JJeZSAKmrmJTIEn6xOYjMkSF+qY/lBcacvcmiHCSgB9KHjGRBHSdyKZAkvSBD72VKvIKtRiQPsVdmyDCTQL+SzJfe1NgaYV4+h02BZKky7zhzWRxPEVL019/7tYEoSYJeMhEFSCWVSZu78CmQJJ0telv1W4tTX+LcWXJnZog1CUB3UwkAdsOl4hrWiRzQyVJxzhiYZ6OLeKw5A+4QxOE2gSggeRsE0nAjDUF3FBJ0iG2HJmpY2tAhvFb7s4EoScJuEJyj4kkoMfkbG6sJOkA/9wzVRQUa2n6e4C7MkHoTQJ+IZmpOwGIl1WIJv3ZFEiSNvOmNjFxIlVL019n7sYEYSYJuF2yXHcSkJpdJu7oyKZAkrSRDZsliTV7tKiIz8SVJHdigjCXBLQycRWw8yibAknSRo76REvT3y7Jy7kDE4T5JGC8iSRg1lo2BZKkTWw9SsutYIbkz7nzEoQdCcB3JDeZSAJ6TWVTIEnawEd6aWn6K5O8jbsuQdiVBPwbNHt0JwDlFZwMIEkb7H01Kf01525LEHYmAdeiUd9EJSBxfi43YpI0pPS3bLsWpb+x3GUJwu4k4G/CEJZuKwpOItyUSVIfJ67QYhGyUfLb3GEJwv4kYIipJOBkaql4rE8qN2aS1MCxS7V0/CdL/pg7K0G4kQBcKrnSVBIAB8Gh83LF1S24QZOkCuLbmr2uQMvnLHkNd1WCcCsJuFLyuDCIw0ml4pl3qRpIkmGycecUseNIia7PuCl3U4JwMwn4b8kCYRhLthWJh3vyWoAk69vsh4mb3EJt4p/vcRclCLeTgMeEBSiXe9a8jYXi0d5MBEiytnx5aIbYc0LrgM9yyW9yByUI95OAXsIibDtcItqPzRKNWnJigCQvNtvffVK22HtS+2TvUckfceckCD8SgEsk5wnLANWypduLRKfxWeKWdjQXIlnih4Vv72nZ4tNdRaIkXmHis8RM4e+4axKEX0nA9yT3C4txLFYqFm0uDESFukzIEq8lZogXBqeTpDd8aUiGaDUqU7Qdkyn6TM8Oxviw5mGupUHGtyZ4mLslQfiZBPxKMlsQBEFciB7cJQnC7ySgMXryuNcRBPEVzJVswB2SIPxPAtpwvyMI4iz2Sl7BnZEgopEANJD8kPseQUQemZK/5K5IENFKAr4luYD7H0FEFpgvvIW7IUFEMwm4THIF90GCiCSe5y5IEEwCmAQQRLTQnrsfQRDnkoCl3BMJIhLoy12PIIivJgHoCZjCvZEgGPwJgoheEoDpgH7cIwnCS7TjLkcQRHWJwDOSJdwvCcILoNu/CXc2giBqmgRcI3mSeydBOI10yZu4oxEEUdsk4IfCQhdBgiBqhPWS/4s7GUEQdU0C0BfwgmQe91OCcALw+kAvz6XcwQiCCCMR+LngqCBB2I5DkjdwxyIIQkUi8LhkMvdZgrAKaNrtJXkZdymCIFQmAZdL9pDM575LEMYxR/J/c2ciCEJnIvBjySGSRdyDCUI7PpVsxJ2IIAjTiUBf8YW1KEEQ6lAh+ZHkNdx5CIKwKRGAp8Bzkpu5TxNEqDh19trtp9xpCIKwPRn4tWR3yc+5dxNEnZB09ortVslvcFchCMLFZOBnkq9Kzji7qREEcSFSxRfCW60k/1uyAXcPgiB8Swh+KvmAZDvJDyWXSe6TzBBsKCT8Rd7ZBHi75GLJUZKtJR+U/Al3BoIgCIIgCIIgCIIgCIIgCIIgCIIgCIIgCIIgCIIgCIIgCIIgCIIgCIIgCIIgCIIgCOL/BxM4q6zA0/gRAAAAAElFTkSuQmCC;fontFamily=Google Sans;fontSource=https%3A%2F%2Ffonts.googleapis.com%2Fcss%3Ffamily%3DGoogle%2BSans;" parent="1" vertex="1">
          <mxGeometry x="569.51" y="289" width="20" height="20" as="geometry" />
        </mxCell>
        <mxCell id="uLg59qGG4U38qY8t5iAr-34" value="" style="curved=1;endArrow=blockThin;html=1;rounded=0;endFill=1;startArrow=blockThin;startFill=1;strokeColor=#00C9FF;fontFamily=Google Sans;fontSource=https%3A%2F%2Ffonts.googleapis.com%2Fcss%3Ffamily%3DGoogle%2BSans;" parent="1" edge="1">
          <mxGeometry width="50" height="50" relative="1" as="geometry">
            <mxPoint x="318" y="309" as="sourcePoint" />
            <mxPoint x="318" y="259" as="targetPoint" />
            <Array as="points">
              <mxPoint x="332" y="289" />
              <mxPoint x="318" y="259" />
            </Array>
          </mxGeometry>
        </mxCell>
        <mxCell id="jHLkySoIPFsl9a4BtAlz-2" value="" style="shape=image;verticalLabelPosition=bottom;verticalAlign=top;imageAspect=0;aspect=fixed;image=data:image/svg+xml,PHN2ZyB4bWxuczpkYz0iaHR0cDovL3B1cmwub3JnL2RjL2VsZW1lbnRzLzEuMS8iIHhtbG5zOmNjPSJodHRwOi8vY3JlYXRpdmVjb21tb25zLm9yZy9ucyMiIHhtbG5zOnJkZj0iaHR0cDovL3d3dy53My5vcmcvMTk5OS8wMi8yMi1yZGYtc3ludGF4LW5zIyIgeG1sbnM6c3ZnPSJodHRwOi8vd3d3LnczLm9yZy8yMDAwL3N2ZyIgeG1sbnM9Imh0dHA6Ly93d3cudzMub3JnLzIwMDAvc3ZnIiB4bWxuczpzb2RpcG9kaT0iaHR0cDovL3NvZGlwb2RpLnNvdXJjZWZvcmdlLm5ldC9EVEQvc29kaXBvZGktMC5kdGQiIHhtbG5zOmlua3NjYXBlPSJodHRwOi8vd3d3Lmlua3NjYXBlLm9yZy9uYW1lc3BhY2VzL2lua3NjYXBlIiBpbmtzY2FwZTp2ZXJzaW9uPSIxLjByYzEgKDA5OTYwZDYsIDIwMjAtMDQtMDkpIiBzb2RpcG9kaTpkb2NuYW1lPSJjb250YWluZXJsYWJfZXhwb3J0X3doaXRlX2luay5zdmciIHZpZXdCb3g9IjkuOTk3OTkzNDY5MjM4MjgxIDEwLjAwNDU3NzYzNjcxODc1IDE1OC44OTk5MzI4NjEzMjgxMiAxMzMuNDE5NDMzNTkzNzUiIHZlcnNpb249IjEuMSIgaGVpZ2h0PSIxMzMuNDE5NDMzNTkzNzUiIHdpZHRoPSIxNTguODk5OTMyODYxMzI4MTIiIGlkPSJzdmciPiYjeGE7ICA8bWV0YWRhdGEgaWQ9Im1ldGFkYXRhODg2Ij4mI3hhOyAgICA8cmRmOnJkZj4mI3hhOyAgICAgIDxjYzp3b3JrIHJkZjphYm91dD0iIj4mI3hhOyAgICAgICAgPGRjOmZvcm1hdD5pbWFnZS9zdmcreG1sPC9kYzpmb3JtYXQ+JiN4YTsgICAgICAgIDxkYzp0eXBlIHJkZjpyZXNvdXJjZT0iaHR0cDovL3B1cmwub3JnL2RjL2RjbWl0eXBlL1N0aWxsSW1hZ2UiLz4mI3hhOyAgICAgICAgPGRjOnRpdGxlLz4mI3hhOyAgICAgIDwvY2M6d29yaz4mI3hhOyAgICA8L3JkZjpyZGY+JiN4YTsgIDwvbWV0YWRhdGE+JiN4YTsgIDxkZWZzIGlkPSJkZWZzODg0Ii8+JiN4YTsgIDxzb2RpcG9kaTpuYW1lZHZpZXcgaW5rc2NhcGU6Y3VycmVudC1sYXllcj0iZzg3OSIgaW5rc2NhcGU6d2luZG93LW1heGltaXplZD0iMCIgaW5rc2NhcGU6d2luZG93LXk9IjIzIiBpbmtzY2FwZTp3aW5kb3cteD0iMCIgaW5rc2NhcGU6Y3k9IjEzMC4yNTY0MSIgaW5rc2NhcGU6Y3g9IjE2Ny45MjMzIiBpbmtzY2FwZTp6b29tPSIyLjU0MDA2NjYiIHNob3dncmlkPSJmYWxzZSIgaWQ9Im5hbWVkdmlldzg4MiIgaW5rc2NhcGU6d2luZG93LWhlaWdodD0iMTIyMiIgaW5rc2NhcGU6d2luZG93LXdpZHRoPSIyMDA4IiBpbmtzY2FwZTpwYWdlc2hhZG93PSIyIiBpbmtzY2FwZTpwYWdlb3BhY2l0eT0iMCIgZ3VpZGV0b2xlcmFuY2U9IjEwIiBncmlkdG9sZXJhbmNlPSIxMCIgb2JqZWN0dG9sZXJhbmNlPSIxMCIgYm9yZGVyb3BhY2l0eT0iMSIgYm9yZGVyY29sb3I9IiM2NjY2NjYiIHBhZ2Vjb2xvcj0iI2ZmZmZmZiIvPiYjeGE7ICA8ZyBpZD0iZzg0MyIgdHJhbnNmb3JtPSJ0cmFuc2xhdGUoLTEwNC4yNiAtOTcuNjU0KSI+JiN4YTsgICAgPGcgaWQ9Imc4MzkiIHN0cm9rZS13aWR0aD0iLjgiIHN0cm9rZT0iIzAwYzlmZiIgZmlsbD0ibm9uZSI+JiN4YTsgICAgICA8cGF0aCBpZD0icGF0aDgzMyIgZD0ibTE5Ny4wOSAxNjUuODZhMS43NTc4IDEuNzgyOSAwIDAgMS0xLjc1NzggMS43ODI5IDEuNzU3OCAxLjc4MjkgMCAwIDEtMS43NTc4LTEuNzgyOSAxLjc1NzggMS43ODI5IDAgMCAxIDEuNzU3OC0xLjc4MjkgMS43NTc4IDEuNzgyOSAwIDAgMSAxLjc1NzggMS43ODI5Ii8+JiN4YTsgICAgICA8cGF0aCBpZD0icGF0aDgzNSIgZD0ibTE4OS42MiAxNjEuNjZhMi43NTg4IDIuNjUzIDAgMCAxLTIuNzU4OCAyLjY1MyAyLjc1ODggMi42NTMgMCAwIDEtMi43NTg4LTIuNjUzIDIuNzU4OCAyLjY1MyAwIDAgMSAyLjc1ODgtMi42NTMgMi43NTg4IDIuNjUzIDAgMCAxIDIuNzU4OCAyLjY1MyIvPiYjeGE7ICAgICAgPHBhdGggaWQ9InBhdGg4MzciIGQ9Im0xOTYuNDkgMTUyLjQxYTQuMTA0MyAzLjk2MSAwIDAgMS00LjEwNDMgMy45NjEgNC4xMDQzIDMuOTYxIDAgMCAxLTQuMTA0My0zLjk2MSA0LjEwNDMgMy45NjEgMCAwIDEgNC4xMDQzLTMuOTYxIDQuMTA0MyAzLjk2MSAwIDAgMSA0LjEwNDMgMy45NjEiLz4mI3hhOyAgICA8L2c+JiN4YTsgICAgPHBhdGggaWQ9InBhdGg4NDEiIGZpbGw9IiMwMGM5ZmYiIGQ9Im0xODQuNjkgMTY4Ljk2Yy0wLjUwNSAwLjIxMy0xLjUyOCAwLjg1Mi0yLjI3MyAxLjQyLTEuNDMgMS4wOTEtMy4xNTYgMS4zNjItNS4zMDggMC44MzQtMS41NTMtMC4zODEtMS42NjMgMC4wNjgtMC41OSAyLjQwMSA2LjYzMSAxNC40MiAyNi44NDggMTQuODk2IDMzLjg4IDAuNzk5IDEuNTc5LTMuMTY1IDEuNDMzLTMuNzItMC44MTgtMy4wOTgtMS45IDAuNTI0LTMuMTggMC4yMjctNC45NzItMS4xNTctMi40MzYtMS44ODEtNS42OTYtMS44ODMtNy4zOTYtNGUtMyAtMS43MDIgMS44ODEtNS4zNjEgMS43OTMtNy40NzctMC4xNzgtMS4xOTktMS4xMTgtMy42MzktMS42MDktNS4wNDYtMS4wMTciLz4mI3hhOyAgPC9nPiYjeGE7ICA8ZyBpZD0iZzg3NSIgdHJhbnNmb3JtPSJ0cmFuc2xhdGUoLTEwNC4yNiwtOTcuNjU0KSI+JiN4YTsgICAgPGcgaWQ9Imc4NzMiIGFyaWEtbGFiZWw9IkNPTlRBSU5FUmxhYiI+JiN4YTsgICAgICA8ZyBzdHlsZT0iZmlsbDojZmZmZmZmO2ZpbGwtb3BhY2l0eToxIiBpZD0iZzg2MyIgZmlsbD0iIzAwMTEzNSI+JiN4YTsgICAgICAgIDxwYXRoIGlua3NjYXBlOmNvbm5lY3Rvci1jdXJ2YXR1cmU9IjAiIGlkPSJwYXRoODQ1IiBzdHlsZT0iZm9udC12YXJpYW50LWxpZ2F0dXJlczpub3JtYWw7Zm9udC12YXJpYW50LWNhcHM6bm9ybWFsO2ZvbnQtdmFyaWFudC1udW1lcmljOm5vcm1hbDtmb250LXZhcmlhbnQtZWFzdC1hc2lhbjpub3JtYWw7ZmlsbDojZmZmZmZmO2ZpbGwtb3BhY2l0eToxIiBkPSJtIDEyMS41MywyMjQuOSBxIC0yLjcxMiwwIC00LjIsMS44OTYgLTEuNDg4LDEuODcyIC0xLjQ4OCw1LjU2OCAwLDMuNzkyIDEuNDg4LDUuNTQ0IDEuNDg4LDEuNzI4IDQuMiwxLjcyOCAwLjc5MiwwIDEuNDQsLTAuMTQ0IDAuNjcyLC0wLjE0NCAxLjIyNCwtMC4zNiAwLjU1MiwtMC4yMTYgMC45ODQsLTAuNDggMC40MzIsLTAuMjY0IDAuNzQ0LC0wLjUwNCBsIDAuNjk2LDEuMDggcSAtMC44MTYsMC42OTYgLTIuMTYsMS4yMjQgLTEuMzIsMC41MjggLTMuMDI0LDAuNTI4IC0zLjY3MiwwIC01LjQyNCwtMi4yMzIgLTEuNzUyLC0yLjIzMiAtMS43NTIsLTYuMzg0IDAsLTEuOTY4IDAuNDMyLC0zLjU3NiAwLjQ1NiwtMS42MzIgMS4zNDQsLTIuNzg0IDAuOTEyLC0xLjE1MiAyLjI1NiwtMS43NzYgMS4zNjgsLTAuNjQ4IDMuMTkyLC0wLjY0OCAwLjk4NCwwIDEuOCwwLjE5MiAwLjgxNiwwLjE5MiAxLjQ0LDAuNDggMC42MjQsMC4yNjQgMS4wNTYsMC41NzYgMC40NTYsMC4yODggMC43MiwwLjUyOCBsIC0wLjc2OCwxLjA4IHEgLTAuNiwtMC41MDQgLTEuNjMyLC0xLjAwOCAtMS4wMzIsLTAuNTI4IC0yLjU2OCwtMC41MjggeiIvPiYjeGE7ICAgICAgICA8cGF0aCBpbmtzY2FwZTpjb25uZWN0b3ItY3VydmF0dXJlPSIwIiBpZD0icGF0aDg0NyIgc3R5bGU9ImZvbnQtdmFyaWFudC1saWdhdHVyZXM6bm9ybWFsO2ZvbnQtdmFyaWFudC1jYXBzOm5vcm1hbDtmb250LXZhcmlhbnQtbnVtZXJpYzpub3JtYWw7Zm9udC12YXJpYW50LWVhc3QtYXNpYW46bm9ybWFsO2ZpbGw6I2ZmZmZmZjtmaWxsLW9wYWNpdHk6MSIgZD0ibSAxMjkuMTksMjMyLjI3IHEgMCwtMS45NjggMC40NTYsLTMuNTc2IDAuNDgsLTEuNjMyIDEuMzkyLC0yLjc4NCAwLjkxMiwtMS4xNTIgMi4yNTYsLTEuNzc2IDEuMzQ0LC0wLjY0OCAzLjA3MiwtMC42NDggMS43MjgsMCAzLjA0OCwwLjY0OCAxLjM0NCwwLjYyNCAyLjIzMiwxLjc3NiAwLjkxMiwxLjE1MiAxLjM2OCwyLjc4NCAwLjQ4LDEuNjA4IDAuNDgsMy41NzYgMCwxLjk2OCAtMC40OCwzLjYgLTAuNDU2LDEuNjA4IC0xLjM2OCwyLjc4NCAtMC44ODgsMS4xNTIgLTIuMjMyLDEuOCAtMS4zNDQsMC42MjQgLTMuMDcyLDAuNjI0IC0xLjcyOCwwIC0zLjA3MiwtMC42MjQgLTEuMzQ0LC0wLjY0OCAtMi4yNTYsLTEuOCAtMC44ODgsLTEuMTc2IC0xLjM2OCwtMi43ODQgLTAuNDU2LC0xLjYzMiAtMC40NTYsLTMuNiB6IG0gMS41ODQsMCBxIDAsMS42OCAwLjMzNiwzLjA0OCAwLjMzNiwxLjM0NCAxLjAzMiwyLjMyOCAwLjY5NiwwLjk2IDEuNzI4LDEuNDg4IDEuMDU2LDAuNTI4IDIuNDcyLDAuNTI4IDEuNDE2LDAgMi40NDgsLTAuNTI4IDEuMDU2LC0wLjUyOCAxLjc1MiwtMS40ODggMC42OTYsLTAuOTg0IDEuMDMyLC0yLjMyOCAwLjMzNiwtMS4zNjggMC4zMzYsLTMuMDQ4IDAsLTEuNjggLTAuMzM2LC0zLjAyNCAtMC4zMzYsLTEuMzY4IC0xLjAzMiwtMi4zMjggLTAuNjk2LC0wLjk2IC0xLjc1MiwtMS40ODggLTEuMDMyLC0wLjUyOCAtMi40NDgsLTAuNTI4IC0xLjQxNiwwIC0yLjQ3MiwwLjUyOCAtMS4wMzIsMC41MjggLTEuNzI4LDEuNDg4IC0wLjY5NiwwLjk2IC0xLjAzMiwyLjMyOCAtMC4zMzYsMS4zNDQgLTAuMzM2LDMuMDI0IHoiLz4mI3hhOyAgICAgICAgPHBhdGggaW5rc2NhcGU6Y29ubmVjdG9yLWN1cnZhdHVyZT0iMCIgaWQ9InBhdGg4NDkiIHN0eWxlPSJmb250LXZhcmlhbnQtbGlnYXR1cmVzOm5vcm1hbDtmb250LXZhcmlhbnQtY2Fwczpub3JtYWw7Zm9udC12YXJpYW50LW51bWVyaWM6bm9ybWFsO2ZvbnQtdmFyaWFudC1lYXN0LWFzaWFuOm5vcm1hbDtmaWxsOiNmZmZmZmY7ZmlsbC1vcGFjaXR5OjEiIGQ9Im0gMTQ5LjYzLDIyNi4zNCB2IDE0LjM3NiBoIC0xLjQ2NCB2IC0xNi44NzIgaCAxLjU4NCBsIDguMzc2LDE0LjMwNCB2IC0xNC4zMDQgaCAxLjQ2NCB2IDE2Ljg3MiBoIC0xLjQ2NCB6Ii8+JiN4YTsgICAgICAgIDxwYXRoIGlua3NjYXBlOmNvbm5lY3Rvci1jdXJ2YXR1cmU9IjAiIGlkPSJwYXRoODUxIiBzdHlsZT0iZm9udC12YXJpYW50LWxpZ2F0dXJlczpub3JtYWw7Zm9udC12YXJpYW50LWNhcHM6bm9ybWFsO2ZvbnQtdmFyaWFudC1udW1lcmljOm5vcm1hbDtmb250LXZhcmlhbnQtZWFzdC1hc2lhbjpub3JtYWw7ZmlsbDojZmZmZmZmO2ZpbGwtb3BhY2l0eToxIiBkPSJtIDE2OC42MywyMjUuMjYgaCAtNS4xODQgdiAtMS40MTYgaCAxMS44NTYgdiAxLjQxNiBoIC01LjE2IHYgMTUuNDU2IGggLTEuNTEyIHoiLz4mI3hhOyAgICAgICAgPHBhdGggaW5rc2NhcGU6Y29ubmVjdG9yLWN1cnZhdHVyZT0iMCIgaWQ9InBhdGg4NTMiIHN0eWxlPSJmb250LXZhcmlhbnQtbGlnYXR1cmVzOm5vcm1hbDtmb250LXZhcmlhbnQtY2Fwczpub3JtYWw7Zm9udC12YXJpYW50LW51bWVyaWM6bm9ybWFsO2ZvbnQtdmFyaWFudC1lYXN0LWFzaWFuOm5vcm1hbDtmaWxsOiNmZmZmZmY7ZmlsbC1vcGFjaXR5OjEiIGQ9Im0gMTg1LDIzNi4wMSBoIC02LjkzNiBsIC0xLjUxMiw0LjcwNCBoIC0xLjQ0IGwgNS42NCwtMTYuODcyIGggMS42OCBsIDUuNjY0LDE2Ljg3MiBoIC0xLjU2IHogbSAtNi41MjgsLTEuMzIgaCA2LjA5NiBsIC0zLjAyNCwtOS4xMiB6Ii8+JiN4YTsgICAgICAgIDxwYXRoIGlua3NjYXBlOmNvbm5lY3Rvci1jdXJ2YXR1cmU9IjAiIGlkPSJwYXRoODU1IiBzdHlsZT0iZm9udC12YXJpYW50LWxpZ2F0dXJlczpub3JtYWw7Zm9udC12YXJpYW50LWNhcHM6bm9ybWFsO2ZvbnQtdmFyaWFudC1udW1lcmljOm5vcm1hbDtmb250LXZhcmlhbnQtZWFzdC1hc2lhbjpub3JtYWw7ZmlsbDojZmZmZmZmO2ZpbGwtb3BhY2l0eToxIiBkPSJtIDE5My4wNSwyNDAuNzIgaCAtMS41MTIgdiAtMTYuODcyIGggMS41MTIgeiIvPiYjeGE7ICAgICAgICA8cGF0aCBpbmtzY2FwZTpjb25uZWN0b3ItY3VydmF0dXJlPSIwIiBpZD0icGF0aDg1NyIgc3R5bGU9ImZvbnQtdmFyaWFudC1saWdhdHVyZXM6bm9ybWFsO2ZvbnQtdmFyaWFudC1jYXBzOm5vcm1hbDtmb250LXZhcmlhbnQtbnVtZXJpYzpub3JtYWw7Zm9udC12YXJpYW50LWVhc3QtYXNpYW46bm9ybWFsO2ZpbGw6I2ZmZmZmZjtmaWxsLW9wYWNpdHk6MSIgZD0ibSAxOTkuNzEsMjI2LjM0IHYgMTQuMzc2IGggLTEuNDY0IHYgLTE2Ljg3MiBoIDEuNTg0IGwgOC4zNzYsMTQuMzA0IHYgLTE0LjMwNCBoIDEuNDY0IHYgMTYuODcyIGggLTEuNDY0IHoiLz4mI3hhOyAgICAgICAgPHBhdGggaW5rc2NhcGU6Y29ubmVjdG9yLWN1cnZhdHVyZT0iMCIgaWQ9InBhdGg4NTkiIHN0eWxlPSJmb250LXZhcmlhbnQtbGlnYXR1cmVzOm5vcm1hbDtmb250LXZhcmlhbnQtY2Fwczpub3JtYWw7Zm9udC12YXJpYW50LW51bWVyaWM6bm9ybWFsO2ZvbnQtdmFyaWFudC1lYXN0LWFzaWFuOm5vcm1hbDtmaWxsOiNmZmZmZmY7ZmlsbC1vcGFjaXR5OjEiIGQ9Im0gMjE0Ljg5LDIyMy44NSBoIDkuMzEyIHYgMS4zOTIgaCAtNy44IHYgNiBoIDYuMDk2IHYgMS4zOTIgaCAtNi4wOTYgdiA2LjY5NiBoIDguMDQgdiAxLjM5MiBoIC05LjU1MiB6Ii8+JiN4YTsgICAgICAgIDxwYXRoIGlua3NjYXBlOmNvbm5lY3Rvci1jdXJ2YXR1cmU9IjAiIGlkPSJwYXRoODYxIiBzdHlsZT0iZm9udC12YXJpYW50LWxpZ2F0dXJlczpub3JtYWw7Zm9udC12YXJpYW50LWNhcHM6bm9ybWFsO2ZvbnQtdmFyaWFudC1udW1lcmljOm5vcm1hbDtmb250LXZhcmlhbnQtZWFzdC1hc2lhbjpub3JtYWw7ZmlsbDojZmZmZmZmO2ZpbGwtb3BhY2l0eToxIiBkPSJtIDIzOC45OCwyNDAuNzIgaCAtMS43NTIgbCAtNC4xMjgsLTYuOTM2IGggLTMuNDA4IHYgNi45MzYgaCAtMS40ODggdiAtMTYuODcyIGggNC40NCBxIDEuNTEyLDAgMi41MiwwLjQzMiAxLjAzMiwwLjQzMiAxLjY1NiwxLjE1MiAwLjYyNCwwLjY5NiAwLjg4OCwxLjU4NCAwLjI4OCwwLjg2NCAwLjI4OCwxLjc1MiAwLDAuOTM2IC0wLjI2NCwxLjcwNCAtMC4yNjQsMC43NjggLTAuNzIsMS4zNDQgLTAuNDU2LDAuNTc2IC0xLjA4LDAuOTg0IC0wLjYsMC40MDggLTEuMjcyLDAuNjQ4IHogbSAtMi40NzIsLTExLjg4IHEgMCwtMS42OCAtMC45NiwtMi42NjQgLTAuOTM2LC0wLjk4NCAtMy4wNzIsLTAuOTg0IGggLTIuNzg0IHYgNy4yNzIgaCAyLjg4IHEgMi4wNCwwIDIuOTc2LC0wLjk4NCAwLjk2LC0wLjk4NCAwLjk2LC0yLjY0IHoiLz4mI3hhOyAgICAgIDwvZz4mI3hhOyAgICAgIDxnIGlkPSJnODcxIiBmaWxsPSIjMDBjOWZmIj4mI3hhOyAgICAgICAgPHBhdGggaW5rc2NhcGU6Y29ubmVjdG9yLWN1cnZhdHVyZT0iMCIgaWQ9InBhdGg4NjUiIHN0eWxlPSJmb250LXZhcmlhbnQtbGlnYXR1cmVzOm5vcm1hbDtmb250LXZhcmlhbnQtY2Fwczpub3JtYWw7Zm9udC12YXJpYW50LW51bWVyaWM6bm9ybWFsO2ZvbnQtdmFyaWFudC1lYXN0LWFzaWFuOm5vcm1hbCIgZD0ibSAyNDIuNDIsMjIyLjcyIGggMi4xMzYgdiAxOCBoIC0yLjEzNiB6Ii8+JiN4YTsgICAgICAgIDxwYXRoIGlua3NjYXBlOmNvbm5lY3Rvci1jdXJ2YXR1cmU9IjAiIGlkPSJwYXRoODY3IiBzdHlsZT0iZm9udC12YXJpYW50LWxpZ2F0dXJlczpub3JtYWw7Zm9udC12YXJpYW50LWNhcHM6bm9ybWFsO2ZvbnQtdmFyaWFudC1udW1lcmljOm5vcm1hbDtmb250LXZhcmlhbnQtZWFzdC1hc2lhbjpub3JtYWwiIGQ9Im0gMjU1Ljk3LDIzNS4xMyBxIC0wLjAyNCwwIC0wLjMxMiwtMC4wNDggLTAuMjg4LC0wLjA0OCAtMC43MiwtMC4wNzIgLTAuNDMyLC0wLjA0OCAtMC45MzYsLTAuMDcyIC0wLjUwNCwtMC4wNDggLTAuOTM2LC0wLjA0OCAtMC43NjgsMCAtMS4zMiwwLjE5MiAtMC41MjgsMC4xOTIgLTAuODY0LDAuNTI4IC0wLjMzNiwwLjMxMiAtMC41MDQsMC43NDQgLTAuMTQ0LDAuNDMyIC0wLjE0NCwwLjkzNiAwLDEuMDMyIDAuNjcyLDEuNTM2IDAuNjk2LDAuNTA0IDEuOCwwLjUwNCAwLjYsMCAxLjE3NiwtMC4xOTIgMC41NzYsLTAuMTkyIDEuMDMyLC0wLjUyOCAwLjQ4LC0wLjM2IDAuNzY4LC0wLjgxNiAwLjI4OCwtMC40OCAwLjI4OCwtMS4wNTYgeiBtIDAuMTQ0LDUuNTkyIC0wLjA5NiwtMS4zNDQgcSAtMC41NTIsMC43NjggLTEuNjA4LDEuMjI0IC0xLjA1NiwwLjQzMiAtMi4xODQsMC40MzIgLTAuNzIsMCAtMS40NCwtMC4xOTIgLTAuNzIsLTAuMTkyIC0xLjI5NiwtMC42MjQgLTAuNTc2LC0wLjQzMiAtMC45NiwtMS4xNTIgLTAuMzYsLTAuNzIgLTAuMzYsLTEuNzc2IDAsLTEuODQ4IDEuMiwtMi45NTIgMS4yLC0xLjEwNCAzLjYsLTEuMTA0IDAuMzg0LDAgMC44NjQsMC4wMjQgMC40OCwwLjAyNCAwLjkxMiwwLjA3MiAwLjQzMiwwLjAyNCAwLjc2OCwwLjA3MiAwLjMzNiwwLjAyNCAwLjQ1NiwwLjA0OCB2IC0wLjc0NCBxIDAsLTEuMzIgLTAuNzkyLC0xLjg5NiAtMC43NjgsLTAuNTc2IC0yLjIwOCwtMC41NzYgLTEuMjk2LDAgLTIuMjA4LDAuMjg4IC0wLjg4OCwwLjI4OCAtMS4yOTYsMC41MjggbCAtMC42NDgsLTEuNTEyIHEgMC4yMTYsLTAuMTQ0IDAuNiwtMC4zMzYgMC4zODQsLTAuMTkyIDAuOTM2LC0wLjM2IDAuNTc2LC0wLjE5MiAxLjI5NiwtMC4zMTIgMC43NDQsLTAuMTIgMS42NTYsLTAuMTIgMi4xODQsMCAzLjQ1NiwxLjA4IDEuMjcyLDEuMDU2IDEuMjcyLDMuMDk2IHYgOC4xMzYgeiIvPiYjeGE7ICAgICAgICA8cGF0aCBpbmtzY2FwZTpjb25uZWN0b3ItY3VydmF0dXJlPSIwIiBpZD0icGF0aDg2OSIgc3R5bGU9ImZvbnQtdmFyaWFudC1saWdhdHVyZXM6bm9ybWFsO2ZvbnQtdmFyaWFudC1jYXBzOm5vcm1hbDtmb250LXZhcmlhbnQtbnVtZXJpYzpub3JtYWw7Zm9udC12YXJpYW50LWVhc3QtYXNpYW46bm9ybWFsIiBkPSJtIDI2Mi4xOSwyMjIuNzIgaCAyLjEzNiB2IDcuNDg4IHEgMC4wOTYsLTAuMjE2IDAuMzYsLTAuNTA0IDAuMjg4LC0wLjMxMiAwLjc0NCwtMC42IDAuNDU2LC0wLjI4OCAxLjA4LC0wLjQ4IDAuNjI0LC0wLjIxNiAxLjQ0LC0wLjIxNiAxLjMyLDAgMi4zMDQsMC40OCAwLjk4NCwwLjQ4IDEuNjMyLDEuMzIgMC42NDgsMC44NCAwLjk2LDEuOTY4IDAuMzEyLDEuMTA0IDAuMzEyLDIuNCAwLDEuNzc2IC0wLjQ4LDMgLTAuNDgsMS4yIC0xLjI0OCwxLjk0NCAtMC43NjgsMC43NDQgLTEuNzUyLDEuMDggLTAuOTYsMC4zMTIgLTEuOTQ0LDAuMzEyIC0wLjcyLDAgLTEuMjk2LC0wLjE0NCAtMC41NTIsLTAuMTIgLTAuOTg0LC0wLjMxMiAtMC40MzIsLTAuMTkyIC0wLjc0NCwtMC40MDggLTAuMjg4LC0wLjIxNiAtMC40NTYsLTAuNDA4IGwgLTAuMDk2LDEuMDggaCAtMS45NjggeiBtIDUuMjU2LDE2LjM0NCBxIDEuNjA4LDAgMi41NDQsLTEuMDU2IDAuOTYsLTEuMDggMC45NiwtMy40MzIgMCwtMC45MTIgLTAuMTkyLC0xLjY4IC0wLjE5MiwtMC43OTIgLTAuNiwtMS4zNDQgLTAuNDA4LC0wLjU3NiAtMS4wMzIsLTAuODg4IC0wLjYsLTAuMzEyIC0xLjQ0LC0wLjMxMiAtMS42NTYsMCAtMi41MiwxLjE1MiAtMC44NjQsMS4xNTIgLTAuODY0LDMuNTUyIHYgMi42MTYgcSAwLjMzNiwwLjQ1NiAxLjEyOCwwLjkzNiAwLjgxNiwwLjQ1NiAyLjAxNiwwLjQ1NiB6Ii8+JiN4YTsgICAgICA8L2c+JiN4YTsgICAgPC9nPiYjeGE7ICA8L2c+JiN4YTsgIDxnIGlkPSJnODc5IiB0cmFuc2Zvcm09InRyYW5zbGF0ZSgtMTA0LjI2LC05Ny42NTQpIj4mI3hhOyAgICA8cGF0aCBzdHlsZT0iZmlsbDojZmZmZmZmO2ZpbGwtb3BhY2l0eToxIiBpbmtzY2FwZTpjb25uZWN0b3ItY3VydmF0dXJlPSIwIiBpZD0icGF0aDg3NyIgZmlsbC1ydWxlPSJldmVub2RkIiBmaWxsPSIjMDAxMTM1IiBkPSJtIDE4My44OCwxMDguMDMgYyAtMC45MDUsMC4zMDYgLTMuNDk3LDEuNjUxIC01Ljc2MSwyLjk5IC0zLjg1MywyLjI3OCAtMTEuMDEzLDYuMzg1IC0xNS4xMTcsOC42NzIgLTguOTEsNC45NjUgLTEyLjIyMiw3LjI0IC0xMy42LDkuMzQgbCAtMS40LDIuMTM1IHYgNDggbCAxLjQ5NSwyLjIzNCBjIDAuOTgxLDEuNDY2IDIuMTQ5LDIuNjA0IDMuNCwzLjMxMSAxLjA0OCwwLjU5MyAyLjE3NSwxLjI0OSAyLjUwNSwxLjQ1NyAxLjQyNywwLjkwMSA2Ljg4MiwzLjk5OCA3LjA0MSwzLjk5OCAwLjA5NiwwIDAuOTM2LDAuNDkgMS44NjcsMS4wOSAwLjkzMSwwLjU5OSAyLjA2OCwxLjI5MyAyLjUyNywxLjU0MyA1LjExOCwyLjc3NSA2LjQ1NiwzLjU0MyA2Ljk5Niw0LjAxNSAwLjM0OCwwLjMwNCAwLjc0LDAuNTUyIDAuODczLDAuNTUyIDAuMjEyLDAgOS41MTEsNS4zNTkgMTEuMDk2LDYuMzkzIDUuMDY0LDMuMzA4IDkuMjg0LDMuNTU2IDE0LjIsMC44MzcgMS43NiwtMC45NzQgMy41NiwtMS45NjkgNCwtMi4yMTEgMC40NCwtMC4yNDIgMS41NzEsLTAuOTM2IDIuNTEzLC0xLjU0MiAwLjk0MiwtMC42MDcgMi40NzIsLTEuNDk1IDMuNCwtMS45NzQgMC45MjgsLTAuNDc5IDMuMjU3LC0xLjgyMyA1LjE3NSwtMi45ODcgMS45MTgsLTEuMTY0IDMuNTcxLC0yLjExNiAzLjY3MiwtMi4xMTYgMC4xMDIsMCAyLjg1MiwtMS41NzYgNi4xMTIsLTMuNTAzIDMuMjYxLC0xLjkyNyA2LjU3MiwtMy44NDEgNy4zNTksLTQuMjU0IDMuMDI3LC0xLjU4OCA0LjYxNiwtMi45NTIgNS44NjksLTUuMDQxIGwgMS4zLC0yLjE2NyAtMC4wMDQsLTIzLjYxNyAtMC4wMDQsLTIzLjYxOCAtMS4xODQsLTIuMDY2IGMgLTAuNjUyLC0xLjEzNiAtMS44NjUsLTIuNTQxIC0yLjY5NywtMy4xMjEgLTEuNzk1LC0xLjI1NCAtMTEuNTY3LC02Ljk1MSAtMTcuMTExLC05Ljk3NiAtMC40NCwtMC4yNDEgLTEuMDcsLTAuNjQyIC0xLjQsLTAuODkyIC0wLjMzLC0wLjI1MSAtMS41LC0wLjkzNSAtMi42LC0xLjUyMiAtMS4xLC0wLjU4NiAtMi4zNTMsLTEuMjgxIC0yLjc4NSwtMS41NDQgLTguNzg2LC01LjM1NyAtMTEuMDE0LC01Ljg4OSAtMTIuOTk4LC0zLjEwMyAtMC43OTIsMS4xMTIgLTAuODE3LDEuNjY5IC0wLjgxNywxOC4yMDYgdiAxNy4wNTkgbCAxLjUsMC41OTcgYyA0LjUzNSwxLjgwNyA1LjI3NiwyLjIwOSA3Ljg4NSw0LjI3OCAyLjMwNSwxLjgyOSA2LjgxMzgsOC4zNTc3IDYuODEzOCw5LjU2MTcgMCwwLjI5NCAtMC4zNDY4LC0wLjQ1MDczIC0wLjAzNzgsMC4wMzYzIDIuMDg3LDMuMjk3IDEuNTY5LDExLjM3MyAtMS4wNTMsMTYuNDE1IC0xMS43NiwyMi42MTMgLTQ1LjQ5MywxMC41IC00MC4xNDYsLTE0LjQxNyAxLjQzMywtNi42NzggMTAuMTMyLC0xNS41NjkgMTUuMTI2LC0xNS43MTIgMS45NTksLTAuMDU2MSAxLjkxMiwtMC43ODQgMS45MTIsLTE3LjkwOSAwLC0xNy4wMTcgLTAuMDMzLC0xNy4zNTIgLTEuODU5LC0xOC45MzYgLTEuMTE5LC0wLjk3IC0yLjI0NiwtMS4xMDYgLTQuMDYzLC0wLjQ5MiBtIDEuNTc3LDE1LjM3NCBjIDAuMDEyLDUuODEgMC4wMDQsMTIuMjkxIC0wLjAxNywxNC40MDIgbCAtMC4wMzgsMy44MzkgLTIuOTc4LDEuNDcyIGMgLTI0LjEzMywxMS45MjcgLTE1LjY5Nyw0OC4zNzQgMTEuMTc4LDQ4LjI5IDI3LjM3NywtMC4wODUgMzUuNDcsLTM2LjEgMTAuOTEzLC00OC41NjUgbCAtMi41MTMsLTEuMjc1IHYgLTI5LjIgbCAwLjk3OSwwLjEwOSBjIDAuNTM4LDAuMDYgMS4yNTgsMC4zNSAxLjYsMC42NDQgMC4zNDEsMC4yOTMgMS44NTUsMS4yMDMgMy4zNjQsMi4wMjEgMS41MDgsMC44MTggMy44OTYsMi4xOTMgNS4zMDcsMy4wNTYgMS40MSwwLjg2NCAyLjYzNSwxLjU3IDIuNzIzLDEuNTcgMC4yNTYsMCAxMy4wMTIsNy40MjcgMTUuNTk5LDkuMDgyIDQuMjM3LDIuNzEyIDQuMDEzLDEuMjkxIDQuMTIyLDI2LjExOCBsIDAuMDk1LDIxLjQgLTAuOTI1LDEuOCBjIC0wLjkxMywxLjc3NSAtMi41MjMsMy4xMzcgLTUuNjY0LDQuNzg5IC0xLjY2MSwwLjg3MyAtMi41MDIsMS4zNjUgLTQuMTk4LDIuNDU0IC0wLjU1MSwwLjM1NCAtMi4wODIsMS4yMzkgLTMuNDAyLDEuOTY2IC0zLjcyNywyLjA1MyAtNC40MDEsMi40NCAtMTAuOCw2LjE5NSAtMy4zLDEuOTM3IC02LjcyLDMuOTA5IC03LjYsNC4zODIgLTAuODgsMC40NzMgLTMuMDU4LDEuNzA1IC00LjgzOSwyLjczNyAtNC45MjQsMi44NTMgLTUuMDEzLDIuODMxIC0xNi4zNiwtNC4wMDYgLTAuNDQsLTAuMjY1IC0xLjIzNCwtMC42NzcgLTEuNzY0LC0wLjkxNCAtMC41MjksLTAuMjM3IC0xLjc1MywtMC45NjUgLTIuNzIsLTEuNjE3IC0wLjk2NiwtMC42NTIgLTEuODkzLC0xLjE4NiAtMi4wNTksLTEuMTg2IC0wLjE2NiwwIC0xLjE5MiwtMC41NjkgLTIuMjgsLTEuMjY1IC0yLjEwOCwtMS4zNDkgLTkuMzg1LC01LjUzNSAtOS42MjIsLTUuNTM1IC0wLjA3NywwIC0xLjA5MywtMC41ODUgLTIuMjU4LC0xLjMgLTEuMTY1LC0wLjcxNSAtMi40NzMsLTEuNTE4IC0yLjkwOCwtMS43ODUgLTAuNDM0LC0wLjI2NyAtMS41NiwtMC44ODYgLTIuNTAxLC0xLjM3NiAtMC45NDEsLTAuNDkgLTIuMjAxLC0xLjUzMiAtMi44LC0yLjMxNSBsIC0xLjA4OSwtMS40MjQgdiAtNDUuNjIgbCAwLjkxLC0xLjE1NiBjIDAuODQ0LC0xLjA3MyA1LjExOSwtNC4xODcgNS43ODMsLTQuMjEzIDAuMTYxLC0wLjAwNiAxLjQ2OSwtMC43MzEgMi45MDcsLTEuNjExIDEuNDM4LC0wLjg4IDIuNzA4LC0xLjYgMi44MjMsLTEuNiAwLjExNSwwIDAuNjk3LC0wLjMzNSAxLjI5MywtMC43NDQgMS4xMywtMC43NzUgMTAuODEzLC02LjM4MyAxNC4yODQsLTguMjcxIDEuMSwtMC41OTkgMi4yNywtMS4zMTcgMi42LC0xLjU5NiAwLjc0NCwtMC42MjggMi4wOTQsLTAuOTQxIDIuNTE3LC0wLjU4MyAwLjE3NCwwLjE0NyAwLjMyNiw1LjAyMSAwLjMzOCwxMC44MzEiLz4mI3hhOyAgPC9nPiYjeGE7PC9zdmc+" parent="1" vertex="1">
          <mxGeometry x="533" y="117" width="36.51" height="30.54" as="geometry" />
        </mxCell>
        <mxCell id="I8sWgkqPkgdZGUBCEqay-5" value="" style="image;sketch=0;aspect=fixed;html=1;points=[];align=center;fontSize=12;image=img/lib/mscae/Person.svg;" parent="1" vertex="1">
          <mxGeometry x="261.2" y="380.18" width="17" height="22.98" as="geometry" />
        </mxCell>
        <mxCell id="I8sWgkqPkgdZGUBCEqay-7" value="" style="image;sketch=0;aspect=fixed;html=1;points=[];align=center;fontSize=12;image=img/lib/mscae/Person.svg;" parent="1" vertex="1">
          <mxGeometry x="342.5" y="380.18" width="17" height="22.98" as="geometry" />
        </mxCell>
        <mxCell id="I8sWgkqPkgdZGUBCEqay-8" value="" style="image;sketch=0;aspect=fixed;html=1;points=[];align=center;fontSize=12;image=img/lib/mscae/Person.svg;" parent="1" vertex="1">
          <mxGeometry x="421" y="380.18" width="17" height="22.98" as="geometry" />
        </mxCell>
        <mxCell id="I8sWgkqPkgdZGUBCEqay-9" value="" style="image;sketch=0;aspect=fixed;html=1;points=[];align=center;fontSize=12;image=img/lib/mscae/Person.svg;" parent="1" vertex="1">
          <mxGeometry x="502.5" y="380.18" width="17" height="22.98" as="geometry" />
        </mxCell>
        <mxCell id="a-n_sg4-itMc0juheq05-2" value="VIP&lt;br&gt;1.1.1.100" style="text;strokeColor=none;align=left;fillColor=none;html=1;verticalAlign=middle;whiteSpace=wrap;rounded=0;fontFamily=Google Sans;fontSource=https%3A%2F%2Ffonts.googleapis.com%2Fcss%3Ffamily%3DGoogle%2BSans;fontSize=7;fontColor=#FFFFFF;" vertex="1" parent="1">
          <mxGeometry x="407.8" y="262" width="17" height="13" as="geometry" />
        </mxCell>
        <mxCell id="a-n_sg4-itMc0juheq05-3" value="VIP&lt;br&gt;1.1.1.100" style="text;strokeColor=none;align=left;fillColor=none;html=1;verticalAlign=middle;whiteSpace=wrap;rounded=0;fontFamily=Google Sans;fontSource=https%3A%2F%2Ffonts.googleapis.com%2Fcss%3Ffamily%3DGoogle%2BSans;fontSize=7;fontColor=#FFFFFF;" vertex="1" parent="1">
          <mxGeometry x="488.97" y="262" width="17" height="13" as="geometry" />
        </mxCell>
      </root>
    </mxGraphModel>
  </diagram>
</mxfile>
